<?xml version="1.0" encoding="utf-8"?>
<!-- Generator: Adobe Illustrator 21.0.2, SVG Export Plug-In . SVG Version: 6.00 Build 0)  -->
<svg version="1.1" id="Calque_1" xmlns="http://www.w3.org/2000/svg" xmlns:xlink="http://www.w3.org/1999/xlink" x="0px" y="0px"
	 viewBox="0 0 571 107" style="enable-background:new 0 0 571 107;" xml:space="preserve">
<style type="text/css">
	.st0{fill:#FF6600;}
</style>
<path class="st0" d="M90.9,103.4V45.5L66,103.4H52.3L27.9,45.5v57.9H2.2V3.1h34.3l23.6,56.6L84.8,3.2h31.7v100.2H90.9L90.9,103.4z
	 M136.2,103.4V3.1h21.9c1.9,0,3.8,1.9,3.8,4v96.2C162,103.4,136.2,103.4,136.2,103.4z M233.2,45.7h32.6c2.6,0,4,2.1,4,4.6V102
	c-9.2,2-23.5,3.3-34.1,3.3c-37.4,0-57.1-17.8-57.1-52.2c0-30.7,19.7-51.9,52.6-51.9c14.5,0,27.2,3.9,35.3,9.4l-10.1,17.2
	c-7.1-3.2-16.6-5.4-23.3-5.4c-18.9,0-27.7,12.5-27.7,30.7c0,19.4,10.2,31.3,29.1,31.3c3.4,0,7.7-0.1,11.2-0.7V66.1h-12.4L233.2,45.7
	L233.2,45.7z M327,22.5h-12.6v25.1H327c7.5,0,13.5-4,13.5-13.5C340.4,24.4,334.5,22.5,327,22.5z M346,103.4l-11.9-27.6
	c-2.4-5.6-4.1-8.4-9.3-8.4h-10.4v36h-25.2V7.2c0-2.1,2.3-4,3.9-4h35.6c19.3,0,35.9,4,35.9,29c0,11.2-6.2,22.6-17.8,24.9
	c5.8,2,11.6,9.4,14.8,17.4l11.5,28.9H346L346,103.4z M428.7,22.5c-13.5,0-23.1,9.7-23.1,30.7c0,21.3,9.6,30.9,23.1,30.9
	c11.6,0,21.1-9.6,21.1-30.9C449.8,32.1,440.3,22.5,428.7,22.5L428.7,22.5z M428.7,105.3c-32.8,0-50.2-23.2-50.2-52.2
	c0-28.8,17.4-51.9,50.2-51.9c30.7,0,48.1,23.2,48.1,51.9C476.8,82.1,459.4,105.3,428.7,105.3L428.7,105.3z M526.1,105.3
	c-17,0-32.7-6.1-39.7-10.9l11.4-20.3c6.4,3.9,18.8,9.8,30.2,9.8c6.5,0,14.7-1.2,14.7-8.4c0-6.8-9.1-8.8-21.1-12.2
	c-14.5-4.1-31.3-9.9-31.3-29.4c0-21,18.6-32.7,42.9-32.7c16,0,28.4,5.7,34.7,11.7L554,28.8c-6.9-4.1-13.9-7.3-21.8-7.3
	c-9.5,0-14.9,3.6-14.9,8.8c0,5.2,6.9,7.9,15.6,10.5c15.3,4.7,36.3,9.6,36.3,29.6C569.1,91.1,552.6,105.3,526.1,105.3z"/>
</svg>
