<?xml version="1.0" encoding="utf-8"?>
<!-- Generator: Adobe Illustrator 21.0.2, SVG Export Plug-In . SVG Version: 6.00 Build 0)  -->
<svg version="1.1" id="Calque_1" xmlns="http://www.w3.org/2000/svg" xmlns:xlink="http://www.w3.org/1999/xlink" x="0px" y="0px"
	 viewBox="0 0 165 20" style="enable-background:new 0 0 165 20;" xml:space="preserve">
<style type="text/css">
	.st0{fill:#009688;}
	.st1{fill:#111111;}
</style>
<title>Logo_opendata_hover</title>
<path class="st0" d="M5.5,4.9c2.6,0,5.1,2,5.1,5.5c0,3.5-2.4,5.5-5.1,5.5c-2.6,0-5.1-2-5.1-5.5C0.4,7,2.9,5,5.5,4.9L5.5,4.9z
	 M5.5,13.4c1.3,0,1.9-1.2,1.9-3c0-1.8-0.7-3-1.9-3c-1.3,0-1.9,1.2-1.9,3C3.6,12.2,4.2,13.4,5.5,13.4z M15.8,16.4v3h-3.1V5.2h2.5
	l0.2,1h0.1c0.8-0.7,1.9-1.3,3-1.3c2.5,0,4.1,2.1,4.1,5.3c0,3.6-2.1,5.6-4.4,5.6c-0.9,0-1.8-0.4-2.5-1.1
	C15.7,14.8,15.8,16.4,15.8,16.4z M17.4,13.4c1.1,0,1.9-0.9,1.9-3.1c0-1.9-0.6-2.8-1.8-2.8c-0.6,0-1.2,0.3-1.8,0.9v4.3
	C16.2,13.1,16.8,13.3,17.4,13.4L17.4,13.4z M29,4.9c3,0,4.4,2.2,4.4,5c0,0.6-0.1,1-0.1,1.3h-6.2c0.3,1.6,1.3,2.3,2.7,2.3
	c0.8,0,1.5-0.2,2.2-0.7l1,1.9c-1.1,0.7-2.5,1.2-3.7,1.2c-3,0-5.3-2-5.3-5.5C24.1,7,26.5,5,29,4.9L29,4.9z M30.8,9.3
	c0-1.2-0.5-2-1.8-2c-1,0-1.8,0.7-2,2H30.8z M35.6,5.2h2.5l0.2,1.3h0.1c0.9-0.8,1.9-1.6,3.3-1.6C44,4.9,45,6.5,45,9.1v6.5h-3.1V9.6
	c0-1.5-0.4-2-1.3-2c-0.8,0-1.3,0.4-1.9,1v7h-3.1C35.6,15.6,35.6,5.2,35.6,5.2z M51.4,4.9c1.2,0,1.9,0.4,2.6,1.1l-0.1-1.6V0.9h3.1
	v14.7h-2.5l-0.2-1h-0.1c-0.7,0.7-1.8,1.3-2.8,1.3c-2.6,0-4.3-2.1-4.3-5.5C47.1,7,49.2,5,51.4,4.9z M52.1,13.4c0.7,0,1.2-0.3,1.7-0.9
	V8.1c-0.5-0.4-1.1-0.7-1.7-0.7c-1,0-1.9,0.9-1.9,2.9C50.2,12.4,50.9,13.4,52.1,13.4z M65.1,8.9c-0.1-0.9-0.5-1.5-1.6-1.5
	c-0.9,0-1.8,0.4-2.8,0.9l-1.1-2C60.9,5.5,62.4,5,64.1,5c2.7,0,4.1,1.5,4.1,4.7v6h-2.5l-0.2-1.1h-0.1c-0.9,0.8-1.9,1.3-3,1.3
	c-1.9,0-3.1-1.4-3.1-3.1C59.3,10.5,61,9.3,65.1,8.9L65.1,8.9z M63.4,13.5c0.7,0,1.2-0.3,1.7-0.9v-1.8c-2.2,0.3-2.9,0.9-2.9,1.7
	C62.2,13.2,62.7,13.5,63.4,13.5z M71.3,7.6h-1.4V5.3l1.6-0.1l0.4-2.8h2.6v2.8h2.5v2.4h-2.5v4.2c0,1.2,0.5,1.7,1.3,1.7
	c0.3,0,0.7-0.1,1-0.2l0.5,2.2c-0.7,0.2-1.5,0.4-2.3,0.4c-2.6,0-3.6-1.6-3.6-4L71.3,7.6L71.3,7.6z M84.1,8.9
	c-0.1-0.9-0.5-1.5-1.6-1.5c-0.9,0-1.8,0.4-2.8,0.9l-1.1-2C79.9,5.5,81.4,5,83.1,5c2.7,0,4.1,1.5,4.1,4.7v6h-2.5l-0.2-1.1h-0.1
	c-0.9,0.8-1.9,1.3-3,1.3c-1.9,0-3.1-1.4-3.1-3.1C78.3,10.5,80,9.3,84.1,8.9L84.1,8.9z M82.4,13.5c0.7,0,1.2-0.3,1.7-0.9v-1.8
	c-2.2,0.3-2.9,0.9-2.9,1.7C81.2,13.2,81.7,13.5,82.4,13.5z"/>
<path class="st1" d="M91.7,12c1.1,0,1.9,0.8,1.9,2c0,1.1-0.8,1.9-1.9,1.9c-1.1,0-1.9-0.8-1.9-1.9C89.8,12.8,90.6,12,91.7,12L91.7,12
	z M96.6,12.5c0.9,0.7,1.8,1.1,2.7,1.1c0.9,0,1.3-0.3,1.3-0.9c0-0.7-1-1-2.1-1.4c-1.3-0.5-2.8-1.3-2.8-3.1c0-1.9,1.6-3.3,4-3.3
	c1.6,0,2.8,0.7,3.7,1.3L102,8.1c-0.8-0.6-1.5-0.9-2.2-0.9c-0.8,0-1.2,0.3-1.2,0.8c0,0.7,1,0.9,2,1.3c1.3,0.5,2.8,1.2,2.8,3.1
	c0,1.9-1.5,3.4-4.3,3.4c-1.4,0-2.9-0.6-4-1.4C95.3,14.5,96.6,12.5,96.6,12.5z M104.6,5.2h3.1l1,4.8c0.2,1,0.3,2,0.5,3.1h0.1
	c0.2-1,0.4-2.1,0.6-3.1l1.2-4.8h2.7l1.2,4.8c0.3,1,0.4,2,0.7,3.1h0.1c0.2-1,0.3-2.1,0.5-3.1l1-4.8h2.9l-2.5,10.4h-3.6l-0.9-4.2
	c-0.2-1-0.4-2-0.6-3h-0.1c-0.2,1.1-0.3,2.1-0.5,3l-0.9,4.2h-3.5L104.6,5.2L104.6,5.2z M121.5,2c0-0.9,0.8-1.6,1.8-1.6
	c1,0,1.8,0.7,1.8,1.6s-0.7,1.6-1.8,1.6C122.3,3.7,121.5,3,121.5,2z M121.8,5.2h3.1v10.4h-3.1V5.2z M128,12.5
	c0.9,0.7,1.8,1.1,2.7,1.1c0.9,0,1.3-0.3,1.3-0.9c0-0.7-1-1-2.1-1.4c-1.3-0.5-2.8-1.3-2.8-3.1c0-1.9,1.6-3.3,4-3.3
	c1.6,0,2.8,0.7,3.7,1.3l-1.4,1.9c-0.8-0.6-1.5-0.9-2.2-0.9c-0.8,0-1.2,0.3-1.2,0.8c0,0.7,1,0.9,2,1.3c1.3,0.5,2.8,1.2,2.8,3.1
	c0,1.9-1.5,3.4-4.3,3.4c-1.4,0-2.9-0.6-4-1.4L128,12.5L128,12.5z M137.3,12.5c0.9,0.7,1.8,1.1,2.7,1.1c0.9,0,1.3-0.3,1.3-0.9
	c0-0.7-1-1-2.1-1.4c-1.3-0.5-2.7-1.3-2.7-3.1c0-1.9,1.6-3.3,4-3.3c1.6,0,2.8,0.7,3.7,1.3l-1.4,1.9c-0.8-0.6-1.5-0.9-2.2-0.9
	c-0.8,0-1.2,0.3-1.2,0.8c0,0.7,1,0.9,2,1.3c1.3,0.5,2.8,1.2,2.8,3.1c0,1.9-1.5,3.4-4.3,3.4c-1.4,0-2.9-0.6-4-1.4L137.3,12.5z"/>
<path class="st0" d="M153.1,4.8c2.1-1.5,5.2-1.3,7.1,0.6c1.9,1.9,2.2,4.9,0.6,7.1l2.1,2.1c1.2-1.5,1.9-3.3,1.9-5.3
	c0-2.2-0.9-4.4-2.5-5.9c-1.6-1.6-3.7-2.5-5.9-2.5c-1.9,0-3.8,0.7-5.3,1.9L153.1,4.8L153.1,4.8z"/>
<path class="st1" d="M159.4,13.9c-2.1,1.5-5.1,1.3-7-0.7c-1.9-1.9-2.1-4.9-0.7-7l-2.1-2.1c-1.2,1.5-1.8,3.3-1.8,5.2
	c0,2.2,0.9,4.4,2.5,5.9c1.6,1.6,3.7,2.5,5.9,2.5c1.9,0,3.7-0.6,5.2-1.8L159.4,13.9L159.4,13.9z"/>
</svg>
