<svg id="Calque_1" xmlns="http://www.w3.org/2000/svg" xmlns:xlink="http://www.w3.org/1999/xlink" viewBox="0 0 193.3 54.6"><style>.st0{clip-path:url(#SVGID_2_)}.st1{fill:#fcd205}.st2{fill:#fff}.st3{fill:#ed1c24}.st4{fill:#231f20}</style><defs><path id="SVGID_1_" d="M0 0h193.3v54.6H0z"/></defs><clipPath id="SVGID_2_"><use xlink:href="#SVGID_1_" overflow="visible"/></clipPath><g class="st0"><path class="st1" d="M0-16h1486.8v420.2H0V-16z" transform="matrix(.13 0 0 -.13 0 52.525)"/><path class="st2" d="M1234.7 80.1l14.5 68.8H63.5L48.9 80.1h1185.8" transform="matrix(.13 0 0 -.13 0 52.525)"/><path class="st3" d="M1377.5 242.7s15.9 72.9 16.1 73.6h-101c0-.5-20.9-96.7-20.9-97.2h25.9c.2 0 15.9 72.7 15.9 72.7h49s-15.4-72.9-15.9-73.3h74.7l-9.8-45h-74.3c0-.5-15-68.6-15-68.6h-56.1c0-.2-5-24.5-5.2-24.7h82.6c0 .2 14.8 68.8 14.8 68.8h74.2c0 .2 19.5 93.3 19.5 93.8l-74.5-.1" transform="matrix(.13 0 0 -.13 0 52.525)"/><path class="st4" d="M1194.7 221.1c10.7 0 17.9-7.3 17.9-19.3 0-2-.2-3.9-.4-5.9h-46.1c4.7 15.2 15 25.2 28.6 25.2zm22.9-90.4l5.9 27c-10-3.4-19.8-6.1-32.2-6.1-14.5 0-27.2 5-27.9 22.5h74.9c2.7 8.9 4.3 17.7 4.3 25.9 0 25-14.5 45.4-45.6 45.4-40.4 0-64.9-33.2-64.9-69.7 0-31.3 20.9-49.7 53.4-49.7 13 0 23.5 2 32.1 4.7zm-123.3 23c-14.8 0-24.8 6.4-24.8 24.7 0 21.6 13.6 39.5 35.2 39.5 6.8 0 14.5-2 22.2-5l5.4 25.9c-8.9 3.2-19.3 5.4-29.8 5.4-35.7 0-66.1-26.6-66.1-67.4 0-33.6 20.7-49.5 50.4-49.5 10 0 18.4 1.8 24.5 4.3l5.9 26.6c-6.5-2.5-14-4.5-22.9-4.5zm-156.9-24.3l12.5 57.4c5 23.2 16.4 31.1 28.2 31.1 15.2 0 17-11.4 14.1-24.3l-13.6-64.3h32.5l14.3 65.8c7 32.9-8.2 50.2-32 50.2-13.2 0-25.9-5.2-36.8-16.8l2.9 13.4h-30.2L905 129.3h32.4zm-116.7 32.4c0 11.3 10 17.7 26.6 17.7 3.2 0 10.2-.2 16.6-1.1l-1.4-6.4c-3.9-13.4-14.8-22.5-27.7-22.5-9.3.1-14.1 4.6-14.1 12.3zm31.4 82.9c-15 0-30.2-3.4-35.2-5l-5.4-26.1c7.3 2 21.6 5.9 34.3 5.9 17 0 23.2-5.2 23.2-14.1 0-1.6 0-3.4-.5-5.2l-.5-2.3c-8.2.9-15.9 1.6-19.5 1.6-32.2 0-58.1-12.5-58.1-42 0-19.3 15-30.9 34.5-30.9 13.9 0 25.7 5.4 33.4 14.5l-2.5-11.8h28.8l14.1 64.5c1.1 4.8 1.6 9.8 1.6 14.5-.1 19.4-10.8 36.4-48.2 36.4zM694.7 129.4l12.5 57.4c5 23.2 16.3 31.1 28.2 31.1 15.2 0 17-11.4 14.1-24.3l-13.6-64.3h32.5l14.3 65.8c7 32.9-8.2 50.2-32 50.2-13.2 0-25.9-5.2-36.8-16.8l2.9 13.4h-30.2l-24.3-112.6c-.1.1 32.4.1 32.4.1zm-58.1 143.7c-.7-10.2 6.8-18.2 16.8-18.2 11.1 0 19.1 8 19.7 18.2.7 10.2-6.8 18.2-16.8 18.2-11.1 0-19.1-8-19.7-18.2zM632 242l-24.3-112.6H640L664.3 242H632zm-91.7-112.6l12.7 58.8h49.1L608 217h-48.8l7.5 36.1h51.5l6.4 28.8h-85.1l-32.2-152.6h33zm-32 87.8l5.2 24.7h-34.7l6.8 31.3-33.8-7.5-21.1-96.3c-5.9-27.3 9.1-42.2 36.3-42.2 5.7 0 15.2 1.1 22 3.4l5.4 24.8c-5.4-1.4-12.3-2.7-18.2-2.7-9.3 0-15.9 3.2-13.6 14.5l10.7 49.9c0 .1 35 .1 35 .1zm-123.1-54.7c0-9.1-11.1-10.7-20.4-10.7-11.8 0-25 3.2-32 5.4l-5.5-25.4c10.2-2.5 23.2-4.5 35.4-4.5 29.1 0 52.7 10.9 52.7 38.1 0 35.2-42.2 29.1-42.2 44.7 0 7 6.8 9.5 17.5 9.5 10.2 0 24.5-4.1 29.3-5.4l5.4 25.7c-9.8 2.7-21.3 4.3-31.8 4.3-31.6 0-50.6-14.1-50.6-37.5 0-34.2 42.2-28.5 42.2-44.2zM263 126c35.7 0 59.7 25.9 65.2 59.7 5.7 33.8-13.2 59.7-48.8 59.7-35.6 0-59.7-25.9-65.2-59.7-5.6-33.8 13.2-59.7 48.8-59.7zm3 26.1c-12.9 0-23.2 10.2-18.4 33.6 4.8 23.4 16.1 33.6 29.1 33.6 12.9 0 23.2-10.4 18.2-33.6-4.8-23.2-16-33.6-28.9-33.6zm-136.9 23.8h14.3c45.6 0 71.1 22.5 71.1 59.9 0 27.9-19.8 46.1-53.6 46.1h-42.2L86.4 129.4h32.7l10 46.5zm5.7 28l10.7 50.2h13.6c15 0 22.2-6.1 22.2-20.4 0-18.4-11.6-29.7-32.9-29.7l-13.6-.1" transform="matrix(.13 0 0 -.13 0 52.525)"/></g></svg>