<svg xmlns="http://www.w3.org/2000/svg" viewBox="0 0 24 24"><g fill="#6EA644"><path d="M22.446 1.541c-1.604-1.602-6.085 1.479-8.138 3.046a7.942 7.942 0 0 0-2.115-.293c-4.411 0-8 3.589-8 8 0 .783.118 1.538.329 2.255C2.87 16.818.503 20.61 1.94 22.047c.307.307.73.448 1.246.448 1.439 0 3.599-1.105 5.96-2.808.94.389 1.968.606 3.047.606 4.411 0 8-3.589 8-8a7.98 7.98 0 0 0-.564-2.934 30.047 30.047 0 0 0 1.743-2.56c1.576-2.625 1.937-4.395 1.074-5.258zM11.693 6.294c0 .827-.673 1.5-1.5 1.5-.476 0-.902-.17-1.168-.467-.24-.265-.349-.632-.343-1.079a6.922 6.922 0 0 1 2.668-.898c.217.265.343.596.343.944zm-3.942.595c.107.503.32.873.53 1.107.456.507 1.153.798 1.912.798 1.378 0 2.5-1.121 2.5-2.5 0-.343-.075-.677-.207-.985a6.999 6.999 0 0 1 5.989 3.917 50.503 50.503 0 0 1-4.16 4.689c-1.902 1.901-3.692 3.435-5.28 4.617-2.275-1.157-3.841-3.516-3.841-6.238a6.983 6.983 0 0 1 2.557-5.405zM2.647 21.34c-.411-.41-.095-2.247 2.303-5.672a8.041 8.041 0 0 0 3.188 3.51c-2.884 2.002-4.945 2.708-5.491 2.162zm16.546-9.046a7.002 7.002 0 0 1-9.089 6.682 52.03 52.03 0 0 0 4.917-4.354 52.09 52.09 0 0 0 3.878-4.321c.189.633.294 1.301.294 1.993zm-.054-3.953a8.041 8.041 0 0 0-3.701-3.353c3.778-2.782 5.861-3.181 6.301-2.74.346.346.232 1.61-1.225 4.038a28.207 28.207 0 0 1-1.375 2.055z"/><path d="M9.193 15.794c1.378 0 2.5-1.121 2.5-2.5s-1.122-2.5-2.5-2.5-2.5 1.121-2.5 2.5 1.121 2.5 2.5 2.5zm0-4c.827 0 1.5.673 1.5 1.5s-.673 1.5-1.5 1.5-1.5-.673-1.5-1.5.673-1.5 1.5-1.5z"/><circle cx="14.193" cy="9.294" r="1"/></g><path fill="none" d="M0 0h24v24H0z"/></svg>