<svg xmlns="http://www.w3.org/2000/svg" viewBox="0 0 48 48"><title>beer</title><path d="M30.84 37.92h.1a1 1 0 0 0 .89-1.1l-1-10a1 1 0 0 0-1.09-.89 1 1 0 0 0-.89 1.07l1 10a1 1 0 0 0 .99.92z"/><path d="M42 22a9 9 0 0 0-7.73-16.18 12 12 0 0 0-20.55 0A9 9 0 1 0 10 23a6 6 0 0 0 1 3.23L9.12 40H9a4 4 0 1 0 0 8h30a4 4 0 0 0 0-8h-.1l-.21-2h3.6A4.87 4.87 0 0 0 47 33v-6a5 5 0 0 0-5-5zm-32-1a7 7 0 1 1 3.61-13 1 1 0 0 0 .8.1 1 1 0 0 0 .59-.5 10 10 0 0 1 18 0 1 1 0 0 0 .62.52 1 1 0 0 0 .8-.1 7 7 0 1 1-1.53 10.71 1 1 0 0 0-.74-.32 1 1 0 0 0-.74.33 10.06 10.06 0 0 1-10.14 2.87 1 1 0 0 0-1.27 1V23a4 4 0 1 1-8 0 3.8 3.8 0 0 1 .1-.86 1 1 0 0 0-1-1.22H11a7.92 7.92 0 0 1-1 .08zm6.89 17H17a1 1 0 0 0 1-.89l1-8.92a6 6 0 0 0 3-4.37 12 12 0 0 0 10.19-3 9 9 0 0 0 2.94 1.68L36.89 40H11.14l1.6-12a5.69 5.69 0 0 0 4.15.89l-.89 8a1 1 0 0 0 .89 1.11zM39 42a2 2 0 0 1 0 4H9a2 2 0 1 1 0-4zm6-9a2.87 2.87 0 0 1-2.71 3h-3.8l-1.25-12H42a3 3 0 0 1 3 3z"/><path d="M24.08 37.92a1 1 0 0 0 1-1v-10a1 1 0 0 0-2 0v10a1 1 0 0 0 1 1z"/></svg>