<svg xmlns="http://www.w3.org/2000/svg" viewBox="0 0 48 48"><title>bulb</title><path d="M6 20H4a1 1 0 0 0 0 2h2a1 1 0 0 0 0-2zm33 1a15 15 0 1 0-22 13.26V39a1 1 0 0 0 1 1h1v3a1 1 0 0 0 1 1h3v3a1 1 0 1 0 2 0v-3h3a1 1 0 0 0 1-1v-3h1a1 1 0 0 0 1-1v-4.74A15 15 0 0 0 39 21zM27 42h-6v-2h6zm2-4H19v-2.88a14.71 14.71 0 0 0 10 0zm-5-4.22a1 1 0 0 0 0 .22 1.06 1.06 0 0 0 0-.21L22.18 26h3.64zm2 0L27.87 26H30a3 3 0 1 0 0-6 3.5 3.5 0 0 0-3.42 2.72l-.3 1.28h-4.56l-.29-1.28A3.51 3.51 0 0 0 18 20a3 3 0 1 0 0 6h2.13l1.8 7.82a13 13 0 1 1 4.14 0zM28.33 24l.19-.83A1.51 1.51 0 0 1 30 22a1 1 0 1 1 0 2zm-8.67 0H18a1 1 0 1 1 0-2 1.51 1.51 0 0 1 1.47 1.17zM37.44 6.15a1 1 0 1 1 1.42 1.41L37.44 9A1 1 0 1 1 36 7.56zM44 20a1 1 0 1 1 0 2h-2a1 1 0 1 1 0-2zm-6.56 13l1.42 1.41a1 1 0 0 1-1.42 1.41L36 34.44A1 1 0 0 1 37.44 33zM10.56 9L9.15 7.56a1 1 0 1 1 1.41-1.41L12 7.57A1 1 0 1 1 10.56 9zM24 4a1 1 0 0 1-1-1V1a1 1 0 1 1 2 0v2a1 1 0 0 1-1 1zM10.56 33A1 1 0 0 1 12 34.44l-1.41 1.41a1 1 0 1 1-1.42-1.41z"/></svg>