<svg xmlns="http://www.w3.org/2000/svg" viewBox="0 0 48 48"><title>calendar</title><path d="M47 4h-7V1a1 1 0 0 0-1-1h-6a1 1 0 0 0-1 1v3H16V1a1 1 0 0 0-1-1H9a1 1 0 0 0-1 1v3H1a1 1 0 0 0-1 1v42a1 1 0 0 0 1 1h46a1 1 0 0 0 1-1V5a1 1 0 0 0-1-1zM34 2h4v6h-4zM10 2h4v6h-4zM8 6v3a1 1 0 0 0 1 1h6a1 1 0 0 0 1-1V6h16v3a1 1 0 0 0 1 1h6a1 1 0 0 0 1-1V6h6v8H2V6zM2 46V16h44v30zm21-8h-3V23a1 1 0 0 0-1.71-.71l-4 4a1 1 0 0 0 1.41 1.41l2.3-2.29V38h-3a1 1 0 1 0 0 2h8a1 1 0 1 0 0-2zm11-16H24a1 1 0 0 0-1 1v2a1 1 0 0 0 2 0v-1h7.56l-2.25 6H27a1 1 0 1 0 0 2h2.56l-2.49 6.65a1 1 0 1 0 1.87.71L31.69 32H33a1 1 0 1 0 0-2h-.56l2.49-6.65A1 1 0 0 0 34 22z"/></svg>