<svg xmlns="http://www.w3.org/2000/svg" viewBox="0 0 24 24"><path d="M16.5 24h-11c-3 0-5.5-2.5-5.5-5.5 0-2.7 1.9-5 4.6-5.4C5 10.2 7.5 8 10.5 8c2.3 0 4.5 1.4 5.4 3.5 1.2 0 2.3.6 3 1.6.6.9.7 1.9.4 2.9 1 .9 1.7 2.1 1.7 3.5 0 2.5-2 4.5-4.5 4.5zm-6-15c-2.6 0-4.8 2-5 4.6 0 .2-.2.4-.5.4-2.3.2-4 2.1-4 4.5C1 21 3 23 5.5 23h11c1.9 0 3.5-1.6 3.5-3.5 0-1.2-.6-2.2-1.5-2.9-.2-.1-.3-.4-.2-.6.3-.8.3-1.6-.2-2.4-.5-.8-1.4-1.2-2.4-1.1-.2 0-.4-.1-.5-.3-.8-1.9-2.7-3.2-4.7-3.2z"/><path d="M22 15.1c-.1 0-.3-.1-.4-.2-.2-.2-.1-.5.1-.7.8-.7 1.3-1.7 1.3-2.7 0-1.2-.6-2.2-1.5-2.9-.2-.1-.3-.4-.2-.6.4-.8.3-1.8-.3-2.5-.5-.7-1.4-1.1-2.3-1-.2 0-.4-.1-.5-.3-.8-2-2.6-3.2-4.7-3.2-2.6 0-4.8 2-5 4.6 0 .2-.2.4-.5.4-2.3.2-4 2.1-4 4.5 0 .3-.2.5-.5.5s-.5-.2-.5-.5c0-2.7 1.9-5 4.6-5.4C8 2.2 10.5 0 13.5 0 15.8 0 18 1.4 19 3.5c1.1 0 2.2.5 2.9 1.4.7.9.9 2.1.5 3.1 1 .9 1.6 2.1 1.6 3.5s-.6 2.6-1.7 3.5c-.1 0-.2.1-.3.1z"/></svg>