<svg xmlns="http://www.w3.org/2000/svg" viewBox="0 0 24 24"><title>content-management</title><path d="M12.95,13.27v0a.49.49,0,0,0-.13-.15v0l0,0L12.66,13l-6-2a.5.5,0,0,0-.32,0l-6,2-.09,0,0,0v0a.49.49,0,0,0-.12.15v0a.5.5,0,0,0,0,.21V21a.5.5,0,0,0,.31.46l6,2.5a.5.5,0,0,0,.19,0,.49.49,0,0,0,.2,0h0l6-2.8A.5.5,0,0,0,13,20.7V13.48A.5.5,0,0,0,12.95,13.27ZM6.5,12l4.42,1.47L6.5,15,2.08,13.5ZM1,14.19l5,1.67v6.89L1,20.67Zm11,6.19L7,22.71V15.86l5-1.67Z"/><path d="M23.79,11.69h0a.48.48,0,0,0-.2-.14l-4-1.4a.49.49,0,0,0-.33,0l-3.9,1.4A.48.48,0,0,0,15,12a.48.48,0,0,0,0,.08v5a.5.5,0,0,0,.3.46l4,1.7a.5.5,0,0,0,.2,0,.52.52,0,0,0,.21,0l4-1.9A.5.5,0,0,0,24,16.9V12.1A.5.5,0,0,0,23.79,11.69Zm-4.39-.57,2.69.94L19.5,13,16.84,12ZM16,12.8l3,1.06v4.19l-3-1.29Zm7,3.78L20,18V13.87l3-1.06Z"/><path d="M7.31,9.16l5,2.1a.5.5,0,0,0,.39,0l5-2.1A.5.5,0,0,0,18,8.7V2.38A.49.49,0,0,0,17.8,2V2l-.05,0-.09,0-5-1.6a.49.49,0,0,0-.3,0l-5,1.6L7.26,2,7.21,2V2a.5.5,0,0,0-.14.16h0A.5.5,0,0,0,7,2.38V8.7A.5.5,0,0,0,7.31,9.16ZM8,3.1l4,1.36s0,0,0,0V10L8,8.37Zm9,5.27L13,10V4.5s0,0,0,0L17,3.1Zm-4.5-7,3.4,1.09L12.5,3.57,9.1,2.41Z"/></svg>