<svg xmlns="http://www.w3.org/2000/svg" viewBox="0 0 24 24"><path d="M7.8 9l5 2h.4l5-2c.2-.1.3-.3.3-.5V1.8c0-.1-.1-.1-.1-.2h-.1s-.1 0-.1-.1l-5-1.5h-.3l-5 1.5s-.1 0-.1.1c-.1 0-.1.1-.1.2v6.7c-.2.2-.1.4.1.5zm.7-6.3l4 1.2v5.9l-4-1.6V2.7zm9 5.5l-4 1.6V3.9l4-1.2v5.5zM13 1l3.3 1-3.1.9h-.4L9.7 2 13 1zm10.5 11.5c0-.1 0-.1-.1-.2l-.1-.1h-.1l-4-1.5h-.4l-4 1.5h-.1l-.1.1c0 .1-.1.1-.1.2V17c0 .2.1.4.3.4l4 2h.4l4-2c.2-.1.3-.3.3-.4v-4.5zm-4.5-1l2.6 1-2.6 1-2.6-1 2.6-1zm-3.5 1.7l3 1.1v3.8l-3-1.5v-3.4zm7 3.5l-3 1.5v-3.8l3-1.1v3.4zm-9.1-3.4c0-.1-.1-.1-.1-.2 0 0-.1 0-.1-.1l-6-2h-.3l-6 2H.8c-.1 0-.1.1-.1.1v8.2c0 .2.1.4.3.5l6 2h.4l6-2c.2-.1.3-.3.3-.5v-8c-.2.1-.2 0-.3 0zM7 12l4.4 1.5L7 15l-4.4-1.5L7 12zm-5.5 2.2l5 1.7v6.9l-5-1.7v-6.9zm11 6.9l-5 1.7v-6.9l5-1.7v6.9z"/></svg>
