<svg xmlns="http://www.w3.org/2000/svg" viewBox="0 0 24 24"><path d="M9.5 2c.3 0 .5-.2.5-.5v-1c0-.3-.2-.5-.5-.5S9 .2 9 .5v1c0 .3.2.5.5.5zm-6 2c.1 0 .3 0 .4-.1.1-.2.1-.6 0-.8l-1-1c-.2-.1-.6-.1-.8 0-.1.2-.1.6 0 .8l1 1c.1.1.3.1.4.1zm12 0c.1 0 .3 0 .4-.1l1-1c.2-.2.2-.5 0-.7-.2-.2-.5-.2-.7 0l-1 1c-.2.2-.2.5 0 .7 0 .1.2.1.3.1zm-14 5h-1c-.3 0-.5.2-.5.5s.2.5.5.5h1c.3 0 .5-.2.5-.5S1.8 9 1.5 9zm20.8 7c.3-1 .2-2.1-.4-2.9-.7-1-1.8-1.6-3-1.6-.9-2.2-3-3.5-5.4-3.5-2.9 0-5.5 2.2-5.9 5-2.7.5-4.6 2.8-4.6 5.5 0 3 2.5 5.5 5.5 5.5h11c2.5 0 4.5-2 4.5-4.5 0-1.4-.6-2.7-1.7-3.5zm-2.8 7h-11C6 23 4 21 4 18.5c0-2.3 1.8-4.3 4.1-4.5.2 0 .4-.2.5-.5C8.7 11 10.9 9 13.5 9c2.1 0 3.9 1.3 4.7 3.2.1.2.3.4.5.3 1-.1 1.9.3 2.4 1.1.5.7.5 1.6.2 2.4-.1.2 0 .5.2.6 1 .7 1.5 1.7 1.5 2.9 0 1.9-1.6 3.5-3.5 3.5zM3.4 11.6c0 .2.2.4.4.4H4c.3-.1.4-.4.3-.6-.2-.7-.3-1.3-.3-1.9C4 6.5 6.5 4 9.5 4c1.6 0 3.1.7 4.1 1.9.2.2.5.2.7 0 .2-.2.2-.5 0-.7C13.1 3.8 11.4 3 9.5 3 5.9 3 3 5.9 3 9.5c0 .7.1 1.4.4 2.1z"/></svg>