<svg xmlns="http://www.w3.org/2000/svg" viewBox="0 0 24 24"><path d="M10.4 18.1c-.2-.2-.5-.2-.7 0l-2.5 2.5c-.2.2-.2.4-.2.6.1.2.3.3.5.3h1.3l-1.6 1.6c-.2.2-.2.5 0 .7 0 .1.2.2.3.2.1 0 .3 0 .4-.1l2.5-2.5c.1-.1.2-.4.1-.5-.1-.2-.3-.3-.5-.3H8.7l1.6-1.7c.2-.2.2-.6.1-.8zm5 0c-.2-.2-.5-.2-.7 0l-2.5 2.5c-.2.2-.2.4-.2.6.1.2.3.3.5.3h1.3l-1.6 1.6c-.2.2-.2.5 0 .7.1.1.2.1.4.1.1 0 .3 0 .4-.1l2.5-2.5c.1-.1.2-.4.1-.5-.1-.2-.3-.3-.5-.3h-1.3l1.6-1.7c.1-.1.1-.5 0-.7zm5 0c-.2-.2-.5-.2-.7 0l-2.5 2.5c-.2.2-.2.4-.2.6.1.2.3.3.5.3h1.3l-1.6 1.6c-.2.2-.2.5 0 .7.1.1.2.1.4.1.1 0 .3 0 .4-.1l2.5-2.5c.1-.1.2-.4.1-.5-.1-.2-.3-.3-.5-.3h-1.3l1.6-1.7c.1-.1.1-.5 0-.7zM3.4 3.4c.2-.2.2-.5 0-.7l-.8-.8c-.2-.2-.5-.2-.7 0s-.2.5 0 .7l.8.8c0 .1.2.1.3.1s.3 0 .4-.1zm8.6.1c.1 0 .3 0 .4-.1l.8-.8c.2-.2.2-.5 0-.7s-.5-.2-.7 0l-.8.8c-.2.2-.2.5 0 .7 0 .1.2.1.3.1z"/><path d="M22.3 13c.3-1.1.1-2.2-.6-3.1-.6-.9-1.6-1.4-2.7-1.4C18 6.4 15.8 5 13.5 5c-3 0-5.5 2.2-5.9 5.1-2.7.4-4.6 2.7-4.6 5.4 0 1.9 1 3.7 2.7 4.7.1 0 .2.1.3.1.2 0 .3-.1.4-.2.1-.2.1-.5-.2-.7-1.4-.8-2.2-2.3-2.2-3.9 0-2.3 1.8-4.3 4.1-4.5.2 0 .4-.2.5-.5C8.7 8 10.9 6 13.5 6c2.1 0 3.9 1.3 4.7 3.2.1.2.3.3.5.3.9-.1 1.8.3 2.3 1 .5.7.7 1.7.3 2.5-.1.2 0 .5.2.6 1 .7 1.5 1.7 1.5 2.9 0 1.1-.5 2.1-1.3 2.7-.2.2-.3.5-.1.7.2.2.5.3.7.1 1.1-.9 1.7-2.1 1.7-3.5s-.6-2.6-1.7-3.5zM3.8 10c.1.1.3.2.4.2.1 0 .2 0 .3-.1.2-.1.2-.4.1-.7-.4-.5-.6-1.2-.6-1.9C4 5.6 5.6 4 7.5 4c.8 0 1.6.3 2.2.8.2.2.5.1.7-.1.2-.2.1-.5-.1-.7-.8-.6-1.8-1-2.8-1C5 3 3 5 3 7.5c0 .9.3 1.8.8 2.5zM1.5 6h-1c-.3 0-.5.2-.5.5s.2.5.5.5h1c.3 0 .5-.2.5-.5S1.8 6 1.5 6zm6-4c.3 0 .5-.2.5-.5v-1c0-.3-.2-.5-.5-.5S7 .2 7 .5v1c0 .3.2.5.5.5z"/></svg>