<svg xmlns="http://www.w3.org/2000/svg" viewBox="0 0 24 24"><path d="M23.5 1.8h-3c-.2 0-.4.2-.5.4l-1.2 5.1-3.5-3.4c-.2-.2-.5-.2-.7 0l-.9.9H9c-.3 0-.5.2-.5.5v2.5H6.3L3.5 1.4l-.3-.3h-.4L.3 2.3c-.3.2-.4.5-.3.7l2.2 4.8H1c-.2 0-.3.1-.4.2-.1.1-.1.3-.1.5l3 9.1c.1.2.3.3.5.3h12.3l-.2 1H5.5c-1.1 0-2 .9-2 2s.9 2 2 2 2-.9 2-2c0-.4-.1-.7-.3-1h7.6c-.2.3-.3.6-.3 1 0 1.1.9 2 2 2s2-.9 2-2c0-.9-.6-1.6-1.4-1.9l.3-1.4c0-.1.1-.2.1-.3l3.4-14.6h2.6c.3 0 .5-.2.5-.5s-.2-.4-.5-.4zM15 5l2.9 2.8h-5.7l2.1-2.1.7-.7zm-5.5.8h3.3l-2 2H9.5v-2zM1.2 3l1.6-.8 2.5 5.5h-2L1.2 3zm3.2 13.9L1.7 8.8h16.8l-1.9 8.1H4.4zm2.1 4c0 .6-.4 1-1 1s-1-.4-1-1 .4-1 1-1 1 .4 1 1zm11 0c0 .6-.4 1-1 1s-1-.4-1-1 .4-1 1-1 1 .4 1 1z"/></svg>