<svg xmlns="http://www.w3.org/2000/svg" viewBox="0 0 24 24"><path d="M23 2.5h-1.5V2c0-.3-.2-.5-.5-.5h-4c-.3 0-.5.2-.5.5v.5H15c-1.4 0-2.4.6-3 1.8-.6-1.1-1.6-1.8-3-1.8H1c-.3 0-.5.2-.5.5v16c0 .3.2.5.5.5h8c1.7 0 2.5.8 2.5 2.5 0 .3.2.5.5.5s.5-.2.5-.5c0-1.7.8-2.5 2.5-2.5h8c.3 0 .5-.2.5-.5V3c0-.3-.2-.5-.5-.5zm-5.5 0h3v6.8l-1.1-1.1c-.1-.2-.3-.2-.4-.2s-.3 0-.4.1l-1.1 1.1V2.5zM9 18.5H1.5v-15H9c2.3 0 2.5 2.1 2.5 3v12.8c-.6-.5-1.4-.8-2.5-.8zm13.5 0H15c-1.1 0-1.9.3-2.5.8V6.5c0-.9.2-3 2.5-3h1.5v7c0 .2.1.4.3.5.2.1.4 0 .5-.1L19 9.2l1.6 1.6c.1.1.2.1.4.1h.2c.2-.1.3-.3.3-.5v-7h1v15.1z"/></svg>
