<svg viewBox="0 0 32 32" xmlns="http://www.w3.org/2000/svg"><path d="M28.948 25.145c-2.035 2.756-4.663 4.663-7.886 5.721-.375.069-.649.02-.822-.144a.818.818 0 0 1-.26-.619v-4.35c0-1.334-.362-2.31-1.084-2.928a14.403 14.403 0 0 0 2.135-.371 8.56 8.56 0 0 0 1.959-.804 5.81 5.81 0 0 0 1.687-1.371c.451-.543.82-1.265 1.104-2.165.285-.9.427-1.935.427-3.104 0-1.663-.548-3.079-1.646-4.247.514-1.25.459-2.653-.166-4.206-.39-.124-.952-.048-1.688.227-.736.274-1.375.577-1.916.907L20 8.186a14.93 14.93 0 0 0-4-.536 14.93 14.93 0 0 0-4 .536 18.513 18.513 0 0 0-.885-.557c-.368-.22-.948-.485-1.74-.794-.792-.31-1.389-.402-1.792-.278-.61 1.553-.66 2.955-.146 4.206-1.097 1.168-1.645 2.584-1.645 4.247 0 1.169.142 2.2.427 3.093.284.894.65 1.615 1.093 2.165A5.599 5.599 0 0 0 8.99 21.65a8.56 8.56 0 0 0 1.958.804c.632.165 1.344.288 2.135.37-.555.496-.895 1.204-1.02 2.125-.292.137-.605.24-.938.309-.333.069-.73.103-1.188.103-.458 0-.913-.148-1.364-.443-.451-.296-.837-.725-1.156-1.289a3.34 3.34 0 0 0-1.01-1.072c-.41-.275-.754-.44-1.032-.495L4.958 22c-.291 0-.493.031-.604.093-.11.062-.146.14-.104.237.042.096.104.193.187.289.084.096.174.178.271.247l.146.103c.306.138.608.399.906.784.299.385.518.735.657 1.051l.208.475c.18.522.486.945.917 1.268.43.323.896.529 1.396.618.5.09.982.138 1.447.145.466.006.851-.018 1.157-.073l.479-.082c0 .522.003 1.134.01 1.835l.01 1.113c0 .248-.09.454-.27.619-.18.165-.458.213-.834.144-3.222-1.058-5.85-2.965-7.885-5.721C1.017 22.388 0 19.285 0 15.835c0-2.873.715-5.522 2.146-7.948a15.847 15.847 0 0 1 5.823-5.763C10.42.708 13.097 0 16 0c2.903 0 5.58.708 8.031 2.124a15.847 15.847 0 0 1 5.823 5.763C31.284 10.313 32 12.962 32 15.835c0 3.45-1.017 6.553-3.052 9.31z"/></svg>