<svg xmlns="http://www.w3.org/2000/svg" viewBox="0 0 24 24"><path d="M20.3 8.6c-.2-.2-.5-.1-.7.1l-1.9 4c-.1.2 0 .4.2.6.2.1.4 0 .6-.2l1.5-2.9c.9 4-1.3 8.1-5.2 9.5-.3.1-.3.3-.3.6.1.3.3.3.6.3 4.3-1.5 6.7-5.8 5.9-10.2l2.2 2.1c.2.2.5.1.6-.1.2-.2.1-.4-.1-.6l-3.4-3.2zM17.7 6.1c.2.2.5.1.6 0 .2-.2.1-.4 0-.6C15 2.3 10 2.1 6.5 4.7l.9-2.9c.1-.3 0-.4-.3-.5-.3-.1-.5 0-.6.3L5.2 5.9c0 .3.2.6.4.6h4.5c.3 0 .4-.2.4-.4 0-.3-.2-.4-.4-.4l-3.3-.1c3.3-2.5 7.9-2.4 10.9.5zM8 16.4c-.1-.3-.4-.3-.6-.1-.3.1-.3.4-.1.6L9 19.7c-3.8-1.5-6-5.6-5-9.6.1-.3 0-.4-.3-.5-.3-.1-.6.1-.7.3-1.1 4.5 1.2 8.8 5.2 10.6l-2.9.7c-.3 0-.4.3-.3.6 0 .3.3.4.6.3l4.4-1c.3-.1.4-.4.3-.6L8 16.4z"/></svg>