<svg xmlns="http://www.w3.org/2000/svg" viewBox="0 0 24 24"><path d="M15.8 7.5c-1.2 0-1.7-.7-2.1-1.2-.4-.5-.6-.9-1.5-.9s-1.1.4-1.5.9c-.4.5-.9 1.2-2.1 1.2-1.2 0-1.7-.7-2.1-1.2-.4-.5-.7-.8-1.5-.8s-1.1.3-1.5.7c-.5.6-1.2 1.3-3 1.3-.3 0-.5-.2-.5-.5s.2-.5.5-.5c1.4 0 1.8-.4 2.2-1 .5-.5 1-1 2.3-1 1.4 0 1.9.7 2.3 1.3.3.5.6.8 1.3.8.7 0 1-.3 1.3-.8.4-.6.9-1.3 2.3-1.3s1.9.7 2.3 1.3c.4.5.6.8 1.3.8.7 0 1-.3 1.4-.8.4-.5 1-1.2 2.2-1.2 1.2 0 1.7.6 2 1.1.4.5.8.9 2 .9.4-.1.6.1.6.4s-.2.5-.5.5c-1.7 0-2.3-.7-2.8-1.3-.4-.4-.6-.7-1.3-.7-.8 0-1.1.4-1.4.8-.4.6-1 1.2-2.2 1.2zm0 4c-1.2 0-1.7-.7-2.1-1.2-.4-.5-.6-.9-1.5-.9s-1.1.4-1.5.9c-.4.5-.9 1.2-2.1 1.2-1.2 0-1.7-.7-2.1-1.2-.4-.5-.7-.8-1.5-.8s-1.1.3-1.5.7c-.5.6-1.2 1.3-3 1.3-.3 0-.5-.2-.5-.5s.2-.5.5-.5c1.4 0 1.8-.4 2.2-1 .5-.5 1-1 2.3-1 1.4 0 1.9.7 2.3 1.3.3.5.6.8 1.3.8.7 0 1-.3 1.3-.8.4-.6.9-1.3 2.3-1.3s1.9.7 2.3 1.3c.4.5.6.8 1.3.8.7 0 1-.3 1.4-.8.4-.5 1-1.2 2.2-1.2 1.2 0 1.7.6 2 1.1.4.5.8.9 2 .9.3 0 .5.2.5.5s-.2.5-.5.5c-1.7 0-2.3-.7-2.8-1.3-.4-.4-.6-.7-1.3-.7-.8 0-1.1.4-1.4.8-.3.5-.9 1.1-2.1 1.1zm0 4c-1.2 0-1.7-.7-2.1-1.2-.4-.5-.6-.9-1.5-.9s-1.1.4-1.5.9c-.4.5-.9 1.2-2.1 1.2-1.2 0-1.7-.7-2.1-1.2-.4-.5-.6-.9-1.5-.9-.8 0-1.1.3-1.5.7-.5.6-1.2 1.3-3 1.3-.3.1-.5-.1-.5-.4s.2-.5.5-.5c1.4 0 1.8-.4 2.2-1 .5-.5 1-1.1 2.2-1.1 1.4 0 1.9.7 2.3 1.3.3.5.6.8 1.3.8.7 0 1-.3 1.3-.8.4-.6.9-1.3 2.3-1.3s1.9.7 2.3 1.3c.4.5.6.8 1.3.8.7 0 1-.3 1.4-.8.4-.5 1-1.2 2.2-1.2 1.2 0 1.7.6 2 1.1.4.5.8.9 2 .9.3 0 .5.2.5.5s-.2.5-.5.5c-1.7 0-2.3-.7-2.8-1.3-.4-.4-.6-.7-1.3-.7-.8 0-1.1.4-1.4.8-.2.6-.8 1.2-2 1.2zm0 4c-1.2 0-1.7-.7-2.1-1.2-.4-.5-.6-.9-1.5-.9s-1.1.4-1.5.9c-.4.5-.9 1.2-2.1 1.2-1.2 0-1.7-.7-2.1-1.2-.4-.5-.6-.9-1.5-.9-.8 0-1.1.3-1.5.7-.5.6-1.2 1.3-3 1.3-.3.1-.5-.1-.5-.4s.2-.5.5-.5c1.4 0 1.8-.4 2.2-1 .5-.5 1-1.1 2.2-1.1 1.4 0 1.9.7 2.3 1.3.3.5.6.8 1.3.8.7 0 1-.3 1.3-.8.4-.6.9-1.3 2.3-1.3s1.9.7 2.3 1.3c.4.5.6.8 1.3.8.7 0 1-.3 1.4-.8.4-.5 1-1.2 2.2-1.2 1.2 0 1.7.6 2 1.1.4.5.8.9 2 .9.3 0 .5.2.5.5s-.2.5-.5.5c-1.7 0-2.3-.7-2.8-1.3-.4-.4-.6-.7-1.3-.7-.8 0-1.1.4-1.4.8-.2.6-.8 1.2-2 1.2z"/></svg>