<svg xmlns="http://www.w3.org/2000/svg" viewBox="0 0 24 24"><path d="M21.6 0H2.5C1.1 0 0 1.1 0 2.5v13C0 16.9 1.1 18 2.5 18h5c.3 0 .5-.2.5-.5s-.2-.5-.5-.5h-5c-.8 0-1.5-.7-1.5-1.5v-13C1 1.7 1.7 1 2.5 1h19.1c.8 0 1.5.7 1.5 1.5v9c0 .3.2.5.5.5s.5-.2.5-.5v-9C24.1 1.1 23 0 21.6 0z"/><path d="M20.5 12c.3 0 .5-.2.5-.5v-9c0-.3-.2-.5-.5-.5h-16c-.3 0-.5.2-.5.5v13c0 .3.2.5.5.5h3c.3 0 .5-.2.5-.5s-.2-.5-.5-.5H5V3h15v8.5c0 .3.2.5.5.5zm2-3c0-.3-.2-.5-.5-.5s-.5.2-.5.5.2.5.5.5.5-.2.5-.5z"/><path d="M23.1 14.8L18 13V8c0-.9-.5-1.5-1.3-1.5h-1.5c-.8 0-1.3.6-1.3 1.5v7.9l-.8-1c-.2-.2-.6-.5-1.2-.5h-1c-.5 0-1 .3-1.2.8-.3.5-.3 1.1 0 1.5l3.8 6.8c.3.5.8.7 1.2.7h6.4c.4 0 1-.2 1.3-.9v-.1l1.5-6.7v-.1c.1-.7-.2-1.3-.8-1.6zm-1.6 8c-.1.2-.3.3-.4.3h-6.4c-.1 0-.3-.1-.4-.2L10.5 16c-.1-.1-.1-.3 0-.4 0 0 0-.1.1-.1 0-.1.2-.2.3-.2h1c.1 0 .3.1.4.2l1.7 2.1c.1.2.4.2.6.2.2-.1.3-.3.3-.5V8c0-.2.1-.5.3-.5h1.5c.1 0 .3 0 .3.5v5.3c0 .2.1.4.3.5l5.4 2c.2.1.3.3.3.5l-1.5 6.5zM1.5 9c0 .6.4 1 1 1s1-.4 1-1-.5-1-1-1c-.6 0-1 .4-1 1z"/></svg>
