<svg xmlns="http://www.w3.org/2000/svg" viewBox="0 0 48 48"><title>money-face</title><path d="M14.95 23a1.78 1.78 0 0 1-1.78-1.78 1 1 0 0 0-2 0 3.77 3.77 0 0 0 2.78 3.63v1a1 1 0 0 0 2 0v-1a3.77 3.77 0 0 0-1-7.41 1.78 1.78 0 1 1 1.78-1.78 1 1 0 0 0 2 0A3.77 3.77 0 0 0 15.95 12v-1a1 1 0 0 0-2 0v1a3.77 3.77 0 0 0 1 7.41 1.78 1.78 0 0 1 0 3.57zM32.95 23a1.78 1.78 0 0 1-1.78-1.78 1 1 0 0 0-2 0 3.77 3.77 0 0 0 2.78 3.63v1a1 1 0 0 0 2 0v-1a3.77 3.77 0 0 0-1-7.41 1.78 1.78 0 1 1 1.78-1.78 1 1 0 0 0 2 0A3.77 3.77 0 0 0 33.95 12v-1a1 1 0 0 0-2 0v1a3.77 3.77 0 0 0 1 7.41 1.78 1.78 0 0 1 0 3.57z"/><path d="M24 0a24 24 0 1 0 24 24A24 24 0 0 0 24 0zm0 46a22 22 0 1 1 22-22 22 22 0 0 1-22 22z"/><path d="M37.49 29.13a1 1 0 0 0-1.36.38 13.88 13.88 0 0 1-12.29 7 13.58 13.58 0 0 1-12-6.92 1 1 0 1 0-1.76 1 15.58 15.58 0 0 0 13.7 8H24a15.67 15.67 0 0 0 13.9-8 1 1 0 0 0-.41-1.46z"/></svg>