<svg xmlns="http://www.w3.org/2000/svg" viewBox="0 0 24 24"><path d="M10.8 5.5l2.7 1 1 2.7c.1.2.3.3.5.3s.4-.1.5-.3l1-2.7 2.7-1c.2-.1.3-.3.3-.5s-.1-.4-.3-.5l-2.7-1-1-2.7c-.1-.4-.8-.4-.9 0l-1 2.7-2.7 1c-.2.1-.3.3-.3.5-.1.2 0 .4.2.5zm3.3-1.1l.3-.3.6-1.7.6 1.7c0 .1.2.2.3.3l1.7.6-1.7.6c-.1 0-.2.2-.3.3L15 7.6l-.6-1.7-.3-.3-1.7-.6 1.7-.6zm8.1 6.1L21 10l-.5-1.2c-.1-.4-.8-.4-.9 0l-.5 1.2-1.2.5c-.2.1-.3.3-.3.5s.1.4.3.5l1.2.5.5 1.2c.1.2.3.3.5.3s.4-.1.5-.3l.5-1.2 1.2-.5c.2-.1.3-.3.3-.5-.1-.2-.2-.4-.4-.5zm-1.8.6c-.1 0-.2.2-.3.3l-.1.2-.1-.2-.3-.3-.2-.1.2-.1.3-.3.1-.2.1.2c0 .1.2.2.3.3l.2.1-.2.1zM17 15c-2.6 0-4.9-1.2-6.4-3.2-1.6-2.1-2-4.7-1.2-7.1 0-.2 0-.3-.1-.4-.1-.2-.3-.3-.4-.3C4 4.1 0 8.1 0 13c0 5 4 9 9 9 4 0 7.4-2.6 8.6-6.4 0-.2 0-.3-.1-.4-.1-.1-.3-.2-.5-.2zm-8 6c-4.4 0-8-3.6-8-8 0-4.1 3.2-7.6 7.2-8-.6 2.5 0 5.2 1.6 7.3 1.6 2.2 4 3.5 6.7 3.6C15.2 19 12.3 21 9 21z"/></svg>