<svg xmlns="http://www.w3.org/2000/svg" viewBox="0 0 24 24"><path d="M7.4 18.1c-.2-.2-.5-.2-.7 0l-2.5 2.5c-.2.2-.2.4-.2.6.1.2.3.3.5.3h1.3l-1.6 1.6c-.2.2-.2.5 0 .7 0 .1.2.2.3.2.1 0 .3 0 .4-.1l2.5-2.5c.1-.1.2-.4.1-.5-.1-.2-.3-.3-.5-.3H5.7l1.6-1.7c.2-.2.2-.6.1-.8zm5 0c-.2-.2-.5-.2-.7 0l-2.5 2.5c-.2.2-.2.4-.2.6.1.2.3.3.5.3h1.3l-1.6 1.6c-.2.2-.2.5 0 .7 0 .1.2.2.3.2.1 0 .3 0 .4-.1l2.5-2.5c.1-.1.2-.4.1-.5-.1-.2-.3-.3-.5-.3h-1.3l1.6-1.7c.2-.2.2-.6.1-.8zm5 0c-.2-.2-.5-.2-.7 0l-2.5 2.5c-.2.2-.2.4-.2.6.1.2.3.3.5.3h1.3l-1.6 1.6c-.2.2-.2.5 0 .7.1.1.2.1.4.1.1 0 .3 0 .4-.1l2.5-2.5c.1-.1.2-.4.1-.5-.1-.2-.3-.3-.5-.3h-1.3l1.6-1.7c.1-.1.1-.5 0-.7z"/><path d="M19.3 13c.3-1.1.1-2.2-.6-3.1-.6-.9-1.6-1.4-2.7-1.4C15 6.4 12.8 5 10.5 5c-3 0-5.5 2.2-5.9 5.1-2.7.4-4.6 2.7-4.6 5.4 0 1.9 1 3.7 2.7 4.7.1 0 .2.1.3.1.2 0 .3-.1.4-.2.1-.2.1-.5-.2-.7-1.4-.8-2.2-2.3-2.2-3.9 0-2.3 1.8-4.3 4.1-4.5.2 0 .4-.2.5-.5C5.7 8 7.9 6 10.5 6c2.1 0 3.9 1.3 4.7 3.2.1.2.3.4.5.3.9-.1 1.8.3 2.3 1 .5.7.7 1.7.3 2.5-.1.2 0 .5.2.6 1 .7 1.5 1.7 1.5 2.9 0 1.1-.5 2.1-1.3 2.7-.2.2-.3.5-.1.7.2.2.5.3.7.1 1.1-.9 1.7-2.1 1.7-3.5s-.6-2.6-1.7-3.5zm4.4-1.9c-1.9-.9-3-2.7-3-4.8 0-2.1 1.2-3.9 3-4.8.2-.1.3-.2.3-.4s-.1-.4-.3-.5C22-.2 20-.2 18.2.6c-1.7.8-3 2.4-3.4 4.3-.1.3.1.5.4.6.3.1.5-.1.6-.4.4-1.6 1.4-2.9 2.9-3.6 1.1-.6 2.4-.7 3.6-.4-1.7 1.2-2.7 3.1-2.7 5.1 0 2.1 1 4 2.7 5.1h-.2c-.3.1-.4.3-.4.6.1.2.3.4.5.4h.1c.5-.1.9-.3 1.3-.5.2-.1.3-.3.3-.5s0-.1-.2-.2z"/></svg>