<svg xmlns="http://www.w3.org/2000/svg" viewBox="0 0 24 24"><path d="M19.3 16c.3-1 .2-2.1-.4-2.9-.7-1-1.8-1.6-3-1.6C15 9.4 12.8 8 10.5 8c-3 0-5.5 2.2-5.9 5.1-2.7.4-4.6 2.7-4.6 5.4 0 3 2.5 5.5 5.5 5.5h11c2.5 0 4.5-2 4.5-4.5 0-1.4-.6-2.6-1.7-3.5zm-2.8 7h-11C3 23 1 21 1 18.5c0-2.3 1.8-4.3 4.1-4.5.2 0 .4-.2.5-.5C5.7 11 7.9 9 10.5 9c2 0 3.9 1.3 4.7 3.2.1.2.3.4.5.3 1-.1 1.9.3 2.4 1.1.5.7.5 1.6.2 2.4-.1.2 0 .5.2.6 1 .7 1.5 1.7 1.5 2.9 0 1.9-1.6 3.5-3.5 3.5zm7.2-9.6C21.4 12.3 20 10 20 7.5c0-2.5 1.4-4.8 3.7-5.9.2 0 .3-.2.3-.4s-.1-.4-.3-.5c-2.1-1-4.4-1-6.5 0-2.1 1-3.5 2.9-4 5.1-.1.3.1.5.4.6.3.1.5-.1.6-.4.4-1.9 1.7-3.6 3.5-4.4 1.5-.7 3.1-.8 4.7-.4C20.3 2.6 19 4.9 19 7.5c0 2.5 1.3 4.9 3.3 6.2-.1 0-.3.1-.4.1-.3.1-.4.3-.4.6.1.2.3.4.5.4h.1c.5-.1 1.1-.3 1.6-.6.2-.1.3-.3.3-.5 0-.1-.1-.2-.3-.3z"/></svg>