<svg xmlns="http://www.w3.org/2000/svg" viewBox="0 0 24 24"><path d="M8.2 17.9c.3 0 .5-.2.5-.5s-.2-.5-.5-.5c-4.1-.4-7.1-1.8-7.1-3.4V11c1.6 1.5 5 2.5 9 2.5.3 0 .5-.2.5-.5s-.2-.5-.5-.5c-5.4 0-9-1.8-9-3.5V6.9c1.6 1.5 5 2.5 9 2.5s7.4-1 9-2.5v2.5c0 .3.2.5.5.5s.5-.2.5-.5V4.9c0-2.5-4.4-4.5-10-4.5s-10 2-10 4.5V18c0 2.2 3.2 4 8.1 4.4.3 0 .5-.2.5-.5s-.2-.5-.5-.5c-4-.4-7.1-1.8-7.1-3.4v-2.5c1.3 1.2 3.8 2.1 7.1 2.4zm1.9-16.5c5.3 0 9 1.8 9 3.5s-3.7 3.5-9 3.5-9-1.8-9-3.5 3.7-3.5 9-3.5z"/><path d="M20.4 10.9c-2 0-3.5 1.5-3.5 3.5v.5h-6.5c-.3 0-.5.2-.5.5v8c0 .3.2.5.5.5h10c.3 0 .5-.2.5-.5v-8c0-.3-.2-.5-.5-.5h-2.5v-.5c0-1.4 1.1-2.5 2.5-2.5s2.5 1.1 2.5 2.5v1c0 .3.2.5.5.5s.5-.2.5-.5v-1c0-2-1.5-3.5-3.5-3.5zm-.5 12h-9v-7h9v7z"/><path d="M15.4 17.4c-.6 0-1 .4-1 1 0 .4.2.7.5.8v1.7c0 .3.2.5.5.5s.5-.2.5-.5v-1.7c.3-.2.5-.5.5-.8 0-.6-.4-1-1-1zm0 .5v.5-.5z"/></svg>
