<svg xmlns="http://www.w3.org/2000/svg" viewBox="0 0 24 24"><path d="M22 14.4c1.1 0 2-.9 2-2s-.9-2-2-2-2 .9-2 2c0 .2 0 .4.1.6l-3.5 2c-.4-.4-.9-.6-1.5-.6-.9 0-1.7.6-1.9 1.5H9.6c-.2-.9-1-1.5-1.9-1.5-1.1 0-2 .9-2 2 0 .2 0 .4.1.6L1 20.1v-8l6.1-3.7c.4.4.9.6 1.4.6.7 0 1.3-.4 1.7-.9l3.9 1.2v.1c0 1.1.9 2 2 2s2-.9 2-2c0-.4-.1-.8-.4-1.2l3.4-4.3c.3.1.6.2.9.2 1.1 0 2-.9 2-2s-.9-2-2-2-2 .9-2 2c0 .4.1.8.3 1.1l-3.4 4.4c-.3-.1-.5-.2-.8-.2-.7 0-1.4.4-1.7 1l-3.9-1.2V7c0-1.1-.9-2-2-2s-2 .9-2 2c0 .2 0 .4.1.6L1 11V.9C1 .6.8.4.5.4S0 .6 0 .9v22.6c0 .3.2.5.5.5H23c.3 0 .5-.2.5-.5s-.2-.5-.5-.5H1v-1.7l5.3-3.5c.4.3.8.6 1.4.6.9 0 1.7-.6 1.9-1.5h3.5c.2.9 1 1.5 1.9 1.5 1.1 0 2-.9 2-2 0-.2 0-.3-.1-.5l3.6-2.1c.5.4 1 .6 1.5.6zm0-13.3c.6 0 1 .4 1 1s-.4 1-1 1c-.3 0-.5-.1-.7-.3-.2-.2-.3-.4-.3-.7 0-.6.4-1 1-1zm-5.9 7.3c.6 0 1 .4 1 1s-.4 1-1 1-1-.4-1-1v-.5c.3-.3.6-.5 1-.5zM8.5 6c.6 0 1 .4 1 1 0 .1 0 .2-.1.3-.1.4-.5.7-.9.7-.6 0-1-.4-1-1s.4-1 1-1zm-.8 11.4c-.6 0-1-.4-1-1s.4-1 1-1 1 .4 1 1-.4 1-1 1zm7.4 0c-.6 0-1-.4-1-1s.4-1 1-1c.4 0 .7.2.9.5.1.1.1.3.1.4 0 .7-.4 1.1-1 1.1zm6.9-6c.6 0 1 .4 1 1s-.4 1-1 1-1-.4-1-1 .4-1 1-1z"/></svg>
