<svg xmlns="http://www.w3.org/2000/svg" viewBox="0 0 48 48"><title>phone</title><path d="M34.34 32.31a5 5 0 0 0-7.07 0l-.77.77A93.68 93.68 0 0 1 14.92 21.5l.77-.77a5 5 0 0 0 0-7.07l-4.25-4.24a5 5 0 0 0-7.07 0L2 11.75a7 7 0 0 0-.88 8.81 93.84 93.84 0 0 0 26.33 26.28 7 7 0 0 0 8.8-.84l2.33-2.33a5 5 0 0 0 0-7.07zm2.83 9.9l-2.33 2.33a5 5 0 0 1-6.29.63A91.9 91.9 0 0 1 2.82 19.45a5 5 0 0 1 .63-6.29l2.33-2.33a3 3 0 0 1 4.24 0l4.24 4.24a3 3 0 0 1 0 4.24l-1.41 1.41a1 1 0 0 0-.07 1.34 95.55 95.55 0 0 0 13.15 13.15 1 1 0 0 0 1.34-.07l1.41-1.41a3.07 3.07 0 0 1 4.24 0L37.17 38a3 3 0 0 1 0 4.22zM24 0a24 24 0 0 1 24 24 1 1 0 1 1-2 0A22 22 0 0 0 24 2a1 1 0 1 1 0-2zm0 10a1 1 0 1 1 0-2 16 16 0 0 1 16 16 1 1 0 1 1-2 0 14 14 0 0 0-14-14zm0 8a1 1 0 1 1 0-2 8 8 0 0 1 8 8 1 1 0 1 1-2 0 6 6 0 0 0-6-6z"/></svg>