<svg xmlns="http://www.w3.org/2000/svg" viewBox="0 0 24 24"><path d="M21.3 8c.3-1 .2-2.1-.4-2.9-.7-1-1.8-1.6-3-1.6C17 1.4 14.8 0 12.5 0 9.5 0 7 2.2 6.6 5.1 3.9 5.5 2 7.8 2 10.5c0 3 2.5 5.5 5.5 5.5h11c2.5 0 4.5-2 4.5-4.5 0-1.4-.6-2.6-1.7-3.5zm-2.8 7h-11C5 15 3 13 3 10.5 3 8.2 4.8 6.2 7.1 6c.2 0 .4-.2.5-.5C7.7 3 9.9 1 12.5 1c2.1 0 3.9 1.3 4.7 3.2.1.2.3.3.5.3 1-.1 1.9.3 2.4 1.1.5.7.5 1.6.2 2.4-.1.2 0 .5.2.6 1 .7 1.5 1.7 1.5 2.9 0 1.9-1.6 3.5-3.5 3.5z"/><circle cx="12.5" cy="18.5" r=".5"/><circle cx="18.5" cy="20" r=".5"/><circle cx="18.5" cy="23" r=".5"/><circle cx="12.5" cy="21.5" r=".5"/><circle cx="16.5" cy="21.5" r=".5"/><circle cx="14.5" cy="23" r=".5"/><circle cx="16.5" cy="18.5" r=".5"/><circle cx="14.5" cy="20" r=".5"/><circle cx="10.5" cy="20" r=".5"/><circle cx="10.5" cy="23" r=".5"/><circle cx="8.5" cy="21.5" r=".5"/><circle cx="6.5" cy="23" r=".5"/><circle cx="8.5" cy="18.5" r=".5"/><circle cx="6.5" cy="20" r=".5"/></svg>