<svg xmlns="http://www.w3.org/2000/svg" viewBox="0 0 24 24"><path d="M11.5 4C7.4 4 4 7.4 4 11.5S7.4 19 11.5 19s7.5-3.4 7.5-7.5S15.6 4 11.5 4zm0 14C7.9 18 5 15.1 5 11.5S7.9 5 11.5 5 18 7.9 18 11.5 15.1 18 11.5 18zm0 2c-.3 0-.5.2-.5.5v2c0 .3.2.5.5.5s.5-.2.5-.5v-2c0-.3-.2-.5-.5-.5zm11-9h-2c-.3 0-.5.2-.5.5s.2.5.5.5h2c.3 0 .5-.2.5-.5s-.2-.5-.5-.5zm-11-8c.3 0 .5-.2.5-.5v-2c0-.3-.2-.5-.5-.5s-.5.2-.5.5v2c0 .3.2.5.5.5zm-9 8h-2c-.3 0-.5.2-.5.5s.2.5.5.5h2c.3 0 .5-.2.5-.5s-.2-.5-.5-.5zm2.3 6.5l-1.4 1.4c-.2.2-.2.5 0 .7.1.1.2.1.4.1s.3 0 .4-.1l1.4-1.4c.2-.2.2-.5 0-.7s-.6-.2-.8 0zm13.4 0c-.2-.2-.5-.2-.7 0s-.2.5 0 .7l1.4 1.4c.1.1.2.1.4.1s.3 0 .4-.1c.2-.2.2-.5 0-.7l-1.5-1.4zm.7-14.1l-1.4 1.4c-.2.2-.2.5 0 .7.1.1.2.1.4.1s.3 0 .4-.1l1.4-1.4c.2-.2.2-.5 0-.7s-.6-.2-.8 0zM4.8 5.5c.1.1.2.1.3.1s.3 0 .4-.1c.2-.2.2-.5 0-.7L4.1 3.4c-.2-.2-.5-.2-.7 0s-.2.5 0 .7l1.4 1.4z"/></svg>