<svg xmlns="http://www.w3.org/2000/svg" viewBox="0 0 48 48"><title>tools</title><path d="M47.71 3.46l-3-3a1 1 0 0 0-1.27-.11l-7.07 4.91a1 1 0 0 0-.14 1.53l1.87 1.86-19.91 19.92L14.66 25a1 1 0 0 0-1.41 1.41l1.41 1.41L2.24 40.28a4 4 0 1 0 5.65 5.65L20.3 33.51l1.41 1.41a1 1 0 0 0 1.41-1.41L19.6 30l19.91-19.93 1.66 1.66a1 1 0 0 0 .71.29H42a1 1 0 0 0 .73-.4l5.07-6.86a1 1 0 0 0-.09-1.3zM6.47 44.52a2 2 0 0 1-2.82 0 2 2 0 0 1 0-2.82l12.42-12.43 2.82 2.82zm35.29-35l-3.28-3.3 5.41-3.75 1.79 1.79z"/><path d="M11.85 17.72l7 7 1.41-1.41-7.48-7.46a1 1 0 0 0-1.1-.21A6.94 6.94 0 0 1 2.11 8l2.95 2.83a1 1 0 0 0 .69.28h4.3a1 1 0 0 0 1-1V6a1 1 0 0 0-.28-.69l-2.92-3a6.75 6.75 0 0 1 6.07 1.93 7 7 0 0 1 1.49 7.67 1 1 0 0 0 .22 1.1l7.48 7.48 1.41-1.41-7-7a8.94 8.94 0 0 0-2.16-9.22A8.72 8.72 0 0 0 5.63.9a1 1 0 0 0-.63.71 1 1 0 0 0 .26.89l3.8 3.93v2.73H6.15L2.32 5.48a1 1 0 0 0-.89-.26 1 1 0 0 0-.72.59 8.93 8.93 0 0 0 11.14 11.91zM35.78 30.32l-7-7-1.41 1.41 7.48 7.49a1 1 0 0 0 1.1.21 7 7 0 0 1 9.59 7.74l-3.14-2.9a1 1 0 0 0-.7-.27h-4a1 1 0 0 0-1 1v4a1 1 0 0 0 .28.69l2.93 3a7 7 0 0 1-7.7-9.6A1 1 0 0 0 32 35l-7.48-7.49-1.41 1.41 7 7a9 9 0 0 0 12 11.14 1 1 0 0 0 .33-1.61l-3.78-3.92V39h2.61l4 3.71a1 1 0 0 0 1.6-.34 9 9 0 0 0-11.14-12z"/></svg>