<svg xmlns="http://www.w3.org/2000/svg" viewBox="0 0 24 24"><g fill="#6EA644"><path d="M15.43 15.104a6.765 6.765 0 0 0 1.395-1.715c.485.768 1.346 1.365 2.4 1.582 1.381.281 3.319-.143 4.235-2.28a.5.5 0 0 0-.459-.698c-1.35 0-1.858-2.194-2.396-4.519-.606-2.621-1.293-5.592-3.466-6.614-1.338-.631-3.02-.441-5.139.577C9.882.419 8.199.229 6.862.86c-2.173 1.022-2.86 3.993-3.466 6.614C2.858 9.799 2.351 11.993 1 11.993a.497.497 0 0 0-.417.225.503.503 0 0 0-.042.473c.753 1.758 2.2 2.358 3.46 2.358 1.274 0 2.531-.633 3.18-1.652.368.645.84 1.219 1.39 1.707C4.317 16.93 0 18.349 0 21.993V23.5a.5.5 0 0 0 .5.5h23a.5.5 0 0 0 .5-.5v-1.507c0-3.642-4.312-5.063-8.57-6.889zM4.582 13.991c-.46.097-1.904.258-2.817-1.124 1.537-.548 2.058-2.8 2.605-5.167.555-2.399 1.185-5.119 2.918-5.936 1.085-.512 2.555-.291 4.488.676.141.07.307.07.447 0 1.932-.966 3.401-1.188 4.488-.676 1.734.816 2.363 3.536 2.918 5.936.547 2.367 1.068 4.619 2.605 5.167-.911 1.38-2.352 1.221-2.811 1.124-1.006-.207-2.023-.958-2.025-1.995.005-.021.016-.041.021-.062.718-.211 1.204-.963 1.204-1.94 0-.985-.494-1.741-1.221-1.945l-.419-1.676a.495.495 0 0 0-.483-.38c-2.984 0-3.486-.841-3.819-1.396-.099-.165-.192-.321-.328-.457a.514.514 0 0 0-.707 0 2.294 2.294 0 0 0-.328.457c-.331.555-.834 1.396-3.818 1.396a.5.5 0 0 0-.485.379l-.418 1.675c-.344.095-.64.313-.856.638-.236.353-.366.818-.366 1.308 0 .978.486 1.729 1.204 1.94.007.029.021.055.028.084-.016 1.026-1.025 1.769-2.025 1.974zm2.912-2.58A.5.5 0 0 0 7 10.993c-.494 0-.625-.654-.625-1s.131-1 .625-1a.5.5 0 0 0 .485-.379l.407-1.626C10.535 6.921 11.46 6.17 12 5.387c.54.783 1.465 1.534 4.108 1.602l.407 1.626a.5.5 0 0 0 .485.378c.494 0 .625.654.625 1s-.131 1-.625 1a.5.5 0 0 0-.493.418c-.481 2.887-3.56 4.21-4.507 4.553-.947-.343-4.025-1.666-4.506-4.553zm1.984 4.393a9.91 9.91 0 0 0 2.364 1.164.502.502 0 0 0 .316 0 9.891 9.891 0 0 0 2.364-1.164c1.396.612 2.273.957 3.437 1.465-.205 1.047-1.532 1.773-2.945 2.534-1.176.633-2.365 1.287-3.013 2.204-.648-.917-1.837-1.571-3.013-2.204-1.413-.761-2.74-1.488-2.945-2.534 1.14-.499 2.014-.842 3.435-1.465zM1 21.993c0-1.969 1.733-3.187 4.104-4.302.396 1.363 1.921 2.191 3.409 2.992 1.314.708 2.559 1.384 2.893 2.316H1v-1.006zM23 23H12.595c.334-.933 1.579-1.608 2.893-2.316 1.488-.801 3.014-1.629 3.409-2.992C21.268 18.807 23 20.024 23 21.993V23z"/><path d="M9.501 9.004c.095-.013.905-.013 1 0a.5.5 0 0 0 1-.009c0-.298-.089-.538-.266-.713-.296-.294-.707-.285-1.105-.288h-.259c-.394.004-.809-.006-1.105.288-.176.175-.266.415-.266.713 0 .276.226.473.502.473.255 0 .468-.214.499-.464zM13.003 9.468c.254 0 .467-.214.498-.464.095-.013.906-.013 1 0a.5.5 0 0 0 1-.009c0-.298-.089-.538-.266-.713-.296-.294-.708-.285-1.105-.288h-.259c-.391.004-.808-.006-1.105.288-.176.175-.266.415-.266.713 0 .276.227.473.503.473z"/></g></svg>