<svg xmlns="http://www.w3.org/2000/svg" viewBox="0 0 24 24"><path fill="#6EA644" d="M14.49 13.218l7.938-7.94c.099.218.157.463.157.722 0 .449-.16.867-.439 1.146l-5 5a.5.5 0 0 0 .707.707l5-5c.465-.465.732-1.141.732-1.853 0-.532-.149-1.043-.418-1.461l.686-.686a.5.5 0 0 0 0-.707l-3-3a.5.5 0 0 0-.707 0l-9.793 9.791-1.03-.817a4.031 4.031 0 0 0 .226-1.995A4.003 4.003 0 0 0 7.978 4.47c-.489-.364-1.109-.562-1.765-.77C4.697 3.218 3.388 2.802 3.5.524a.5.5 0 0 0-.848-.383C.66 2.067-.022 4.668.782 7.278c.711 2.308 2.514 4.145 4.385 4.468.717.124 1.381.033 2.081-.311l.835.773-5.937 5.937a.5.5 0 0 0 0 .708l.397.397-1.396 1.396a.5.5 0 0 0 0 .707l.397.397-1.397 1.397a.5.5 0 0 0 .707.707l1.397-1.396.396.396a.5.5 0 0 0 .707 0l1.398-1.397.396.396a.5.5 0 0 0 .707 0l6.078-6.077 8.729 8.091c.09.085.212.133.338.133 0 0 1.915-.042 2.364-.489.446-.442.636-1.193.636-2.511a.5.5 0 0 0-.19-.392l-9.32-7.39zM20.5 1.207L22.793 3.5 18 8.293l-2.292-2.294L20.5 1.207zM5.337 10.76c-1.515-.262-2.996-1.815-3.6-3.777-.573-1.862-.263-3.72.845-5.245.399 1.984 2.061 2.512 3.328 2.915.574.183 1.116.354 1.471.619a3.01 3.01 0 0 1 1.178 1.997 3.032 3.032 0 0 1-.562 2.25c-.61.821-1.582 1.425-2.66 1.241zm2.772.11l.008-.009c.302-.268.58-.591.744-.831l.78.619-.851.852-.681-.631zM3 21.792l-.793-.794 1.043-1.042.794.793L3 21.792zm2.501-1l-2.294-2.293L14.999 6.706l2.295 2.295L5.501 20.792zm17.159 2.009c-.258.255-1.096.201-1.463.2l-8.558-7.933 1.139-1.139 9.219 7.311c-.017.841-.127 1.354-.337 1.561z"/></svg>