<svg xmlns="http://www.w3.org/2000/svg" viewBox="0 0 24 24"><path d="M21.9 10.9c.3-1.1.1-2.3-.6-3.2-.8-1.1-2-1.7-3.3-1.7-1-2.4-3.4-4-6-4-3.4 0-6.2 2.7-6.5 6-3.1.3-5.5 2.9-5.5 6 0 3.3 2.7 6 6 6h13c2.8 0 5-2.2 5-5 0-1.6-.8-3.1-2.1-4.1zM19 19H6c-2.8 0-5-2.2-5-5s2.2-5 5-5c.3 0 .5-.2.5-.5C6.5 5.5 9 3 12 3c2.3 0 4.4 1.5 5.2 3.7.1.2.3.3.5.3 1.1-.1 2.1.4 2.7 1.2.6.9.8 1.8.4 2.8-.1.2 0 .5.2.6 1.2.7 2 2 2 3.4 0 2.2-1.8 4-4 4z"/><circle cx="12" cy="15.6" r=".7"/><path d="M12 7.2c-1.4 0-2.6 1.2-2.6 2.6 0 .3.2.5.5.5s.5-.2.5-.5c0-.9.7-1.6 1.6-1.6.9 0 1.6.7 1.6 1.6 0 .9-.7 1.6-1.6 1.6-.3 0-.5.2-.5.5V14c0 .3.2.5.5.5s.5-.2.5-.5v-1.6c1.2-.2 2.1-1.3 2.1-2.5 0-1.6-1.2-2.7-2.6-2.7z"/></svg>