<?xml version="1.0" encoding="UTF-8"?>
<svg width="1142px" height="645px" viewBox="0 0 1142 645" version="1.1" xmlns="http://www.w3.org/2000/svg" xmlns:xlink="http://www.w3.org/1999/xlink">
    <!-- Generator: Sketch 45.2 (43514) - http://www.bohemiancoding.com/sketch -->
    <title>Graphic_Swissmap</title>
    <desc>Created with Sketch.</desc>
    <defs></defs>
    <g id="Page-1" stroke="none" stroke-width="1" fill="none" fill-rule="evenodd">
        <g id="Graphic_Swissmap" fill="#F7F7F5">
            <path d="M0,0 L1142,0 L1142,645 L0,645 L0,0 Z M605.070037,100.548277 L612.092237,103.745842 L627.9253,75.7014293 L620.903101,72.5038638 L605.070037,100.548277 Z M605.058551,131.736353 L612.080751,134.933918 L627.913814,106.889505 L620.891615,103.69194 L605.058551,131.736353 Z M627.919094,100.621312 L634.941294,103.818877 L650.774357,75.7744642 L643.752158,72.5768987 L627.919094,100.621312 Z M696.345569,131.834758 L703.367769,135.032324 L719.200832,106.987911 L712.178633,103.790345 L696.345569,131.834758 Z M627.907608,131.809554 L634.929808,135.007119 L650.762871,106.962706 L643.740672,103.765141 L627.907608,131.809554 Z M604.96268,162.962193 L611.98488,166.159759 L627.817943,138.115346 L620.795744,134.91778 L604.96268,162.962193 Z M696.333991,163.022917 L703.35619,166.220483 L719.189254,138.17607 L712.167054,134.978504 L696.333991,163.022917 Z M627.729112,162.997713 L634.751312,166.195278 L650.584375,138.150865 L643.562176,134.9533 L627.729112,162.997713 Z M673.567559,162.987481 L680.589758,166.185047 L696.422822,138.140634 L689.400622,134.943068 L673.567559,162.987481 Z M650.551492,162.914363 L657.573691,166.111929 L673.406755,138.067516 L666.384556,134.86995 L650.551492,162.914363 Z M673.578952,131.799239 L680.601152,134.996805 L696.434215,106.952392 L689.412016,103.754826 L673.578952,131.799239 Z M650.741567,100.537796 L657.763766,103.735361 L673.59683,75.6909482 L666.57463,72.4933827 L650.741567,100.537796 Z M650.729988,131.726121 L657.752187,134.923686 L673.585251,106.879273 L666.563052,103.681708 L650.729988,131.726121 Z M673.590623,100.61108 L680.612823,103.808646 L696.445886,75.7642327 L689.423687,72.5666672 L673.590623,100.61108 Z M650.703218,69.3373257 L657.725418,72.5348912 L673.558481,44.4904782 L666.536282,41.2929127 L650.703218,69.3373257 Z M696.356963,100.646599 L703.379162,103.844165 L719.212226,75.7997519 L712.190026,72.6021864 L696.356963,100.646599 Z M719.250389,131.788924 L726.272588,134.98649 L742.105652,106.942077 L735.083452,103.744511 L719.250389,131.788924 Z M719.238995,162.977 L726.261195,166.174566 L742.094258,138.130153 L735.072059,134.932587 L719.238995,162.977 Z M719.261875,100.600849 L726.284074,103.798414 L742.117138,75.7540011 L735.094938,72.5564356 L719.261875,100.600849 Z M650.539913,194.102439 L657.562113,197.300004 L673.395176,169.255591 L666.372977,166.058026 L650.539913,194.102439 Z M650.611145,225.32828 L657.633345,228.525845 L673.466408,200.481432 L666.444209,197.283867 L650.611145,225.32828 Z M627.884544,194.185955 L634.906743,197.38352 L650.739807,169.339107 L643.717607,166.141542 L627.884544,194.185955 Z M605.118204,194.150436 L612.140404,197.348001 L627.973467,169.303588 L620.951268,166.106023 L605.118204,194.150436 Z M719.227417,194.165242 L726.249616,197.362808 L742.08268,169.318395 L735.06048,166.120829 L719.227417,194.165242 Z M673.46965,69.3725954 L680.49185,72.5701609 L696.324913,44.5257479 L689.302714,41.3281824 L673.46965,69.3725954 Z M696.322505,194.211076 L703.344704,197.408642 L719.177768,169.364229 L712.155568,166.166663 L696.322505,194.211076 Z M673.55598,194.17564 L680.57818,197.373206 L696.411243,169.328793 L689.389044,166.131227 L673.55598,194.17564 Z M673.544494,225.363716 L680.566694,228.561281 L696.399757,200.516868 L689.377558,197.319303 L673.544494,225.363716 Z M879.042616,100.605507 L886.064816,103.803072 L901.897879,75.7586594 L894.87568,72.5610939 L879.042616,100.605507 Z M901.797562,131.829102 L908.819762,135.026667 L924.652825,106.982254 L917.630626,103.784689 L901.797562,131.829102 Z M901.785891,163.017261 L908.80809,166.214826 L924.641154,138.170413 L917.618955,134.972848 L901.785891,163.017261 Z M856.091668,225.403893 L863.113867,228.601459 L878.946931,200.557046 L871.924731,197.35948 L856.091668,225.403893 Z M764.910247,162.966769 L771.932446,166.164334 L787.76551,138.119921 L780.74331,134.922356 L764.910247,162.966769 Z M787.676771,163.002288 L794.698971,166.199853 L810.532034,138.15544 L803.509835,134.957875 L787.676771,163.002288 Z M764.898761,194.155011 L771.92096,197.352576 L787.754024,169.308163 L780.731824,166.110598 L764.898761,194.155011 Z M764.887367,225.34317 L771.909567,228.540735 L787.74263,200.496322 L780.720431,197.298757 L764.887367,225.34317 Z M879.008158,194.169984 L886.030358,197.367549 L901.863421,169.323136 L894.841222,166.125571 L879.008158,194.169984 Z M787.665285,194.19053 L794.687485,197.388095 L810.520548,169.343682 L803.498349,166.146117 L787.665285,194.19053 Z M787.653799,225.378689 L794.675999,228.576254 L810.509062,200.531841 L803.486863,197.334276 L787.653799,225.378689 Z M833.325236,225.368291 L840.347435,228.565856 L856.180499,200.521443 L849.158299,197.323878 L833.325236,225.368291 Z M810.558711,225.332855 L817.580911,228.53042 L833.413974,200.486007 L826.391775,197.288442 L810.558711,225.332855 Z M810.510637,131.730779 L817.532836,134.928345 L833.3659,106.883932 L826.343701,103.686366 L810.510637,131.730779 Z M833.359694,131.803897 L840.381893,135.001463 L856.214957,106.95705 L849.192757,103.759484 L833.359694,131.803897 Z M742.005335,163.012686 L749.027534,166.210251 L764.860598,138.165838 L757.838398,134.968273 L742.005335,163.012686 Z M787.688257,131.814212 L794.710457,135.011778 L810.54352,106.967365 L803.521321,103.769799 L787.688257,131.814212 Z M764.921825,131.77861 L771.944025,134.976175 L787.777088,106.931762 L780.754889,103.734197 L764.921825,131.77861 Z M741.993849,194.200845 L749.016048,197.39841 L764.849112,169.353997 L757.826912,166.156432 L741.993849,194.200845 Z M879.03113,131.793666 L886.05333,134.991231 L901.886393,106.946818 L894.864194,103.749253 L879.03113,131.793666 Z M879.019552,162.981742 L886.041751,166.179307 L901.874815,138.134894 L894.852615,134.937329 L879.019552,162.981742 Z M856.126218,131.839333 L863.148418,135.036899 L878.981481,106.992486 L871.959282,103.79492 L856.126218,131.839333 Z M810.499244,162.918938 L817.521443,166.116504 L833.354507,138.072091 L826.332307,134.874525 L810.499244,162.918938 Z M810.570197,194.144696 L817.592397,197.342261 L833.42546,169.297848 L826.403261,166.100283 L810.570197,194.144696 Z M57.2211208,381.446005 L64.2433203,384.643571 L80.0763838,356.599158 L73.0541844,353.401592 L57.2211208,381.446005 Z M285.480302,287.779878 L292.502502,290.977444 L308.335565,262.933031 L301.313366,259.735465 L285.480302,287.779878 Z M34.4316244,443.786804 L41.4538238,446.984369 L57.2868874,418.939956 L50.2646879,415.742391 L34.4316244,443.786804 Z M34.4201384,474.974963 L41.4423378,478.172528 L57.2754014,450.128115 L50.253202,446.93055 L34.4201384,474.974963 Z M148.529351,474.989936 L155.55155,478.187501 L171.384614,450.143088 L164.362414,446.945523 L148.529351,474.989936 Z M125.680294,474.916734 L132.702493,478.1143 L148.535557,450.069887 L141.513357,446.872321 L125.680294,474.916734 Z M148.57548,350.237217 L155.597679,353.434782 L171.430743,325.390369 L164.408544,322.192804 L148.57548,350.237217 Z M125.726331,350.164182 L132.74853,353.361747 L148.581594,325.317334 L141.559394,322.119769 L125.726331,350.164182 Z M102.903951,350.247532 L109.92615,353.445097 L125.759214,325.400684 L118.737014,322.203119 L102.903951,350.247532 Z M171.38378,350.198453 L178.40598,353.396019 L194.239043,325.351606 L187.216844,322.15404 L171.38378,350.198453 Z M80.0435006,381.362572 L87.0657,384.560138 L102.898764,356.515725 L95.8765641,353.318159 L80.0435006,381.362572 Z M194.235245,381.415061 L201.257445,384.612626 L217.090508,356.568213 L210.068309,353.370648 L194.235245,381.415061 Z M171.330426,381.460895 L178.352625,384.65846 L194.185689,356.614047 L187.163489,353.416482 L171.330426,381.460895 Z M148.563994,381.425459 L155.586193,384.623024 L171.419257,356.578611 L164.397058,353.381046 L148.563994,381.425459 Z M125.714937,381.352341 L132.737137,384.549906 L148.5702,356.505493 L141.548001,353.307928 L125.714937,381.352341 Z M102.892465,381.43569 L109.914664,384.633256 L125.747728,356.588843 L118.725528,353.391277 L102.892465,381.43569 Z M57.2096348,412.634247 L64.2318343,415.831813 L80.0648978,387.7874 L73.0426984,384.589834 L57.2096348,412.634247 Z M125.703359,412.540333 L132.725558,415.737899 L148.558622,387.693486 L141.536422,384.49592 L125.703359,412.540333 Z M125.691873,443.728659 L132.714072,446.926224 L148.547136,418.881811 L141.524936,415.684246 L125.691873,443.728659 Z M102.881071,412.623849 L109.903271,415.821415 L125.736334,387.777002 L118.714135,384.579436 L102.881071,412.623849 Z M80.0320146,412.550731 L87.054214,415.748297 L102.887278,387.703884 L95.8650781,384.506318 L80.0320146,412.550731 Z M194.223759,412.603303 L201.245959,415.800869 L217.079022,387.756456 L210.056823,384.55889 L194.223759,412.603303 Z M102.869493,443.812008 L109.891692,447.009574 L125.724756,418.965161 L118.702556,415.767595 L102.869493,443.812008 Z M102.858007,475.000167 L109.880206,478.197733 L125.71327,450.15332 L118.69107,446.955754 L102.858007,475.000167 Z M80.103061,443.776489 L87.1252604,446.974055 L102.958324,418.929642 L95.9361245,415.732076 L80.103061,443.776489 Z M57.1980562,443.822406 L64.2202557,447.019972 L80.0533192,418.975559 L73.0311198,415.777993 L57.1980562,443.822406 Z M194.212273,443.791379 L201.234473,446.988944 L217.067536,418.944531 L210.045337,415.746966 L194.212273,443.791379 Z M194.200787,474.979621 L201.222987,478.177186 L217.05605,450.132773 L210.033851,446.935208 L194.200787,474.979621 Z M80.0914823,474.964648 L87.1136818,478.162213 L102.946745,450.1178 L95.9245459,446.920235 L80.0914823,474.964648 Z M57.1864776,475.010482 L64.208677,478.208047 L80.0417406,450.163634 L73.0195412,446.966069 L57.1864776,475.010482 Z M285.543568,474.959075 L292.565767,478.15664 L308.398831,450.112227 L301.376631,446.914662 L285.543568,474.959075 Z M262.638656,475.004825 L269.660855,478.202391 L285.493919,450.157978 L278.471719,446.960412 L262.638656,475.004825 Z M285.490214,506.221433 L292.512413,509.418999 L308.345477,481.374586 L301.323277,478.17702 L285.490214,506.221433 Z M171.318847,412.649054 L178.341047,415.846619 L194.17411,387.802206 L187.151911,384.604641 L171.318847,412.649054 Z M171.307361,443.837296 L178.329561,447.034861 L194.162624,418.990448 L187.140425,415.792883 L171.307361,443.837296 Z M148.552323,412.613535 L155.574522,415.8111 L171.407586,387.766687 L164.385386,384.569122 L148.552323,412.613535 Z M148.540929,443.801777 L155.563129,446.999342 L171.396192,418.954929 L164.373993,415.757364 L148.540929,443.801777 Z M239.872131,474.969306 L246.894331,478.166872 L262.727394,450.122459 L255.705195,446.924893 L239.872131,474.969306 Z M216.967219,475.01514 L223.989419,478.212706 L239.822482,450.168293 L232.800283,446.970727 L216.967219,475.01514 Z M80.0799964,506.152973 L87.1021958,509.350539 L102.935259,481.306126 L95.9130599,478.10856 L80.0799964,506.152973 Z M57.1749916,506.198724 L64.1971911,509.39629 L80.0302546,481.351877 L73.0080552,478.154311 L57.1749916,506.198724 Z M262.62717,506.192984 L269.649369,509.39055 L285.482433,481.346137 L278.460233,478.148571 L262.62717,506.192984 Z M285.478728,537.409592 L292.500927,540.607157 L308.333991,512.562744 L301.311791,509.365179 L285.478728,537.409592 Z M171.262899,318.960218 L178.285099,322.157784 L194.118162,294.113371 L187.095963,290.915805 L171.262899,318.960218 Z M148.454599,318.998898 L155.476799,322.196464 L171.309862,294.152051 L164.287663,290.954485 L148.454599,318.998898 Z M308.31,474.994594 L315.332199,478.192159 L331.165263,450.147746 L324.143063,446.950181 L308.31,474.994594 Z M216.978705,443.826981 L224.000905,447.024547 L239.833968,418.980134 L232.811769,415.782568 L216.978705,443.826981 Z M194.125943,318.988584 L201.148143,322.186149 L216.981206,294.141736 L209.959007,290.944171 L194.125943,318.988584 Z M194.246824,350.226985 L201.269023,353.424551 L217.102087,325.380138 L210.079888,322.182572 L194.246824,350.226985 Z M285.468816,318.967954 L292.491016,322.16552 L308.324079,294.121107 L301.30188,290.923541 L285.468816,318.967954 Z M262.60568,318.939589 L269.627879,322.137154 L285.460943,294.092741 L278.438743,290.895176 L262.60568,318.939589 Z M239.82415,381.367231 L246.846349,384.564796 L262.679413,356.520383 L255.657213,353.322818 L239.82415,381.367231 Z M217.001677,381.45058 L224.023877,384.648146 L239.85694,356.603733 L232.834741,353.406167 L217.001677,381.45058 Z M216.990284,412.638822 L224.012483,415.836388 L239.845547,387.791975 L232.823347,384.594409 L216.990284,412.638822 Z M308.321578,443.806435 L315.343778,447.004 L331.176841,418.959587 L324.154642,415.762022 L308.321578,443.806435 Z M80.0265495,537.415165 L87.0487489,540.612731 L102.881812,512.568318 L95.859613,509.370752 L80.0265495,537.415165 Z M57.1635983,537.3868 L64.1857977,540.584365 L80.0188613,512.539952 L72.9966618,509.342387 L57.1635983,537.3868 Z M34.3437195,568.613722 L41.365919,571.811288 L57.1989825,543.766875 L50.1767831,540.569309 L34.3437195,568.613722 Z M11.4805831,568.585024 L18.5027825,571.782589 L34.3358461,543.738176 L27.3136466,540.540611 L11.4805831,568.585024 Z M34.4085598,506.163205 L41.4307592,509.36077 L57.2638228,481.316357 L50.2416233,478.118792 L34.4085598,506.163205 Z M34.3971664,537.35128 L41.4193658,540.548846 L57.2524294,512.504433 L50.23023,509.306867 L34.3971664,537.35128 Z M11.5039256,506.209039 L18.526125,509.406604 L34.3591886,481.362191 L27.3369891,478.164626 L11.5039256,506.209039 Z M11.4922543,537.397031 L18.5144537,540.594597 L34.3475173,512.550184 L27.3253179,509.352618 L11.4922543,537.397031 Z M627.851568,38.1203853 L634.874694,41.3179508 L650.706831,13.2735378 L643.684631,10.0768042 L627.851568,38.1203853 Z M689.356531,10.0662399 L673.522541,38.109821 L680.545667,41.3073866 L696.378731,13.2638054 L689.356531,10.0662399 Z M650.714704,38.148834 L657.73783,41.3463995 L673.569967,13.3019865 L666.547768,10.1052528 L650.714704,38.148834 Z M627.840082,69.3087938 L634.862281,72.5063593 L650.695345,44.4619463 L643.673145,41.2643808 L627.840082,69.3087938 Z M764.812616,69.3520491 L771.834815,72.5496146 L787.667879,44.5052016 L780.645679,41.3076361 L764.812616,69.3520491 Z M787.620916,69.3133689 L794.643115,72.5109344 L810.476179,44.4665214 L803.45398,41.2689559 L787.620916,69.3133689 Z M810.483867,69.3419007 L817.506067,72.5394662 L833.33913,44.4950532 L826.316931,41.2974877 L810.483867,69.3419007 Z M856.141409,69.3762554 L863.163609,72.5738209 L878.996672,44.5294079 L871.974473,41.3318424 L856.141409,69.3762554 Z M833.250392,69.3773368 L840.272591,72.5749023 L856.105655,44.5304893 L849.083455,41.3329238 L833.250392,69.3773368 Z M810.522216,100.542537 L817.544415,103.740103 L833.377479,75.6956897 L826.355279,72.4981241 L810.522216,100.542537 Z M856.137704,100.651175 L863.159904,103.84874 L878.992967,75.804327 L871.970768,72.6067615 L856.137704,100.651175 Z M833.371365,100.615655 L840.393565,103.813221 L856.226628,75.7688078 L849.204429,72.5712423 L833.371365,100.615655 Z M742.017006,131.82436 L749.039205,135.021926 L764.872269,106.977513 L757.85007,103.779947 L742.017006,131.82436 Z M787.699836,100.626053 L794.722035,103.823619 L810.555099,75.7792057 L803.532899,72.5816402 L787.699836,100.626053 Z M764.850872,100.552852 L771.873071,103.750417 L787.706135,75.7060044 L780.683935,72.5084389 L764.850872,100.552852 Z M741.949479,69.3236836 L748.971679,72.5212491 L764.804742,44.4768361 L757.782543,41.2792706 L741.949479,69.3236836 Z M742.028492,100.636368 L749.050691,103.833933 L764.883755,75.7895204 L757.861555,72.5919549 L742.028492,100.636368 Z M719.140994,69.362447 L726.163193,72.5600125 L741.996257,44.5155995 L734.974058,41.318034 L719.140994,69.362447 Z M696.360575,69.3715972 L703.382775,72.5691627 L719.215838,44.5247497 L712.193639,41.3271842 L696.360575,69.3715972 Z M856.103246,194.215734 L863.125446,197.4133 L878.958509,169.368887 L871.93631,166.171321 L856.103246,194.215734 Z M856.114732,163.027659 L863.136932,166.225224 L878.969995,138.180811 L871.947796,134.983246 L856.114732,163.027659 Z M833.348301,162.992056 L840.3705,166.189622 L856.203564,138.145209 L849.181364,134.947643 L833.348301,162.992056 Z M833.336815,194.180132 L840.359014,197.377697 L856.192078,169.333285 L849.169878,166.135719 L833.336815,194.180132 Z M468.126959,131.804896 L475.149159,135.002461 L490.982222,106.958048 L483.960023,103.760483 L468.126959,131.804896 Z M536.497301,69.3293401 L543.519501,72.5269056 L559.352564,44.4824926 L552.330365,41.2849271 L536.497301,69.3293401 Z M582.16883,69.3190253 L589.19103,72.5165908 L605.024093,44.4721778 L598.001894,41.2746123 L582.16883,69.3190253 Z M559.360345,69.3577056 L566.382545,72.5552711 L582.215608,44.5108581 L575.193409,41.3132926 L559.360345,69.3577056 Z M513.809882,100.606505 L520.832081,103.804071 L536.665145,75.7596576 L529.642945,72.5620921 L513.809882,100.606505 Z M490.960825,100.533387 L497.983024,103.730952 L513.816088,75.6865395 L506.793889,72.488974 L490.960825,100.533387 Z M490.949246,131.721546 L497.971446,134.919111 L513.804509,106.874698 L506.78231,103.677133 L490.949246,131.721546 Z M536.576314,100.641941 L543.598513,103.839507 L559.431577,75.7950937 L552.409377,72.5975282 L536.576314,100.641941 Z M536.564828,131.830017 L543.587027,135.027582 L559.420091,106.983169 L552.397891,103.785604 L536.564828,131.830017 Z M513.798303,131.794581 L520.820503,134.992146 L536.653566,106.947733 L529.631367,103.750168 L513.798303,131.794581 Z M582.247658,100.631626 L589.269857,103.829192 L605.102921,75.784779 L598.080721,72.5872134 L582.247658,100.631626 Z M582.236172,131.819785 L589.258371,135.017351 L605.091435,106.972938 L598.069235,103.775372 L582.236172,131.819785 Z M559.481226,100.59619 L566.503425,103.793756 L582.336489,75.7493429 L575.314289,72.5517774 L559.481226,100.59619 Z M559.46974,131.784349 L566.491939,134.981915 L582.325003,106.937502 L575.302803,103.739936 L559.46974,131.784349 Z M513.619807,162.98274 L520.642007,166.180305 L536.47507,138.135892 L529.452871,134.938327 L513.619807,162.98274 Z M490.770843,162.909622 L497.793043,166.107187 L513.626106,138.062774 L506.603907,134.865209 L490.770843,162.909622 Z M536.386332,163.018342 L543.408531,166.215908 L559.241595,138.171495 L552.219395,134.973929 L536.386332,163.018342 Z M582.057768,163.007944 L589.079968,166.20551 L604.913031,138.161097 L597.890832,134.963531 L582.057768,163.007944 Z M559.291151,162.972591 L566.313351,166.170157 L582.146414,138.125744 L575.124215,134.928178 L559.291151,162.972591 Z M536.541763,194.206335 L543.563963,197.4039 L559.397026,169.359487 L552.374827,166.161922 L536.541763,194.206335 Z M513.775239,194.170899 L520.797438,197.368464 L536.630502,169.324051 L529.608302,166.126486 L513.775239,194.170899 Z M559.446675,194.160667 L566.468875,197.358233 L582.301938,169.31382 L575.279739,166.116254 L559.446675,194.160667 Z M536.530277,225.39466 L543.552477,228.592226 L559.38554,200.547813 L552.363341,197.350247 L536.530277,225.39466 Z M513.763845,225.359224 L520.786045,228.556789 L536.619108,200.512376 L529.596909,197.314811 L513.763845,225.359224 Z M605.09514,256.526753 L612.117339,259.724319 L627.950403,231.679906 L620.928203,228.48234 L605.09514,256.526753 Z M559.435189,225.348909 L566.457389,228.546475 L582.290452,200.502062 L575.268253,197.304496 L559.435189,225.348909 Z M513.752174,256.5473 L520.774373,259.744865 L536.607437,231.700452 L529.585238,228.502887 L513.752174,256.5473 Z M582.190135,256.572504 L589.212335,259.77007 L605.045398,231.725657 L598.023199,228.528091 L582.190135,256.572504 Z M559.334872,256.536985 L566.357072,259.73455 L582.190135,231.690137 L575.167936,228.492572 L559.334872,256.536985 Z M536.518791,256.582736 L543.540991,259.780301 L559.374054,231.735888 L552.351855,228.538323 L536.518791,256.582736 Z M604.874776,287.789029 L611.896975,290.986594 L627.730039,262.942181 L620.707839,259.744616 L604.874776,287.789029 Z M627.705955,225.373947 L634.728155,228.571513 L650.561218,200.5271 L643.539019,197.329534 L627.705955,225.373947 Z M605.106626,225.338511 L612.128825,228.536077 L627.961889,200.491664 L620.939689,197.294098 L605.106626,225.338511 Z M582.2132,194.196186 L589.235399,197.393752 L605.068463,169.349339 L598.046263,166.151773 L582.2132,194.196186 Z M582.201714,225.384262 L589.223913,228.581828 L605.056977,200.537415 L598.034777,197.339849 L582.201714,225.384262 Z M627.694469,256.562273 L634.716669,259.759838 L650.549732,231.715425 L643.527533,228.51786 L627.694469,256.562273 Z M513.740688,287.735375 L520.762887,290.932941 L536.595951,262.888528 L529.573752,259.690962 L513.740688,287.735375 Z M536.418381,287.770978 L543.440581,290.968543 L559.273644,262.92413 L552.251445,259.726565 L536.418381,287.770978 Z M582.178649,287.760663 L589.200849,290.958229 L605.033912,262.913816 L598.011713,259.71625 L582.178649,287.760663 Z M559.370256,287.799343 L566.392456,290.996909 L582.225519,262.952496 L575.20332,259.75493 L559.370256,287.799343 Z M605.030207,318.977271 L612.052406,322.174836 L627.88547,294.130423 L620.863271,290.932858 L605.030207,318.977271 Z M536.495727,318.959054 L543.517926,322.156619 L559.35099,294.112206 L552.32879,290.914641 L536.495727,318.959054 Z M513.687334,318.997817 L520.709533,322.195382 L536.542597,294.150969 L529.520397,290.953404 L513.687334,318.997817 Z M582.000061,318.948905 L589.02226,322.146471 L604.855324,294.102058 L597.833124,290.904492 L582.000061,318.948905 Z M559.35877,318.987585 L566.38097,322.185151 L582.214033,294.140738 L575.191834,290.943172 L559.35877,318.987585 Z M467.948371,162.993138 L474.97057,166.190703 L490.803634,138.14629 L483.781434,134.948725 L467.948371,162.993138 Z M445.266416,162.919936 L452.288616,166.117502 L468.121679,138.073089 L461.09948,134.875523 L445.266416,162.919936 Z M445.337463,194.145694 L452.359662,197.34326 L468.192726,169.298847 L461.170526,166.101281 L445.337463,194.145694 Z M422.265448,194.191528 L429.287648,197.389094 L445.120711,169.344681 L438.098512,166.147115 L422.265448,194.191528 Z M627.849993,287.750348 L634.872193,290.947914 L650.705256,262.903501 L643.683057,259.705935 L627.849993,287.750348 Z M627.8386,318.93859 L634.860799,322.136156 L650.693863,294.091743 L643.671663,290.894177 L627.8386,318.93859 Z M490.926274,194.097781 L497.948474,197.295346 L513.781537,169.250933 L506.759338,166.053368 L490.926274,194.097781 Z M490.914788,225.286023 L497.936988,228.483588 L513.770051,200.439175 L506.747852,197.24161 L490.914788,225.286023 Z M468.103987,194.181213 L475.126187,197.378779 L490.95925,169.334366 L483.937051,166.1368 L468.103987,194.181213 Z M582.211532,443.825983 L589.233732,447.023549 L605.066795,418.979136 L598.044596,415.78157 L582.211532,443.825983 Z M582.199954,475.014059 L589.222153,478.211624 L605.055217,450.167211 L598.033017,446.969646 L582.199954,475.014059 Z M559.433522,474.978623 L566.455721,478.176188 L582.288785,450.131775 L575.266586,446.93421 L559.433522,474.978623 Z M445.32431,474.963733 L452.346509,478.161298 L468.179573,450.116885 L461.157373,446.91932 L445.32431,474.963733 Z M536.52861,475.024457 L543.550809,478.222022 L559.383873,450.177609 L552.361673,446.980044 L536.52861,475.024457 Z M216.955641,506.203382 L223.97784,509.400948 L239.810904,481.356535 L232.788704,478.158969 L216.955641,506.203382 Z M239.860738,506.157548 L246.882937,509.355114 L262.716001,481.310701 L255.693802,478.113135 L239.860738,506.157548 Z M353.96995,506.172438 L360.99215,509.370004 L376.825213,481.325591 L369.803014,478.128025 L353.96995,506.172438 Z M376.736475,506.207957 L383.758674,509.405523 L399.591738,481.36111 L392.569538,478.163544 L376.736475,506.207957 Z M399.641387,506.16229 L406.663586,509.359855 L422.49665,481.315442 L415.474451,478.117877 L399.641387,506.16229 Z M445.270863,506.226174 L452.293062,509.42374 L468.126126,481.379327 L461.103926,478.181761 L445.270863,506.226174 Z M422.407819,506.197726 L429.430018,509.395291 L445.263082,481.350878 L438.240882,478.153313 L422.407819,506.197726 Z M468.079255,506.187411 L475.101455,509.384977 L490.934518,481.340564 L483.912319,478.142998 L468.079255,506.187411 Z M490.942392,506.215777 L497.964591,509.413342 L513.797655,481.368929 L506.775455,478.171364 L490.942392,506.215777 Z M536.517216,506.212616 L543.539416,509.410181 L559.372479,481.365768 L552.35028,478.168203 L536.517216,506.212616 Z M513.750599,506.17718 L520.772799,509.374745 L536.605862,481.330332 L529.583663,478.132767 L513.750599,506.17718 Z M216.944155,537.391458 L223.966354,540.589024 L239.799418,512.544611 L232.777218,509.347045 L216.944155,537.391458 Z M216.932761,568.579617 L223.954961,571.777182 L239.788024,543.732769 L232.765825,540.535204 L216.932761,568.579617 Z M239.807291,537.419823 L246.829491,540.617389 L262.662554,512.572976 L255.640355,509.375411 L239.807291,537.419823 Z M263.530209,537.402022 L270.552409,540.599588 L286.385472,512.555175 L279.363273,509.357609 L263.530209,537.402022 Z M353.958464,537.360597 L360.980664,540.558163 L376.813727,512.51375 L369.791528,509.316184 L353.958464,537.360597 Z M376.724896,537.396199 L383.747096,540.593765 L399.580159,512.549352 L392.55796,509.351786 L376.724896,537.396199 Z M399.587847,537.424565 L406.610047,540.62213 L422.44311,512.577717 L415.420911,509.380152 L399.587847,537.424565 Z M445.259377,537.41425 L452.281576,540.611816 L468.11464,512.567403 L461.09244,509.369837 L445.259377,537.41425 Z M422.39624,537.385885 L429.41844,540.58345 L445.251503,512.539037 L438.229304,509.341472 L422.39624,537.385885 Z M468.067677,537.37557 L475.089876,540.573135 L490.92294,512.528723 L483.90074,509.331157 L468.067677,537.37557 Z M490.930721,537.404019 L497.95292,540.601584 L513.785984,512.557171 L506.763784,509.359606 L490.930721,537.404019 Z M536.505638,537.400775 L543.527837,540.59834 L559.360901,512.553927 L552.338701,509.356362 L536.505638,537.400775 Z M536.494059,568.58885 L543.516259,571.786416 L559.349322,543.742003 L552.327123,540.544437 L536.494059,568.58885 Z M513.739113,537.365338 L520.761313,540.562904 L536.594376,512.518491 L529.572177,509.320925 L513.739113,537.365338 Z M239.795805,568.608149 L246.818005,571.805714 L262.651068,543.761301 L255.628869,540.563736 L239.795805,568.608149 Z M239.834061,599.808702 L246.85626,603.006268 L262.689324,574.961855 L255.667124,571.764289 L239.834061,599.808702 Z M285.467149,568.597834 L292.489348,571.7954 L308.322412,543.750987 L301.300213,540.553421 L285.467149,568.597834 Z M262.604105,568.569385 L269.626305,571.766951 L285.459368,543.722538 L278.437169,540.524972 L262.604105,568.569385 Z M308.233674,568.633187 L315.255873,571.830752 L331.088937,543.786339 L324.066737,540.588774 L308.233674,568.633187 Z M331.138678,568.587519 L338.160878,571.785085 L353.993941,543.740672 L346.971742,540.543106 L331.138678,568.587519 Z M353.905017,568.623039 L360.927217,571.820604 L376.76028,543.776191 L369.738081,540.578626 L353.905017,568.623039 Z M376.71341,568.584275 L383.73561,571.781841 L399.568673,543.737428 L392.546474,540.539862 L376.71341,568.584275 Z M399.576454,568.612724 L406.598654,571.810289 L422.431717,543.765876 L415.409518,540.568311 L399.576454,568.612724 Z M445.247891,568.602492 L452.27009,571.800058 L468.103154,543.755645 L461.080954,540.558079 L445.247891,568.602492 Z M422.384754,568.57396 L429.406954,571.771526 L445.240017,543.727113 L438.217818,540.529547 L422.384754,568.57396 Z M468.056191,568.563646 L475.07839,571.761211 L490.911454,543.716798 L483.889254,540.519233 L468.056191,568.563646 Z M513.685759,568.627697 L520.707959,571.825262 L536.541022,543.780849 L529.518823,540.583284 L513.685759,568.627697 Z M513.80664,599.866015 L520.828839,603.063581 L536.661903,575.019168 L529.639703,571.821602 L513.80664,599.866015 Z M490.919235,568.592178 L497.941434,571.789743 L513.774498,543.74533 L506.752298,540.547765 L490.919235,568.592178 Z M354.025806,599.861357 L361.048005,603.058923 L376.881069,575.01451 L369.858869,571.816944 L354.025806,599.861357 Z M376.79233,599.896876 L383.81453,603.094442 L399.647593,575.050029 L392.625394,571.852463 L376.79233,599.896876 Z M399.61471,599.813443 L406.636909,603.011009 L422.469973,574.966596 L415.447773,571.76903 L399.61471,599.813443 Z M445.286146,599.803129 L452.308346,603.000694 L468.141409,574.956281 L461.11921,571.758716 L445.286146,599.803129 Z M422.463767,599.886562 L429.485966,603.084127 L445.31903,575.039714 L438.29683,571.842149 L422.463767,599.886562 Z M490.957583,599.792897 L497.979782,602.990463 L513.812846,574.94605 L506.790647,571.748484 L490.957583,599.792897 Z M468.135111,599.87633 L475.15731,603.073896 L490.990374,575.029483 L483.968174,571.831917 L468.135111,599.87633 Z M285.505405,599.79847 L292.527604,602.996036 L308.360668,574.951623 L301.338468,571.754057 L285.505405,599.79847 Z M285.493919,630.986463 L292.516118,634.184029 L308.349182,606.139616 L301.326982,602.94205 L285.493919,630.986463 Z M262.683025,599.88182 L269.705225,603.079386 L285.538288,575.034973 L278.516089,571.837407 L262.683025,599.88182 Z M262.671632,631.070312 L269.693831,634.267877 L285.526895,606.223464 L278.504695,603.025899 L262.671632,631.070312 Z M331.176841,599.788322 L338.199041,602.985888 L354.032104,574.941475 L347.009905,571.743909 L331.176841,599.788322 Z M331.16517,630.976731 L338.188296,634.173464 L354.020433,606.129051 L346.99916,602.932318 L331.16517,630.976731 Z M308.354462,599.871589 L315.376661,603.069154 L331.209725,575.024741 L324.187525,571.827176 L308.354462,599.871589 Z M308.342883,631.059831 L315.366009,634.257396 L331.198146,606.212983 L324.176873,603.015418 L308.342883,631.059831 Z M331.150072,537.399277 L338.172271,540.596843 L354.005335,512.55243 L346.983135,509.354864 L331.150072,537.399277 Z M308.287028,537.370912 L315.309227,540.568477 L331.142291,512.524064 L324.120091,509.326499 L308.287028,537.370912 Z M468.102227,443.811093 L475.124427,447.008659 L490.95749,418.964246 L483.935291,415.76668 L468.102227,443.811093 Z M468.090741,474.999252 L475.112941,478.196818 L490.946004,450.152405 L483.923805,446.954839 L468.090741,474.999252 Z M559.445008,443.790547 L566.467207,446.988112 L582.300271,418.943699 L575.278071,415.746134 L559.445008,443.790547 Z M536.540281,443.836215 L543.562481,447.03378 L559.395544,418.989367 L552.373345,415.791802 L536.540281,443.836215 Z M331.079025,506.173603 L338.101225,509.371168 L353.934288,481.326755 L346.912089,478.12919 L331.079025,506.173603 Z M308.298606,506.182753 L315.320806,509.380318 L331.153869,481.335905 L324.13167,478.13834 L308.298606,506.182753 Z M513.773849,443.800779 L520.796049,446.998344 L536.629112,418.953931 L529.606913,415.756366 L513.773849,443.800779 Z M513.762178,474.988854 L520.784377,478.18642 L536.617441,450.142007 L529.595242,446.944441 L513.762178,474.988854 Z M490.924607,443.72766 L497.946807,446.925226 L513.77987,418.880813 L506.757671,415.683247 L490.924607,443.72766 Z M490.913121,474.915736 L497.935321,478.113302 L513.768384,450.068889 L506.746185,446.871323 L490.913121,474.915736 Z M833.31375,256.556533 L840.335949,259.754099 L856.169013,231.709686 L849.146813,228.51212 L833.31375,256.556533 Z M810.505265,256.595296 L817.527464,259.792862 L833.360528,231.748449 L826.338328,228.550883 L810.505265,256.595296 Z M787.642221,256.566931 L794.66442,259.764496 L810.497484,231.720083 L803.475284,228.522518 L787.642221,256.566931 Z M764.875881,256.531412 L771.898081,259.728977 L787.731144,231.684564 L780.708945,228.486999 L764.875881,256.531412 Z M764.822435,287.79377 L771.844634,290.991336 L787.677698,262.946923 L780.655498,259.749357 L764.822435,287.79377 Z M787.630735,287.755007 L794.652934,290.952572 L810.485998,262.908159 L803.463798,259.710594 L787.630735,287.755007 Z M856.080182,256.592052 L863.102381,259.789618 L878.935445,231.745205 L871.913245,228.547639 L856.080182,256.592052 Z M901.751526,256.581821 L908.773725,259.779386 L924.606789,231.734973 L917.584589,228.537408 L901.751526,256.581821 Z M878.985094,256.546385 L886.007293,259.74395 L901.840357,231.699537 L894.818157,228.501972 L878.985094,256.546385 Z M764.810856,318.981929 L771.833055,322.179494 L787.666119,294.135081 L780.64392,290.937516 L764.810856,318.981929 Z M901.74004,287.76998 L908.762239,290.967545 L924.595303,262.923132 L917.573103,259.725567 L901.74004,287.76998 Z M901.728461,318.958222 L908.750661,322.155787 L924.583724,294.111374 L917.561525,290.913809 L901.728461,318.958222 Z M833.302171,287.744692 L840.324371,290.942257 L856.157434,262.897844 L849.135235,259.700279 L833.302171,287.744692 Z M810.493779,287.783372 L817.515978,290.980938 L833.349042,262.936525 L826.326842,259.738959 L810.493779,287.783372 Z M878.931647,287.80866 L885.953846,291.006225 L901.78691,262.961812 L894.764711,259.764247 L878.931647,287.80866 Z M856.068603,287.780294 L863.090803,290.97786 L878.923866,262.933447 L871.901667,259.735881 L856.068603,287.780294 Z M833.248817,319.007134 L840.271016,322.204699 L856.10408,294.160286 L849.081881,290.962721 L833.248817,319.007134 Z M810.482385,318.971697 L817.504585,322.169263 L833.337648,294.12485 L826.315449,290.927284 L810.482385,318.971697 Z M787.619249,318.943249 L794.641448,322.140814 L810.474512,294.096401 L803.452312,290.898836 L787.619249,318.943249 Z M878.920161,318.996902 L885.94236,322.194467 L901.775424,294.150054 L894.753225,290.952489 L878.920161,318.996902 Z M856.139835,319.005969 L863.162034,322.203534 L878.995098,294.159121 L871.972898,290.961556 L856.139835,319.005969 Z M787.698169,350.255683 L794.720368,353.453249 L810.553432,325.408836 L803.531232,322.21127 L787.698169,350.255683 Z M764.849204,350.182565 L771.871404,353.380131 L787.704467,325.335718 L780.682268,322.138152 L764.849204,350.182565 Z M901.807381,350.270656 L908.82958,353.468222 L924.662644,325.423809 L917.640445,322.226243 L901.807381,350.270656 Z M879.041042,350.235137 L886.063241,353.432703 L901.896305,325.38829 L894.874105,322.190724 L879.041042,350.235137 Z M810.520548,350.172417 L817.542748,353.369983 L833.375811,325.32557 L826.353612,322.128004 L810.520548,350.172417 Z M856.136037,350.280971 L863.158236,353.478537 L878.9913,325.434124 L871.969101,322.236558 L856.136037,350.280971 Z M833.369698,350.245452 L840.391897,353.443017 L856.224961,325.398604 L849.202761,322.201039 L833.369698,350.245452 Z M787.686683,381.444092 L794.708882,384.641657 L810.541946,356.597244 L803.519746,353.399679 L787.686683,381.444092 Z M764.837626,381.370891 L771.859825,384.568456 L787.692889,356.524043 L780.670689,353.326478 L764.837626,381.370891 Z M856.124644,381.469213 L863.146843,384.666779 L878.979907,356.622366 L871.957707,353.4248 L856.124644,381.469213 Z M901.795895,381.458982 L908.818094,384.656547 L924.651158,356.612134 L917.628959,353.414569 L901.795895,381.458982 Z M879.029556,381.423462 L886.051755,384.621028 L901.884819,356.576615 L894.862619,353.379049 L879.029556,381.423462 Z M833.358304,381.433694 L840.380504,384.63126 L856.213567,356.586847 L849.191368,353.389281 L833.358304,381.433694 Z M810.509062,381.360493 L817.531262,384.558058 L833.364325,356.513645 L826.342126,353.31608 L810.509062,381.360493 Z M901.784409,412.647057 L908.806608,415.844623 L924.639672,387.80021 L917.617473,384.602644 L901.784409,412.647057 Z M787.675197,412.632084 L794.697396,415.82965 L810.53046,387.785237 L803.50826,384.587672 L787.675197,412.632084 Z M764.908765,412.596565 L771.930964,415.794131 L787.764028,387.749718 L780.741828,384.552152 L764.908765,412.596565 Z M810.497576,412.548735 L817.519776,415.7463 L833.352839,387.701887 L826.33064,384.504322 L810.497576,412.548735 Z M833.346633,412.621853 L840.368833,415.819418 L856.201896,387.775005 L849.179697,384.57744 L833.346633,412.621853 Z M879.017977,412.611538 L886.040177,415.809104 L901.87324,387.764691 L894.851041,384.567125 L879.017977,412.611538 Z M856.113065,412.657289 L863.135264,415.854855 L878.968328,387.810442 L871.946129,384.612876 L856.113065,412.657289 Z M1107.23631,412.641318 L1114.25944,415.838883 L1130.09157,387.79447 L1123.0703,384.596905 L1107.23631,412.641318 Z M1084.47016,412.605882 L1091.49235,415.803447 L1107.32542,387.759034 L1100.30322,384.561469 L1084.47016,412.605882 Z M1061.52069,287.774555 L1068.54289,290.97212 L1084.37595,262.927707 L1077.35375,259.730142 L1061.52069,287.774555 Z M1038.7123,287.813401 L1045.7345,291.010967 L1061.56756,262.966554 L1054.54536,259.768988 L1038.7123,287.813401 Z M947.411476,287.759665 L954.433676,290.95723 L970.266739,262.912817 L963.24454,259.715252 L947.411476,287.759665 Z M924.603176,287.798262 L931.625376,290.995827 L947.458439,262.951414 L940.43624,259.753849 L924.603176,287.798262 Z M924.59169,318.986504 L931.61389,322.18407 L947.446953,294.139657 L940.424754,290.942091 L924.59169,318.986504 Z M1107.18045,318.952316 L1114.20358,322.149881 L1130.03572,294.105468 L1123.01444,290.907903 L1107.18045,318.952316 Z M1084.38383,287.803003 L1091.40602,291.000569 L1107.23909,262.956156 L1100.21689,259.75859 L1084.38383,287.803003 Z M1084.37225,318.991245 L1091.39445,322.188811 L1107.22751,294.144398 L1100.20531,290.946833 L1084.37225,318.991245 Z M993.082913,287.74935 L1000.10511,290.946916 L1015.93818,262.902503 L1008.91598,259.704937 L993.082913,287.74935 Z M970.274428,287.788114 L977.296627,290.985679 L993.129691,262.941266 L986.107491,259.743701 L970.274428,287.788114 Z M993.029559,319.011875 L1000.05176,322.20944 L1015.88482,294.165027 L1008.86262,290.967462 L993.029559,319.011875 Z M970.262942,318.976273 L977.285141,322.173838 L993.118205,294.129425 L986.096005,290.93186 L970.262942,318.976273 Z M947.399805,318.947824 L954.422005,322.145389 L970.255068,294.100976 L963.232869,290.903411 L947.399805,318.947824 Z M1015.92048,319.01071 L1022.94268,322.208276 L1038.77575,294.163863 L1031.75355,290.966297 L1015.92048,319.01071 Z M1061.50911,318.962797 L1068.53131,322.160362 L1084.36437,294.115949 L1077.34217,290.918384 L1061.50911,318.962797 Z M1038.70081,319.001477 L1045.72301,322.199043 L1061.55607,294.15463 L1054.53387,290.957064 L1038.70081,319.001477 Z M1107.25965,350.265333 L1114.28185,353.462898 L1130.11491,325.418485 L1123.09272,322.22092 L1107.25965,350.265333 Z M1107.24798,381.453325 L1114.27018,384.650891 L1130.10324,356.606478 L1123.08104,353.408912 L1107.24798,381.453325 Z M1084.41059,350.191882 L1091.43279,353.389447 L1107.26586,325.345034 L1100.24366,322.147469 L1084.41059,350.191882 Z M1084.48173,381.417723 L1091.50393,384.615288 L1107.337,356.570875 L1100.3148,353.37331 L1084.48173,381.417723 Z M924.629853,350.187307 L931.652053,353.384872 L947.485116,325.340459 L940.462917,322.142894 L924.629853,350.187307 Z M924.700992,381.413148 L931.723192,384.610713 L947.556255,356.5663 L940.534056,353.368735 L924.700992,381.413148 Z M970.301197,350.176992 L977.323397,353.374558 L993.15646,325.330145 L986.134261,322.132579 L970.301197,350.176992 Z M947.47891,350.260425 L954.50111,353.45799 L970.334173,325.413577 L963.311974,322.216012 L947.47891,350.260425 Z M993.150347,350.250193 L1000.17255,353.447759 L1016.00561,325.403346 L1008.98341,322.20578 L993.150347,350.250193 Z M1015.91678,350.285629 L1022.93898,353.483195 L1038.77204,325.438782 L1031.74984,322.241216 L1015.91678,350.285629 Z M1061.58822,350.275398 L1068.61041,353.472963 L1084.44348,325.42855 L1077.42128,322.230985 L1061.58822,350.275398 Z M1038.82188,350.239879 L1045.84408,353.437444 L1061.67714,325.393031 L1054.65494,322.195466 L1038.82188,350.239879 Z M947.467424,381.448667 L954.489624,384.646233 L970.322687,356.60182 L963.300488,353.404254 L947.467424,381.448667 Z M1015.9052,381.473788 L1022.9274,384.671354 L1038.76046,356.626941 L1031.73826,353.429375 L1015.9052,381.473788 Z M1015.89371,412.66203 L1022.91591,415.859596 L1038.74898,387.815183 L1031.72678,384.617617 L1015.89371,412.66203 Z M993.138861,381.438269 L1000.16106,384.635835 L1015.99412,356.591422 L1008.97192,353.393856 L993.138861,381.438269 Z M970.289804,381.365234 L977.312003,384.5628 L993.145067,356.518387 L986.122867,353.320821 L970.289804,381.365234 Z M1061.57654,381.463474 L1068.59874,384.661039 L1084.43181,356.616626 L1077.40961,353.419061 L1061.57654,381.463474 Z M1061.56515,412.651716 L1068.58735,415.849281 L1084.42041,387.804868 L1077.39821,384.607303 L1061.56515,412.651716 Z M1038.8102,381.428038 L1045.8324,384.625603 L1061.66547,356.58119 L1054.64327,353.383625 L1038.8102,381.428038 Z M1038.79881,412.61628 L1045.82101,415.813845 L1061.65407,387.769432 L1054.63187,384.571867 L1038.79881,412.61628 Z M947.455846,412.636743 L954.478045,415.834308 L970.311109,387.789895 L963.288909,384.59233 L947.455846,412.636743 Z M924.689506,412.601307 L931.711706,415.798872 L947.544769,387.754459 L940.52257,384.556894 L924.689506,412.601307 Z M993.127282,412.626511 L1000.14948,415.824077 L1015.98255,387.779664 L1008.96035,384.582098 L993.127282,412.626511 Z M970.278225,412.553393 L977.300425,415.750959 L993.133488,387.706546 L986.111289,384.50898 L970.278225,412.553393 Z M627.87139,475.003827 L634.89359,478.201393 L650.726653,450.15698 L643.704454,446.959414 L627.87139,475.003827 Z M627.859904,506.191986 L634.882104,509.389552 L650.715167,481.345139 L643.692968,478.147573 L627.859904,506.191986 Z M650.776395,474.957993 L657.798595,478.155559 L673.631658,450.111146 L666.609459,446.91358 L650.776395,474.957993 Z M673.542734,474.993679 L680.564934,478.191244 L696.397997,450.146831 L689.375798,446.949266 L673.542734,474.993679 Z M696.309351,475.029032 L703.331551,478.226597 L719.164614,450.182184 L712.142415,446.984619 L696.309351,475.029032 Z M741.980788,475.0188 L749.002987,478.216366 L764.836051,450.171953 L757.813852,446.974387 L741.980788,475.0188 Z M719.214356,474.983281 L726.236556,478.180846 L742.069619,450.136433 L735.04742,446.938868 L719.214356,474.983281 Z M650.723041,506.220518 L657.74524,509.418084 L673.578304,481.373671 L666.556104,478.176105 L650.723041,506.220518 Z M673.531341,506.181755 L680.55354,509.37932 L696.386604,481.334907 L689.364405,478.137342 L673.531341,506.181755 Z M696.297773,506.217191 L703.319972,509.414756 L719.153036,481.370343 L712.130836,478.172778 L696.297773,506.217191 Z M741.969117,506.206876 L748.991316,509.404441 L764.82438,481.360028 L757.80218,478.162463 L741.969117,506.206876 Z M719.202685,506.17144 L726.224884,509.369005 L742.057948,481.324592 L735.035749,478.127027 L719.202685,506.17144 Z M650.711462,537.408594 L657.733662,540.606159 L673.566725,512.561746 L666.544526,509.364181 L650.711462,537.408594 Z M650.699976,568.596753 L657.722176,571.794318 L673.555239,543.749905 L666.53304,540.55234 L650.699976,568.596753 Z M673.519762,537.369997 L680.541962,540.567562 L696.375025,512.523149 L689.352826,509.325584 L673.519762,537.369997 Z M673.466408,568.632189 L680.488608,571.829754 L696.321671,543.785341 L689.299472,540.587776 L673.466408,568.632189 Z M696.286379,537.40535 L703.308579,540.602915 L719.141642,512.558502 L712.119443,509.360937 L696.286379,537.40535 Z M741.957723,537.395118 L748.979923,540.592684 L764.812986,512.548271 L757.790787,509.350705 L741.957723,537.395118 Z M719.149331,537.433881 L726.17153,540.631447 L742.004594,512.587034 L734.982394,509.389468 L719.149331,537.433881 Z M787.617674,568.572962 L794.639873,571.770528 L810.472937,543.726115 L803.450738,540.528549 L787.617674,568.572962 Z M764.820675,537.423567 L771.842874,540.621132 L787.675938,512.576719 L780.653738,509.379154 L764.820675,537.423567 Z M764.809281,568.611642 L771.831481,571.809208 L787.664544,543.764795 L780.642345,540.567229 L764.809281,568.611642 Z M696.274708,568.593592 L703.296908,571.791157 L719.129971,543.746744 L712.107772,540.549179 L696.274708,568.593592 Z M741.946145,568.583277 L748.968344,571.780842 L764.801408,543.736429 L757.779208,540.538864 L741.946145,568.583277 Z M719.137659,568.621957 L726.159859,571.819523 L741.992922,543.77511 L734.970723,540.577544 L719.137659,568.621957 Z M696.353813,599.90611 L703.376013,603.103675 L719.209076,575.059262 L712.186877,571.861697 L696.353813,599.90611 Z M742.025157,599.895795 L749.047357,603.09336 L764.88042,575.048947 L757.858221,571.851382 L742.025157,599.895795 Z M742.013857,631.083787 L749.036056,634.281353 L764.86912,606.23694 L757.84692,603.039374 L742.013857,631.083787 Z M719.176193,599.82276 L726.198392,603.020325 L742.031456,574.975912 L735.009257,571.778347 L719.176193,599.82276 Z M719.247425,631.048601 L726.269624,634.246166 L742.101761,606.201753 L735.080488,603.004188 L719.247425,631.048601 Z M764.8857,474.972966 L771.9079,478.170532 L787.740963,450.126119 L780.718764,446.928553 L764.8857,474.972966 Z M764.874122,506.161042 L771.896321,509.358607 L787.729385,481.314194 L780.707185,478.116629 L764.874122,506.161042 Z M810.492111,537.413335 L817.514311,540.610901 L833.347374,512.566488 L826.325175,509.368922 L810.492111,537.413335 Z M787.629067,537.384803 L794.651267,540.582369 L810.48433,512.537956 L803.462131,509.34039 L787.629067,537.384803 Z M810.557137,474.962735 L817.579336,478.1603 L833.4124,450.115887 L826.3902,446.918322 L810.557137,474.962735 Z M810.50369,506.225093 L817.525889,509.422659 L833.358953,481.378246 L826.336753,478.18068 L810.50369,506.225093 Z M787.652132,475.008486 L794.674331,478.206051 L810.507395,450.161638 L803.485196,446.964073 L787.652132,475.008486 Z M787.640646,506.196561 L794.662845,509.394127 L810.495909,481.349714 L803.47371,478.152148 L787.640646,506.196561 Z M605.116445,443.780232 L612.138644,446.977798 L627.971708,418.933385 L620.949508,415.735819 L605.116445,443.780232 Z M627.883062,443.815752 L634.905261,447.013317 L650.738325,418.968904 L643.716125,415.771339 L627.883062,443.815752 Z M650.705349,443.732319 L657.727548,446.929884 L673.560612,418.885471 L666.538412,415.687906 L650.705349,443.732319 Z M673.554406,443.805437 L680.576605,447.003002 L696.409669,418.958589 L689.387469,415.761024 L673.554406,443.805437 Z M696.320837,443.840873 L703.343037,447.038438 L719.1761,418.994025 L712.153901,415.79646 L696.320837,443.840873 Z M741.992181,443.830641 L749.014381,447.028207 L764.847444,418.983794 L757.825245,415.786228 L741.992181,443.830641 Z M719.22575,443.795205 L726.247949,446.992771 L742.081013,418.948358 L735.058813,415.750792 L719.22575,443.795205 Z M741.982363,225.38892 L749.004562,228.586486 L764.837626,200.542073 L757.815426,197.344507 L741.982363,225.38892 Z M719.215746,225.353567 L726.237945,228.551133 L742.071009,200.50672 L735.048809,197.309154 L719.215746,225.353567 Z M673.532916,256.551958 L680.555115,259.749523 L696.388179,231.70511 L689.365979,228.507545 L673.532916,256.551958 Z M650.724616,256.590638 L657.746815,259.788204 L673.579879,231.743791 L666.557679,228.546225 L650.724616,256.590638 Z M696.310926,225.399152 L703.333126,228.596717 L719.166189,200.552304 L712.14399,197.354739 L696.310926,225.399152 Z M650.713037,287.778714 L657.735236,290.976279 L673.5683,262.931866 L666.5461,259.734301 L650.713037,287.778714 Z M650.701644,318.967039 L657.723843,322.164605 L673.556907,294.120192 L666.534707,290.922626 L650.701644,318.967039 Z M605.045398,412.554391 L612.067598,415.751957 L627.900661,387.707544 L620.878462,384.509978 L605.045398,412.554391 Z M650.739899,350.167676 L657.762099,353.365241 L673.595162,325.320828 L666.572963,322.123263 L650.739899,350.167676 Z M627.91752,350.251192 L634.939719,353.448757 L650.772783,325.404344 L643.750583,322.206779 L627.91752,350.251192 Z M605.056977,381.366232 L612.079176,384.563798 L627.91224,356.519385 L620.89004,353.321819 L605.056977,381.366232 Z M673.588864,350.240877 L680.611063,353.438442 L696.444127,325.394029 L689.421927,322.196464 L673.588864,350.240877 Z M696.359001,319.001394 L703.3812,322.198959 L719.214264,294.154546 L712.192064,290.956981 L696.359001,319.001394 Z M673.52143,287.740117 L680.543629,290.937682 L696.376693,262.893269 L689.354493,259.695704 L673.52143,287.740117 Z M673.468075,319.002475 L680.490275,322.200041 L696.323338,294.155628 L689.301139,290.958062 L673.468075,319.002475 Z M627.905848,381.43935 L634.928048,384.636916 L650.761111,356.592503 L643.738912,353.394938 L627.905848,381.43935 Z M627.894455,412.627509 L634.916654,415.825075 L650.749718,387.780662 L643.727519,384.583096 L627.894455,412.627509 Z M650.728413,381.355918 L657.750613,384.553483 L673.583676,356.50907 L666.561477,353.311505 L650.728413,381.355918 Z M650.716835,412.544077 L657.739034,415.741642 L673.572098,387.697229 L666.549898,384.499664 L650.716835,412.544077 Z M741.947812,318.95348 L748.970012,322.151046 L764.803075,294.106633 L757.780876,290.909067 L741.947812,318.95348 Z M719.139419,318.992161 L726.161619,322.189726 L741.994682,294.145313 L734.972483,290.947748 L719.139419,318.992161 Z M696.299348,256.587394 L703.321547,259.78496 L719.154611,231.740547 L712.132411,228.542981 L696.299348,256.587394 Z M696.287862,287.775553 L703.310061,290.973118 L719.143125,262.928705 L712.120925,259.73114 L696.287862,287.775553 Z M742.003853,412.642399 L749.026052,415.839965 L764.859116,387.795552 L757.836916,384.597986 L742.003853,412.642399 Z M742.026825,350.266081 L749.049024,353.463647 L764.882088,325.419234 L757.859888,322.221668 L742.026825,350.266081 Z M719.2603,350.230562 L726.2825,353.428128 L742.115563,325.383715 L735.093364,322.186149 L719.2603,350.230562 Z M696.355388,350.276396 L703.377587,353.473962 L719.210651,325.429549 L712.188452,322.231983 L696.355388,350.276396 Z M742.015246,381.45424 L749.037445,384.651806 L764.870509,356.607393 L757.84831,353.409827 L742.015246,381.45424 Z M673.577378,381.429036 L680.599577,384.626601 L696.432641,356.582188 L689.410441,353.384623 L673.577378,381.429036 Z M673.565799,412.617278 L680.587998,415.814843 L696.421062,387.77043 L689.398863,384.572865 L673.565799,412.617278 Z M719.248814,381.418804 L726.271014,384.61637 L742.104077,356.571957 L735.081878,353.374391 L719.248814,381.418804 Z M719.237236,412.606963 L726.259435,415.804529 L742.092499,387.760116 L735.070299,384.56255 L719.237236,412.606963 Z M696.343902,381.464472 L703.366101,384.662037 L719.199165,356.617624 L712.176966,353.420059 L696.343902,381.464472 Z M696.332323,412.652714 L703.354523,415.850279 L719.187586,387.805866 L712.165387,384.608301 L696.332323,412.652714 Z M741.970784,256.577079 L748.992984,259.774645 L764.826047,231.730232 L757.803848,228.532666 L741.970784,256.577079 Z M741.959298,287.765238 L748.981498,290.962804 L764.814561,262.918391 L757.792362,259.720825 L741.959298,287.765238 Z M719.20426,256.541643 L726.226459,259.739209 L742.059523,231.694796 L735.037323,228.49723 L719.20426,256.541643 Z M719.150905,287.804085 L726.173105,291.00165 L742.006168,262.957237 L734.983969,259.759672 L719.150905,287.804085 Z M1015.85916,506.226507 L1022.88136,509.424073 L1038.71443,481.37966 L1031.69223,478.182094 L1015.85916,506.226507 Z M993.092732,506.190905 L1000.11493,509.38847 L1015.94799,481.344057 L1008.9258,478.146492 L993.092732,506.190905 Z M764.897186,443.784807 L771.919386,446.982373 L787.752449,418.93796 L780.73025,415.740394 L764.897186,443.784807 Z M833.335055,443.809929 L840.357254,447.007494 L856.190318,418.963081 L849.168118,415.765516 L833.335055,443.809929 Z M924.677835,443.789382 L931.700035,446.986948 L947.533098,418.942535 L940.510899,415.744969 L924.677835,443.789382 Z M810.485998,443.736894 L817.508197,446.934459 L833.341261,418.890046 L826.319061,415.692481 L810.485998,443.736894 Z M787.663803,443.820327 L794.686003,447.017892 L810.519066,418.973479 L803.496867,415.775914 L787.663803,443.820327 Z M856.101579,443.845531 L863.123778,447.043097 L878.956842,418.998684 L871.934643,415.801118 L856.101579,443.845531 Z M901.772923,443.835383 L908.795122,447.032948 L924.628186,418.988535 L917.605987,415.79097 L901.772923,443.835383 Z M879.006491,443.79978 L886.028691,446.997346 L901.861754,418.952933 L894.839555,415.755367 L879.006491,443.79978 Z M856.090093,475.03369 L863.112292,478.231256 L878.945356,450.186843 L871.923157,446.989277 L856.090093,475.03369 Z M993.115796,443.814587 L1000.138,447.012152 L1015.97106,418.967739 L1008.94886,415.770174 L993.115796,443.814587 Z M970.349272,443.779151 L977.371471,446.976716 L993.204535,418.932303 L986.182335,415.734738 L970.349272,443.779151 Z M947.44436,443.824902 L954.466559,447.022467 L970.299623,418.978054 L963.277423,415.780489 L947.44436,443.824902 Z M1015.87074,475.038265 L1022.89294,478.235831 L1038.72601,450.191418 L1031.70381,446.993852 L1015.87074,475.038265 Z M993.10431,475.002912 L1000.12651,478.200478 L1015.95957,450.156065 L1008.93737,446.958499 L993.10431,475.002912 Z M901.761344,475.023458 L908.783544,478.221024 L924.616607,450.176611 L917.594408,446.979046 L901.761344,475.023458 Z M901.749766,506.211617 L908.771965,509.409183 L924.605029,481.36477 L917.582829,478.167204 L901.749766,506.211617 Z M878.994913,474.987939 L886.017112,478.185505 L901.850176,450.141092 L894.827976,446.943526 L878.994913,474.987939 Z M878.983427,506.176181 L886.005626,509.373747 L901.83869,481.329334 L894.81649,478.131768 L878.983427,506.176181 Z M924.666442,474.977625 L931.688641,478.17519 L947.521705,450.130777 L940.499505,446.933212 L924.666442,474.977625 Z M970.337693,474.967393 L977.359893,478.164958 L993.192956,450.120545 L986.170757,446.92298 L970.337693,474.967393 Z M947.432781,475.013144 L954.45498,478.210709 L970.288044,450.166296 L963.265845,446.968731 L947.432781,475.013144 Z M422.387996,69.3143671 L429.410196,72.5119326 L445.243259,44.4675196 L438.22106,41.2699541 L422.387996,69.3143671 Z M399.579696,69.3531305 L406.601896,72.550696 L422.434959,44.506283 L415.41276,41.3087175 L399.579696,69.3531305 Z M376.795665,100.637283 L383.817864,103.834848 L399.650928,75.7904354 L392.628728,72.5928699 L376.795665,100.637283 Z M399.617952,100.553933 L406.640151,103.751499 L422.473215,75.7070858 L415.451015,72.5095203 L399.617952,100.553933 Z M445.289388,100.543535 L452.311588,103.741101 L468.144651,75.6966879 L461.122452,72.4991223 L445.289388,100.543535 Z M422.467101,100.627051 L429.489301,103.824617 L445.322364,75.7802039 L438.300165,72.5826384 L422.467101,100.627051 Z M285.497161,131.727119 L292.51936,134.924685 L308.352424,106.880272 L301.330224,103.682706 L285.497161,131.727119 Z M308.34631,131.800154 L315.36851,134.99772 L331.201573,106.953307 L324.179374,103.755741 L308.34631,131.800154 Z M331.168597,131.716804 L338.190797,134.91437 L354.02386,106.869957 L347.001661,103.672391 L331.168597,131.716804 Z M262.628745,256.563188 L269.650944,259.760753 L285.484008,231.71634 L278.461808,228.518775 L262.628745,256.563188 Z M171.274385,287.771976 L178.296585,290.969542 L194.129648,262.925129 L187.107449,259.727563 L171.274385,287.771976 Z M148.507954,287.73654 L155.530153,290.934105 L171.363217,262.889692 L164.341017,259.692127 L148.507954,287.73654 Z M239.885377,194.151351 L246.907577,197.348916 L262.74064,169.304503 L255.718441,166.106938 L239.885377,194.151351 Z M262.674874,131.810469 L269.697073,135.008034 L285.530137,106.963621 L278.507937,103.766056 L262.674874,131.810469 Z M239.825817,131.737434 L246.848016,134.934999 L262.68108,106.890586 L255.65888,103.693021 L239.825817,131.737434 Z M239.896863,162.963275 L246.919063,166.16084 L262.752126,138.116427 L255.729927,134.918862 L239.896863,162.963275 Z M354.017562,131.789923 L361.039761,134.987488 L376.872825,106.943075 L369.850625,103.74551 L354.017562,131.789923 Z M399.689091,131.779608 L406.71129,134.977173 L422.544354,106.93276 L415.522154,103.735195 L399.689091,131.779608 Z M376.784086,131.825359 L383.806286,135.022924 L399.639349,106.978511 L392.61715,103.780946 L376.784086,131.825359 Z M376.7726,163.013601 L383.7948,166.211166 L399.627863,138.166753 L392.605664,134.969188 L376.7726,163.013601 Z M445.277902,131.731694 L452.300102,134.92926 L468.133165,106.884847 L461.110966,103.687281 L445.277902,131.731694 Z M422.455523,131.81521 L429.477722,135.012776 L445.310786,106.968363 L438.288586,103.770797 L422.455523,131.81521 Z M354.006168,162.978165 L361.028368,166.17573 L376.861431,138.131317 L369.839232,134.933752 L354.006168,162.978165 Z M331.157111,162.905047 L338.179311,166.102612 L354.012374,138.058199 L346.990175,134.860634 L331.157111,162.905047 Z M399.677512,162.96785 L406.699712,166.165415 L422.532775,138.121002 L415.510576,134.923437 L399.677512,162.96785 Z M490.922477,69.3325842 L497.944676,72.5301497 L513.77774,44.4857367 L506.75554,41.2881712 L490.922477,69.3325842 Z M468.059433,69.3041355 L475.081632,72.501701 L490.914696,44.457288 L483.892496,41.2597225 L468.059433,69.3041355 Z M468.138445,100.616737 L475.160645,103.814302 L490.993708,75.7698891 L483.971509,72.5723236 L468.138445,100.616737 Z M262.651809,194.18687 L269.674009,197.384435 L285.507072,169.340022 L278.484873,166.142457 L262.651809,194.18687 Z M239.873799,225.339593 L246.895998,228.537158 L262.729062,200.492745 L255.706862,197.29518 L239.873799,225.339593 Z M216.968887,225.385427 L223.991086,228.582992 L239.82415,200.538579 L232.80195,197.341014 L216.968887,225.385427 Z M194.190876,256.538066 L201.213076,259.735632 L217.046139,231.691219 L210.02394,228.493653 L194.190876,256.538066 Z M399.666026,194.156009 L406.688226,197.353574 L422.521289,169.309161 L415.49909,166.111596 L399.666026,194.156009 Z M422.444037,163.003369 L429.466236,166.200935 L445.2993,138.156522 L438.2771,134.958956 L422.444037,163.003369 Z M194.17939,287.726142 L201.20159,290.923708 L217.034653,262.879295 L210.012454,259.681729 L194.17939,287.726142 Z M239.862405,256.527668 L246.884605,259.725234 L262.717668,231.680821 L255.695469,228.483255 L239.862405,256.527668 Z M216.957401,256.573502 L223.9796,259.771068 L239.812664,231.726655 L232.790464,228.529089 L216.957401,256.573502 Z M308.334732,162.988479 L315.356931,166.186045 L331.189995,138.141632 L324.167795,134.944066 L308.334732,162.988479 Z M285.485675,162.915361 L292.507874,166.112927 L308.340938,138.068514 L301.318738,134.870948 L285.485675,162.915361 Z M262.663388,162.998711 L269.685587,166.196276 L285.518651,138.151863 L278.496451,134.954298 L262.663388,162.998711 Z M262.617259,287.75143 L269.639458,290.948995 L285.472522,262.904582 L278.450322,259.707017 L262.617259,287.75143 Z M239.808958,287.790027 L246.831158,290.987592 L262.664221,262.943179 L255.642022,259.745614 L239.808958,287.790027 Z M216.945915,287.761661 L223.968114,290.959227 L239.801178,262.914814 L232.778978,259.717248 L216.945915,287.761661 Z M605.068463,350.17799 L612.090662,353.375556 L627.923726,325.331143 L620.901526,322.133577 L605.068463,350.17799 Z M582.246083,350.26134 L589.268282,353.458905 L605.101346,325.414492 L598.079147,322.216927 L582.246083,350.26134 Z M331.145533,194.093122 L338.167732,197.290688 L354.000796,169.246275 L346.978596,166.048709 L331.145533,194.093122 Z M285.545143,225.329361 L292.567342,228.526927 L308.400406,200.482514 L301.378206,197.284948 L285.545143,225.329361 Z M308.311667,225.364797 L315.333867,228.562363 L331.16693,200.51795 L324.144731,197.320384 L308.311667,225.364797 Z M331.134139,225.281364 L338.156339,228.47893 L353.989402,200.434517 L346.967203,197.236951 L331.134139,225.281364 Z M285.491696,256.591636 L292.513895,259.789202 L308.346959,231.744789 L301.324759,228.547223 L285.491696,256.591636 Z M308.300181,256.552873 L315.322381,259.750438 L331.155444,231.706025 L324.133245,228.50846 L308.300181,256.552873 Z M353.971618,256.542641 L360.993817,259.740207 L376.826881,231.695794 L369.804681,228.498228 L353.971618,256.542641 Z M331.163318,256.581322 L338.185517,259.778887 L354.018581,231.734474 L346.996381,228.536909 L331.163318,256.581322 Z M422.409486,256.567846 L429.431686,259.765411 L445.264749,231.720998 L438.24255,228.523433 L422.409486,256.567846 Z M399.642962,256.532327 L406.665161,259.729892 L422.498225,231.685479 L415.476025,228.487914 L399.642962,256.532327 Z M376.571132,256.578077 L383.593332,259.775643 L399.426395,231.73123 L392.404196,228.533664 L376.571132,256.578077 Z M376.559554,287.76632 L383.581753,290.963885 L399.414817,262.919472 L392.392617,259.721907 L376.559554,287.76632 Z M353.960039,287.730883 L360.982239,290.928449 L376.815302,262.884036 L369.793103,259.68647 L353.960039,287.730883 Z M422.286845,381.445007 L429.309045,384.642572 L445.142108,356.598159 L438.119909,353.400594 L422.286845,381.445007 Z M513.629719,381.424461 L520.651918,384.622026 L536.484982,356.577613 L529.462782,353.380048 L513.629719,381.424461 Z M490.780569,381.351343 L497.802769,384.548908 L513.635832,356.504495 L506.613633,353.30693 L490.780569,381.351343 Z M536.563253,381.459897 L543.585452,384.657462 L559.418516,356.613049 L552.396317,353.415484 L536.563253,381.459897 Z M559.468165,381.414146 L566.490365,384.611711 L582.323428,356.567298 L575.301229,353.369733 L559.468165,381.414146 Z M490.936093,412.539501 L497.958293,415.737067 L513.791356,387.692654 L506.769157,384.495089 L490.936093,412.539501 Z M331.143958,443.723002 L338.166158,446.920568 L353.999221,418.876155 L346.977022,415.678589 L331.143958,443.723002 Z M262.640323,225.375029 L269.662523,228.572594 L285.495586,200.528181 L278.473387,197.330616 L262.640323,225.375029 Z M353.99459,194.166324 L361.016789,197.363889 L376.849853,169.319476 L369.827653,166.121911 L353.99459,194.166324 Z M353.983196,225.354399 L361.005396,228.551965 L376.838459,200.507552 L369.81626,197.309986 L353.983196,225.354399 Z M376.761207,194.201676 L383.783406,197.399242 L399.61647,169.354829 L392.59427,166.157263 L376.761207,194.201676 Z M376.749536,225.390002 L383.771735,228.587567 L399.604799,200.543154 L392.582599,197.345589 L376.749536,225.390002 Z M308.323153,194.176638 L315.345353,197.374204 L331.178416,169.329791 L324.156217,166.132225 L308.323153,194.176638 Z M285.474189,194.103354 L292.496388,197.300919 L308.329452,169.256506 L301.307252,166.058941 L285.474189,194.103354 Z M513.785243,412.612536 L520.807442,415.810102 L536.640506,387.765689 L529.618306,384.568123 L513.785243,412.612536 Z M399.487438,225.344168 L406.509637,228.541733 L422.342701,200.49732 L415.320501,197.299755 L399.487438,225.344168 Z M536.407729,350.271655 L543.429929,353.46922 L559.262992,325.424807 L552.240793,322.227242 L536.407729,350.271655 Z M513.808029,350.236302 L520.830229,353.433867 L536.663292,325.389454 L529.641093,322.191889 L513.808029,350.236302 Z M559.229924,350.188222 L566.252123,353.385787 L582.085187,325.341374 L575.062987,322.143809 L559.229924,350.188222 Z M582.223018,412.637907 L589.245218,415.835473 L605.078281,387.79106 L598.056082,384.593494 L582.223018,412.637907 Z M582.234504,381.449582 L589.256704,384.647148 L605.089767,356.602735 L598.067568,353.405169 L582.234504,381.449582 Z M559.456587,412.602222 L566.478786,415.799787 L582.31185,387.755374 L575.28965,384.557809 L559.456587,412.602222 Z M536.551674,412.647973 L543.573874,415.845538 L559.406937,387.801125 L552.384738,384.60356 L536.551674,412.647973 Z M353.906592,318.993242 L360.928792,322.190807 L376.761855,294.146394 L369.739656,290.948829 L353.906592,318.993242 Z M354.027566,350.231644 L361.049765,353.429209 L376.882829,325.384796 L369.860629,322.187231 L354.027566,350.231644 Z M490.943874,256.58598 L497.966073,259.783545 L513.799137,231.739132 L506.776937,228.541567 L490.943874,256.58598 Z M490.932481,287.774139 L497.95468,290.971704 L513.787744,262.927291 L506.765544,259.729726 L490.932481,287.774139 Z M490.920995,318.962381 L497.943194,322.159946 L513.776258,294.115533 L506.754058,290.917968 L490.920995,318.962381 Z M376.747961,475.019715 L383.77016,478.217281 L399.603224,450.172868 L392.581024,446.975302 L376.747961,475.019715 Z M399.65278,474.974048 L406.67498,478.171613 L422.508043,450.1272 L415.485844,446.929635 L399.65278,474.974048 Z M422.41949,475.009484 L429.441689,478.207049 L445.274753,450.162636 L438.252554,446.965071 L422.41949,475.009484 Z M353.981436,474.984279 L361.003636,478.181845 L376.836699,450.137432 L369.8145,446.939866 L353.981436,474.984279 Z M331.13238,474.911161 L338.154579,478.108727 L353.987643,450.064314 L346.965443,446.866748 L331.13238,474.911161 Z M445.325977,225.334019 L452.348176,228.531585 L468.18124,200.487172 L461.15904,197.289606 L445.325977,225.334019 Z M445.27253,256.596295 L452.294729,259.79386 L468.127793,231.749447 L461.105594,228.551882 L445.27253,256.596295 Z M468.080923,256.557531 L475.103122,259.755097 L490.936186,231.710684 L483.913986,228.513118 L468.080923,256.557531 Z M399.589607,287.794768 L406.611807,290.992334 L422.44487,262.947921 L415.422671,259.750355 L399.589607,287.794768 Z M467.980513,287.745773 L475.002712,290.943339 L490.835776,262.898926 L483.813577,259.70136 L467.980513,287.745773 Z M445.260951,287.784537 L452.283151,290.982102 L468.116214,262.937689 L461.094015,259.740124 L445.260951,287.784537 Z M422.398,287.755922 L429.4202,290.953487 L445.253263,262.909074 L438.231064,259.711509 L422.398,287.755922 Z M376.715078,318.954478 L383.737277,322.152044 L399.570341,294.107631 L392.548141,290.910065 L376.715078,318.954478 Z M376.79409,350.266996 L383.816289,353.464562 L399.649353,325.420149 L392.627154,322.222583 L376.79409,350.266996 Z M445.249465,318.972612 L452.271665,322.170178 L468.104728,294.125765 L461.082529,290.928199 L445.249465,318.972612 Z M468.057858,318.933932 L475.080058,322.131498 L490.913121,294.087085 L483.890922,290.889519 L468.057858,318.933932 Z M445.287814,350.173332 L452.310013,353.370898 L468.143077,325.326485 L461.120877,322.128919 L445.287814,350.173332 Z M445.109318,381.361491 L452.131517,384.559056 L467.964581,356.514643 L460.942381,353.317078 L445.109318,381.361491 Z M468.136871,350.24645 L475.15907,353.444016 L490.992134,325.399603 L483.969934,322.202037 L468.136871,350.24645 Z M376.782604,381.455239 L383.804803,384.652804 L399.637867,356.608391 L392.615668,353.410826 L376.782604,381.455239 Z M399.520414,381.409488 L406.542613,384.607053 L422.375677,356.56264 L415.353477,353.365075 L399.520414,381.409488 Z M467.958282,381.434609 L474.980481,384.632175 L490.813545,356.587762 L483.791346,353.390196 L467.958282,381.434609 Z M399.675845,412.59773 L406.698044,415.795295 L422.531108,387.750882 L415.508908,384.553317 L399.675845,412.59773 Z M376.770933,412.643314 L383.793132,415.84088 L399.626196,387.796467 L392.603996,384.598901 L376.770933,412.643314 Z M445.264749,412.54965 L452.286949,415.747215 L468.120012,387.702802 L461.097813,384.505237 L445.264749,412.54965 Z M422.442369,412.633166 L429.464569,415.830731 L445.297632,387.786318 L438.275433,384.588753 L422.442369,412.633166 Z M468.113713,412.622851 L475.135913,415.820417 L490.968976,387.776004 L483.946777,384.578438 L468.113713,412.622851 Z M422.386329,318.944247 L429.408528,322.141812 L445.241592,294.097399 L438.219392,290.899834 L422.386329,318.944247 Z M422.465341,350.256848 L429.487541,353.454414 L445.320604,325.410001 L438.298405,322.212435 L422.465341,350.256848 Z M399.578121,318.982927 L406.600321,322.180493 L422.433384,294.13608 L415.411185,290.938514 L399.578121,318.982927 Z M399.616285,350.183564 L406.638484,353.381129 L422.471548,325.336716 L415.449348,322.139151 L399.616285,350.183564 Z M353.992922,443.79612 L361.015122,446.993686 L376.848185,418.949273 L369.825986,415.751707 L353.992922,443.79612 Z M376.759354,443.831556 L383.781554,447.029122 L399.614617,418.984709 L392.592418,415.787143 L376.759354,443.831556 Z M399.664359,443.785806 L406.686558,446.983371 L422.519622,418.938958 L415.497423,415.741393 L399.664359,443.785806 Z M445.335888,443.775657 L452.358088,446.973223 L468.191151,418.92881 L461.168952,415.731244 L445.335888,443.775657 Z M422.430976,443.821325 L429.453175,447.01889 L445.286239,418.974477 L438.26404,415.776912 L422.430976,443.821325 Z M490.95925,350.1631 L497.98145,353.360666 L513.814513,325.316253 L506.792314,322.118687 L490.95925,350.1631 Z M422.421065,225.379687 L429.443264,228.577253 L445.276328,200.53284 L438.254128,197.335274 L422.421065,225.379687 Z M468.092409,225.369455 L475.114608,228.567021 L490.947672,200.522608 L483.925472,197.325042 L468.092409,225.369455 Z M354.004594,412.607878 L361.026793,415.805444 L376.859857,387.761031 L369.837657,384.563465 L354.004594,412.607878 Z M354.01608,381.419719 L361.038279,384.617285 L376.871343,356.572872 L369.849143,353.375306 L354.01608,381.419719 Z M331.151739,287.769481 L338.173938,290.967046 L354.007002,262.922633 L346.984803,259.725068 L331.151739,287.769481 Z M331.976692,318.438493 L338.998892,321.636058 L354.831955,293.591645 L347.809756,290.39408 L331.976692,318.438493 Z M308.819459,318.438493 L315.841658,321.636058 L331.674722,293.591645 L324.652522,290.39408 L308.819459,318.438493 Z M218.043104,349.216308 L225.065304,352.413874 L240.898367,324.369461 L233.876168,321.171895 L218.043104,349.216308 Z M241.200338,349.216308 L248.222537,352.413874 L264.055601,324.369461 L257.033401,321.171895 L241.200338,349.216308 Z M286.588515,349.216308 L293.610714,352.413874 L309.443778,324.369461 L302.421578,321.171895 L286.588515,349.216308 Z M263.431282,349.216308 L270.453481,352.413874 L286.286545,324.369461 L279.264345,321.171895 L263.431282,349.216308 Z M331.976692,411.603773 L338.998892,414.801338 L354.831955,386.756925 L347.809756,383.55936 L331.976692,411.603773 Z M286.588515,380.825957 L293.610714,384.023522 L309.443778,355.979109 L302.421578,352.781544 L286.588515,380.825957 Z M263.431282,380.825957 L270.453481,384.023522 L286.286545,355.979109 L279.264345,352.781544 L263.431282,380.825957 Z M241.200338,411.603773 L248.222537,414.801338 L264.055601,386.756925 L257.033401,383.55936 L241.200338,411.603773 Z M241.200338,443.213421 L248.222537,446.410987 L264.055601,418.366574 L257.033401,415.169008 L241.200338,443.213421 Z M308.819459,411.603773 L315.841658,414.801338 L331.674722,386.756925 L324.652522,383.55936 L308.819459,411.603773 Z M286.588515,411.603773 L293.610714,414.801338 L309.443778,386.756925 L302.421578,383.55936 L286.588515,411.603773 Z M286.588515,443.213421 L293.610714,446.410987 L309.443778,418.366574 L302.421578,415.169008 L286.588515,443.213421 Z M263.75891,442.749508 L270.78111,445.947074 L286.614173,417.902661 L279.591974,414.705095 L263.75891,442.749508 Z M332.287092,349.091284 L339.309291,352.288849 L355.142355,324.244436 L348.120155,321.046871 L332.287092,349.091284 Z M263.431282,411.603773 L270.453481,414.801338 L286.286545,386.756925 L279.264345,383.55936 L263.431282,411.603773 Z M309.745748,349.216308 L316.767948,352.413874 L332.601011,324.369461 L325.578812,321.171895 L309.745748,349.216308 Z M308.819459,380.825957 L315.841658,384.023522 L331.674722,355.979109 L324.652522,352.781544 L308.819459,380.825957 Z M240.274048,318.438493 L247.296248,321.636058 L263.129311,293.591645 L256.107112,290.39408 L240.274048,318.438493 Z M218.043104,318.438493 L225.065304,321.636058 L240.898367,293.591645 L233.876168,290.39408 L218.043104,318.438493 Z M309.397463,286.673957 L316.419663,289.871522 L332.252726,261.827109 L325.230527,258.629544 L309.397463,286.673957 Z M331.976692,380.825957 L338.998892,384.023522 L354.831955,355.979109 L347.809756,352.781544 L331.976692,380.825957 Z" id="Combined-Shape"></path>
        </g>
    </g>
</svg>