<svg xmlns="http://www.w3.org/2000/svg" style="width:0; height:0; visibility:hidden; position:absolute;">
  <symbol id="api" viewBox="0 0 24 24">
    <path d="M18.5 6h5c.3 0 .5-.2.5-.5v-5c0-.3-.2-.5-.5-.5h-5c-.3 0-.5.2-.5.5v2c-3.4.3-6 3.1-6 6.5v3H6V9.5c0-.3-.2-.5-.5-.5h-5c-.3 0-.5.2-.5.5v5c0 .3.2.5.5.5h5c.3 0 .5-.2.5-.5V13h6v2c0 3.4 2.6 6.2 6 6.5v2c0 .3.2.5.5.5h5c.3 0 .5-.2.5-.5v-5c0-.3-.2-.5-.5-.5h-5c-.3 0-.5.2-.5.5v2c-2.8-.3-5-2.6-5-5.5v-2h5v1.5c0 .3.2.5.5.5h5c.3 0 .5-.2.5-.5v-5c0-.3-.2-.5-.5-.5h-5c-.3 0-.5.2-.5.5V12h-5V9c0-2.9 2.2-5.2 5-5.5v2c0 .3.2.5.5.5zM5 14H1v-4h4v4zm14 5h4v4h-4v-4zm0-9h4v4h-4v-4zm0-9h4v4h-4V1z"/>
  </symbol>
  <symbol id="audit" viewBox="0 0 24 24">
    <path d="M12 5c-3.6 0-6.5 2.9-6.5 6.5 0 2.9 1.9 5.4 4.5 6.2v.8c0 .3.2.5.5.5h3c.3 0 .5-.2.5-.5v-.8c2.6-.8 4.5-3.3 4.5-6.2C18.5 7.9 15.6 5 12 5zm1.4 11.8c-.2.1-.4.3-.4.5v.7h-2v-.7c0-.2-.2-.4-.4-.5-2.4-.5-4.1-2.8-4.1-5.3C6.5 8.5 9 6 12 6s5.5 2.5 5.5 5.5c0 2.5-1.7 4.8-4.1 5.3zm-.9 5.2h-1c-.3 0-.5.2-.5.5s.2.5.5.5h1c.3 0 .5-.2.5-.5s-.2-.5-.5-.5zm1-2h-3c-.3 0-.5.2-.5.5s.2.5.5.5h3c.3 0 .5-.2.5-.5s-.2-.5-.5-.5zM12 4c.3 0 .5-.2.5-.5v-2c0-.3-.2-.5-.5-.5s-.5.2-.5.5v2c0 .3.2.5.5.5zm10 7h-2c-.3 0-.5.2-.5.5s.2.5.5.5h2c.3 0 .5-.2.5-.5s-.2-.5-.5-.5zM4 11H2c-.3 0-.5.2-.5.5s.2.5.5.5h2c.3 0 .5-.2.5-.5S4.3 11 4 11zm1.9-4.8c.1.1.3.1.4.1s.3 0 .4-.1c.2-.2.2-.5 0-.7L4.6 3.3c-.2-.2-.6-.2-.8 0-.2.2-.2.5 0 .7l2.1 2.2zm11.8.1c.1 0 .3 0 .4-.1l2.1-2.1c.2-.2.2-.5 0-.7-.2-.2-.5-.2-.7 0l-2.1 2.1c-.2.2-.2.5 0 .7 0 .1.2.1.3.1z"/>
  </symbol>
  <symbol id="chevron-left" viewBox="0 0 24 24">
    <path d="M6.3 12L18.8.9c.2-.2.2-.5 0-.7-.2-.2-.5-.2-.7 0l-13 11.5s-.1.2-.1.3.1.3.2.4l13 11.5c.1.1.2.1.3.1.1 0 .3-.1.4-.2.2-.2.2-.5 0-.7L6.3 12z"/>
  </symbol>
  <symbol id="chevron-right" viewBox="0 0 24 24">
    <path d="M18.8 11.6L5.8.1c-.2-.2-.5-.1-.7.1-.2.2-.1.5.1.7L17.7 12 5.2 23.1c-.2.2-.2.5 0 .7 0 .1.2.2.3.2.1 0 .2 0 .3-.1l13-11.5c.1-.1.2-.2.2-.4s-.1-.3-.2-.4z"/>
  </symbol>
  <symbol id="cloud-double" viewBox="0 0 24 24">
    <path d="M16.5 24h-11c-3 0-5.5-2.5-5.5-5.5 0-2.7 1.9-5 4.6-5.4C5 10.2 7.5 8 10.5 8c2.3 0 4.5 1.4 5.4 3.5 1.2 0 2.3.6 3 1.6.6.9.7 1.9.4 2.9 1 .9 1.7 2.1 1.7 3.5 0 2.5-2 4.5-4.5 4.5zm-6-15c-2.6 0-4.8 2-5 4.6 0 .2-.2.4-.5.4-2.3.2-4 2.1-4 4.5C1 21 3 23 5.5 23h11c1.9 0 3.5-1.6 3.5-3.5 0-1.2-.6-2.2-1.5-2.9-.2-.1-.3-.4-.2-.6.3-.8.3-1.6-.2-2.4-.5-.8-1.4-1.2-2.4-1.1-.2 0-.4-.1-.5-.3-.8-1.9-2.7-3.2-4.7-3.2z"/><path d="M22 15.1c-.1 0-.3-.1-.4-.2-.2-.2-.1-.5.1-.7.8-.7 1.3-1.7 1.3-2.7 0-1.2-.6-2.2-1.5-2.9-.2-.1-.3-.4-.2-.6.4-.8.3-1.8-.3-2.5-.5-.7-1.4-1.1-2.3-1-.2 0-.4-.1-.5-.3-.8-2-2.6-3.2-4.7-3.2-2.6 0-4.8 2-5 4.6 0 .2-.2.4-.5.4-2.3.2-4 2.1-4 4.5 0 .3-.2.5-.5.5s-.5-.2-.5-.5c0-2.7 1.9-5 4.6-5.4C8 2.2 10.5 0 13.5 0 15.8 0 18 1.4 19 3.5c1.1 0 2.2.5 2.9 1.4.7.9.9 2.1.5 3.1 1 .9 1.6 2.1 1.6 3.5s-.6 2.6-1.7 3.5c-.1 0-.2.1-.3.1z"/>
  </symbol>
  <symbol id="cloud" viewBox="0 0 24 24">
    <path d="M21.9 10.9c.3-1.1.1-2.3-.6-3.2-.8-1.1-2-1.7-3.3-1.7-1-2.4-3.4-4-6-4-3.4 0-6.2 2.7-6.5 6-3.1.3-5.5 2.9-5.5 6 0 3.3 2.7 6 6 6h13c2.8 0 5-2.2 5-5 0-1.6-.8-3.1-2.1-4.1zM19 19H6c-2.8 0-5-2.2-5-5s2.2-5 5-5c.3 0 .5-.2.5-.5C6.5 5.5 9 3 12 3c2.3 0 4.4 1.5 5.2 3.7.1.2.3.3.5.3 1.1-.1 2.1.4 2.7 1.2.6.9.8 1.8.4 2.8-.1.2 0 .5.2.6 1.2.7 2 2 2 3.4 0 2.2-1.8 4-4 4z"/>
  </symbol>
  <symbol id="content-management" viewBox="0 0 24 24">
    <path d="M7.8 9l5 2h.4l5-2c.2-.1.3-.3.3-.5V1.8c0-.1-.1-.1-.1-.2h-.1s-.1 0-.1-.1l-5-1.5h-.3l-5 1.5s-.1 0-.1.1c-.1 0-.1.1-.1.2v6.7c-.2.2-.1.4.1.5zm.7-6.3l4 1.2v5.9l-4-1.6V2.7zm9 5.5l-4 1.6V3.9l4-1.2v5.5zM13 1l3.3 1-3.1.9h-.4L9.7 2 13 1zm10.5 11.5c0-.1 0-.1-.1-.2l-.1-.1h-.1l-4-1.5h-.4l-4 1.5h-.1l-.1.1c0 .1-.1.1-.1.2V17c0 .2.1.4.3.4l4 2h.4l4-2c.2-.1.3-.3.3-.4v-4.5zm-4.5-1l2.6 1-2.6 1-2.6-1 2.6-1zm-3.5 1.7l3 1.1v3.8l-3-1.5v-3.4zm7 3.5l-3 1.5v-3.8l3-1.1v3.4zm-9.1-3.4c0-.1-.1-.1-.1-.2 0 0-.1 0-.1-.1l-6-2h-.3l-6 2H.8c-.1 0-.1.1-.1.1v8.2c0 .2.1.4.3.5l6 2h.4l6-2c.2-.1.3-.3.3-.5v-8c-.2.1-.2 0-.3 0zM7 12l4.4 1.5L7 15l-4.4-1.5L7 12zm-5.5 2.2l5 1.7v6.9l-5-1.7v-6.9zm11 6.9l-5 1.7v-6.9l5-1.7v6.9z"/>
  </symbol>
  <symbol id="day-cloud" viewBox="0 0 24 24">
    <path d="M9.5 2c.3 0 .5-.2.5-.5v-1c0-.3-.2-.5-.5-.5S9 .2 9 .5v1c0 .3.2.5.5.5zm-6 2c.1 0 .3 0 .4-.1.1-.2.1-.6 0-.8l-1-1c-.2-.1-.6-.1-.8 0-.1.2-.1.6 0 .8l1 1c.1.1.3.1.4.1zm12 0c.1 0 .3 0 .4-.1l1-1c.2-.2.2-.5 0-.7-.2-.2-.5-.2-.7 0l-1 1c-.2.2-.2.5 0 .7 0 .1.2.1.3.1zm-14 5h-1c-.3 0-.5.2-.5.5s.2.5.5.5h1c.3 0 .5-.2.5-.5S1.8 9 1.5 9zm20.8 7c.3-1 .2-2.1-.4-2.9-.7-1-1.8-1.6-3-1.6-.9-2.2-3-3.5-5.4-3.5-2.9 0-5.5 2.2-5.9 5-2.7.5-4.6 2.8-4.6 5.5 0 3 2.5 5.5 5.5 5.5h11c2.5 0 4.5-2 4.5-4.5 0-1.4-.6-2.7-1.7-3.5zm-2.8 7h-11C6 23 4 21 4 18.5c0-2.3 1.8-4.3 4.1-4.5.2 0 .4-.2.5-.5C8.7 11 10.9 9 13.5 9c2.1 0 3.9 1.3 4.7 3.2.1.2.3.4.5.3 1-.1 1.9.3 2.4 1.1.5.7.5 1.6.2 2.4-.1.2 0 .5.2.6 1 .7 1.5 1.7 1.5 2.9 0 1.9-1.6 3.5-3.5 3.5zM3.4 11.6c0 .2.2.4.4.4H4c.3-.1.4-.4.3-.6-.2-.7-.3-1.3-.3-1.9C4 6.5 6.5 4 9.5 4c1.6 0 3.1.7 4.1 1.9.2.2.5.2.7 0 .2-.2.2-.5 0-.7C13.1 3.8 11.4 3 9.5 3 5.9 3 3 5.9 3 9.5c0 .7.1 1.4.4 2.1z"/>
  </symbol>
  <symbol id="day-rain" viewBox="0 0 24 24">
    <path d="M3.4 3.4c.2-.2.2-.5 0-.7l-.8-.8c-.2-.2-.5-.2-.7 0s-.2.5 0 .7l.8.8c0 .1.2.1.3.1s.3 0 .4-.1zm8.6.1c.1 0 .3 0 .4-.1l.8-.8c.2-.2.2-.5 0-.7-.2-.2-.5-.2-.7 0l-.8.8c-.2.2-.2.5 0 .7 0 .1.2.1.3.1zM22.3 13c.3-1.1.1-2.2-.6-3.1-.6-.9-1.6-1.4-2.7-1.4C18 6.4 15.8 5 13.5 5c-3 0-5.5 2.2-5.9 5.1-2.7.4-4.6 2.7-4.6 5.4 0 1.9 1 3.7 2.7 4.7.1 0 .2.1.3.1.2 0 .3-.1.4-.2.1-.2.1-.5-.2-.7-1.4-.8-2.2-2.3-2.2-3.9 0-2.3 1.8-4.3 4.1-4.5.2 0 .4-.2.5-.5C8.7 8 10.9 6 13.5 6c2.1 0 3.9 1.3 4.7 3.2.1.2.3.3.5.3.9-.1 1.8.3 2.3 1 .5.7.7 1.7.3 2.5-.1.2 0 .5.2.6 1 .7 1.5 1.7 1.5 2.9 0 1.1-.5 2.1-1.3 2.7-.2.2-.3.5-.1.7.2.2.5.3.7.1 1.1-.9 1.7-2.1 1.7-3.5s-.6-2.6-1.7-3.5z"/><path d="M10.4 18.1c-.2-.2-.5-.2-.7 0l-5 5c-.2.2-.2.5 0 .7 0 .2.2.2.3.2s.3 0 .4-.1l5-5c.1-.2.1-.6 0-.8zm5 0c-.2-.2-.5-.2-.7 0l-5 5c-.2.2-.2.5 0 .7 0 .2.2.2.3.2s.3 0 .4-.1l5-5c.1-.2.1-.6 0-.8zm4.2 0l-5 5c-.2.2-.2.5 0 .7.1.2.3.2.4.2s.3 0 .4-.1l5-5c.2-.2.2-.5 0-.7-.2-.2-.6-.2-.8-.1zM3.8 10c.1.1.3.2.4.2.1 0 .2 0 .3-.1.2-.1.2-.4.1-.7-.4-.5-.6-1.2-.6-1.9C4 5.6 5.6 4 7.5 4c.8 0 1.6.3 2.2.8.2.2.5.1.7-.1.2-.2.1-.5-.1-.7-.8-.6-1.8-1-2.8-1C5 3 3 5 3 7.5c0 .9.3 1.8.8 2.5zM1.5 6h-1c-.3 0-.5.2-.5.5s.2.5.5.5h1c.3 0 .5-.2.5-.5S1.8 6 1.5 6zm6-4c.3 0 .5-.2.5-.5v-1c0-.3-.2-.5-.5-.5S7 .2 7 .5v1c0 .3.2.5.5.5z"/>
  </symbol>
  <symbol id="day-thunder-storm" viewBox="0 0 24 24">
    <path d="M10.4 18.1c-.2-.2-.5-.2-.7 0l-2.5 2.5c-.2.2-.2.4-.2.6.1.2.3.3.5.3h1.3l-1.6 1.6c-.2.2-.2.5 0 .7 0 .1.2.2.3.2.1 0 .3 0 .4-.1l2.5-2.5c.1-.1.2-.4.1-.5-.1-.2-.3-.3-.5-.3H8.7l1.6-1.7c.2-.2.2-.6.1-.8zm5 0c-.2-.2-.5-.2-.7 0l-2.5 2.5c-.2.2-.2.4-.2.6.1.2.3.3.5.3h1.3l-1.6 1.6c-.2.2-.2.5 0 .7.1.1.2.1.4.1.1 0 .3 0 .4-.1l2.5-2.5c.1-.1.2-.4.1-.5-.1-.2-.3-.3-.5-.3h-1.3l1.6-1.7c.1-.1.1-.5 0-.7zm5 0c-.2-.2-.5-.2-.7 0l-2.5 2.5c-.2.2-.2.4-.2.6.1.2.3.3.5.3h1.3l-1.6 1.6c-.2.2-.2.5 0 .7.1.1.2.1.4.1.1 0 .3 0 .4-.1l2.5-2.5c.1-.1.2-.4.1-.5-.1-.2-.3-.3-.5-.3h-1.3l1.6-1.7c.1-.1.1-.5 0-.7zM3.4 3.4c.2-.2.2-.5 0-.7l-.8-.8c-.2-.2-.5-.2-.7 0s-.2.5 0 .7l.8.8c0 .1.2.1.3.1s.3 0 .4-.1zm8.6.1c.1 0 .3 0 .4-.1l.8-.8c.2-.2.2-.5 0-.7s-.5-.2-.7 0l-.8.8c-.2.2-.2.5 0 .7 0 .1.2.1.3.1z"/><path d="M22.3 13c.3-1.1.1-2.2-.6-3.1-.6-.9-1.6-1.4-2.7-1.4C18 6.4 15.8 5 13.5 5c-3 0-5.5 2.2-5.9 5.1-2.7.4-4.6 2.7-4.6 5.4 0 1.9 1 3.7 2.7 4.7.1 0 .2.1.3.1.2 0 .3-.1.4-.2.1-.2.1-.5-.2-.7-1.4-.8-2.2-2.3-2.2-3.9 0-2.3 1.8-4.3 4.1-4.5.2 0 .4-.2.5-.5C8.7 8 10.9 6 13.5 6c2.1 0 3.9 1.3 4.7 3.2.1.2.3.3.5.3.9-.1 1.8.3 2.3 1 .5.7.7 1.7.3 2.5-.1.2 0 .5.2.6 1 .7 1.5 1.7 1.5 2.9 0 1.1-.5 2.1-1.3 2.7-.2.2-.3.5-.1.7.2.2.5.3.7.1 1.1-.9 1.7-2.1 1.7-3.5s-.6-2.6-1.7-3.5zM3.8 10c.1.1.3.2.4.2.1 0 .2 0 .3-.1.2-.1.2-.4.1-.7-.4-.5-.6-1.2-.6-1.9C4 5.6 5.6 4 7.5 4c.8 0 1.6.3 2.2.8.2.2.5.1.7-.1.2-.2.1-.5-.1-.7-.8-.6-1.8-1-2.8-1C5 3 3 5 3 7.5c0 .9.3 1.8.8 2.5zM1.5 6h-1c-.3 0-.5.2-.5.5s.2.5.5.5h1c.3 0 .5-.2.5-.5S1.8 6 1.5 6zm6-4c.3 0 .5-.2.5-.5v-1c0-.3-.2-.5-.5-.5S7 .2 7 .5v1c0 .3.2.5.5.5z"/>
  </symbol>
  <symbol id="ecommerce" viewBox="0 0 24 24">
    <path d="M23.5 1.8h-3c-.2 0-.4.2-.5.4l-1.2 5.1-3.5-3.4c-.2-.2-.5-.2-.7 0l-.9.9H9c-.3 0-.5.2-.5.5v2.5H6.3L3.5 1.4l-.3-.3h-.4L.3 2.3c-.3.2-.4.5-.3.7l2.2 4.8H1c-.2 0-.3.1-.4.2-.1.1-.1.3-.1.5l3 9.1c.1.2.3.3.5.3h12.3l-.2 1H5.5c-1.1 0-2 .9-2 2s.9 2 2 2 2-.9 2-2c0-.4-.1-.7-.3-1h7.6c-.2.3-.3.6-.3 1 0 1.1.9 2 2 2s2-.9 2-2c0-.9-.6-1.6-1.4-1.9l.3-1.4c0-.1.1-.2.1-.3l3.4-14.6h2.6c.3 0 .5-.2.5-.5s-.2-.4-.5-.4zM15 5l2.9 2.8h-5.7l2.1-2.1.7-.7zm-5.5.8h3.3l-2 2H9.5v-2zM1.2 3l1.6-.8 2.5 5.5h-2L1.2 3zm3.2 13.9L1.7 8.8h16.8l-1.9 8.1H4.4zm2.1 4c0 .6-.4 1-1 1s-1-.4-1-1 .4-1 1-1 1 .4 1 1zm11 0c0 .6-.4 1-1 1s-1-.4-1-1 .4-1 1-1 1 .4 1 1z"/>
  </symbol>
  <symbol id="elearning" viewBox="0 0 24 24">
    <path d="M23 2.5h-1.5V2c0-.3-.2-.5-.5-.5h-4c-.3 0-.5.2-.5.5v.5H15c-1.4 0-2.4.6-3 1.8-.6-1.1-1.6-1.8-3-1.8H1c-.3 0-.5.2-.5.5v16c0 .3.2.5.5.5h8c1.7 0 2.5.8 2.5 2.5 0 .3.2.5.5.5s.5-.2.5-.5c0-1.7.8-2.5 2.5-2.5h8c.3 0 .5-.2.5-.5V3c0-.3-.2-.5-.5-.5zm-5.5 0h3v6.8l-1.1-1.1c-.1-.2-.3-.2-.4-.2s-.3 0-.4.1l-1.1 1.1V2.5zM9 18.5H1.5v-15H9c2.3 0 2.5 2.1 2.5 3v12.8c-.6-.5-1.4-.8-2.5-.8zm13.5 0H15c-1.1 0-1.9.3-2.5.8V6.5c0-.9.2-3 2.5-3h1.5v7c0 .2.1.4.3.5.2.1.4 0 .5-.1L19 9.2l1.6 1.6c.1.1.2.1.4.1h.2c.2-.1.3-.3.3-.5v-7h1v15.1z"/>
  </symbol>
  <symbol id="facebook" viewBox="0 0 32 32">
    <path d="M23.484 5.308H20.67c-1.027 0-1.72.23-2.079.692-.358.462-.537 1.154-.537 2.077v3.635h5.25l-.698 5.692h-4.552V32H12.57V17.404H8v-5.692h4.57V7.519c0-2.384.621-4.234 1.864-5.548C15.676.657 17.33 0 19.398 0c1.756 0 3.118.077 4.086.23v5.078z"/>
  </symbol>
  <symbol id="fintech" viewBox="0 0 24 24">
    <path d="M10 12c-5.4 0-9-1.8-9-3.5v-2C2.6 8 6 9 10 9s7.4-1 9-2.5V9c0 .3.2.5.5.5s.5-.2.5-.5V4.5C20 2 15.6 0 10 0S0 2 0 4.5v13c0 2.4 3.8 4.3 9 4.5.3 0 .5-.2.5-.5S9.3 21 9 21c-4.4-.2-8-1.8-8-3.5V15c1.4 1.3 4.1 2.2 7.5 2.5.3 0 .5-.2.5-.5s-.2-.5-.5-.5C3.8 16.2 1 14.5 1 13v-2.5C2.6 12 6 13 10 13c.3 0 .5-.2.5-.5s-.2-.5-.5-.5zm0-11c5.3 0 9 1.8 9 3.5S15.3 8 10 8 1 6.2 1 4.5 4.7 1 10 1z"/><path d="M17.5 11c-3.6 0-6.5 2.9-6.5 6.5s2.9 6.5 6.5 6.5 6.5-2.9 6.5-6.5-2.9-6.5-6.5-6.5zm0 12c-3 0-5.5-2.5-5.5-5.5s2.5-5.5 5.5-5.5 5.5 2.5 5.5 5.5-2.5 5.5-5.5 5.5z"/><path d="M17.5 15.2c.5 0 .9.4.9.9 0 .3.2.5.5.5s.5-.2.5-.5c0-.9-.6-1.6-1.4-1.8v-.6c0-.3-.2-.5-.5-.5s-.5.2-.5.5v.6c-.8.2-1.4.9-1.4 1.8 0 1.1.8 1.9 1.9 1.9.5 0 .9.4.9.9s-.4.9-.9.9-.9-.4-.9-.9c0-.3-.2-.5-.5-.5s-.5.2-.5.5c0 .9.6 1.6 1.4 1.8v.5c0 .3.2.5.5.5s.5-.2.5-.5v-.5c.8-.2 1.4-.9 1.4-1.8 0-1.1-.8-1.9-1.9-1.9-.5 0-.9-.4-.9-.9s.4-.9.9-.9z"/>
  </symbol>
  <symbol id="github" viewBox="0 0 32 32">
    <path d="M28.948 25.145c-2.035 2.756-4.663 4.663-7.886 5.721-.375.069-.649.02-.822-.144a.818.818 0 0 1-.26-.619v-4.35c0-1.334-.362-2.31-1.084-2.928a14.403 14.403 0 0 0 2.135-.371 8.56 8.56 0 0 0 1.959-.804 5.81 5.81 0 0 0 1.687-1.371c.451-.543.82-1.265 1.104-2.165.285-.9.427-1.935.427-3.104 0-1.663-.548-3.079-1.646-4.247.514-1.25.459-2.653-.166-4.206-.39-.124-.952-.048-1.688.227-.736.274-1.375.577-1.916.907L20 8.186a14.93 14.93 0 0 0-4-.536 14.93 14.93 0 0 0-4 .536 18.513 18.513 0 0 0-.885-.557c-.368-.22-.948-.485-1.74-.794-.792-.31-1.389-.402-1.792-.278-.61 1.553-.66 2.955-.146 4.206-1.097 1.168-1.645 2.584-1.645 4.247 0 1.169.142 2.2.427 3.093.284.894.65 1.615 1.093 2.165A5.599 5.599 0 0 0 8.99 21.65a8.56 8.56 0 0 0 1.958.804c.632.165 1.344.288 2.135.37-.555.496-.895 1.204-1.02 2.125-.292.137-.605.24-.938.309-.333.069-.73.103-1.188.103-.458 0-.913-.148-1.364-.443-.451-.296-.837-.725-1.156-1.289a3.34 3.34 0 0 0-1.01-1.072c-.41-.275-.754-.44-1.032-.495L4.958 22c-.291 0-.493.031-.604.093-.11.062-.146.14-.104.237.042.096.104.193.187.289.084.096.174.178.271.247l.146.103c.306.138.608.399.906.784.299.385.518.735.657 1.051l.208.475c.18.522.486.945.917 1.268.43.323.896.529 1.396.618.5.09.982.138 1.447.145.466.006.851-.018 1.157-.073l.479-.082c0 .522.003 1.134.01 1.835l.01 1.113c0 .248-.09.454-.27.619-.18.165-.458.213-.834.144-3.222-1.058-5.85-2.965-7.885-5.721C1.017 22.388 0 19.285 0 15.835c0-2.873.715-5.522 2.146-7.948a15.847 15.847 0 0 1 5.823-5.763C10.42.708 13.097 0 16 0c2.903 0 5.58.708 8.031 2.124a15.847 15.847 0 0 1 5.823 5.763C31.284 10.313 32 12.962 32 15.835c0 3.45-1.017 6.553-3.052 9.31z"/>
  </symbol>
  <symbol id="instagram" viewBox="0 0 32 32">
    <path d="M16 2.884c4.272 0 4.779.016 6.467.093 4.336.198 6.361 2.255 6.558 6.559.078 1.687.092 2.193.092 6.465 0 4.274-.016 4.779-.092 6.466-.198 4.3-2.218 6.361-6.558 6.558-1.688.078-2.192.094-6.467.094-4.272 0-4.779-.016-6.465-.094-4.347-.198-6.362-2.265-6.559-6.56-.077-1.686-.093-2.192-.093-6.465 0-4.272.017-4.777.093-6.465.199-4.303 2.219-6.362 6.559-6.559 1.688-.076 2.193-.092 6.465-.092zM16 0c-4.345 0-4.89.019-6.596.096C3.594.363.364 3.586.097 9.403.02 11.11 0 11.655 0 16c0 4.345.019 4.89.096 6.597.267 5.811 3.49 9.04 9.307 9.307C11.11 31.981 11.655 32 16 32c4.345 0 4.89-.019 6.597-.096 5.806-.267 9.043-3.49 9.306-9.307C31.98 20.891 32 20.345 32 16c0-4.345-.019-4.89-.096-6.596-.261-5.805-3.49-9.04-9.305-9.307C20.89.02 20.345 0 16 0zm0 7.784a8.217 8.217 0 0 0 0 16.433 8.217 8.217 0 0 0 0-16.433zm0 13.55a5.333 5.333 0 1 1 0-10.667 5.334 5.334 0 0 1 0 10.666zM24.541 5.54a1.92 1.92 0 1 0 0 3.842 1.92 1.92 0 0 0 0-3.842z"/>
  </symbol>
  <symbol id="loading" viewBox="0 0 24 24">
    <path d="M20.3 8.6c-.2-.2-.5-.1-.7.1l-1.9 4c-.1.2 0 .4.2.6.2.1.4 0 .6-.2l1.5-2.9c.9 4-1.3 8.1-5.2 9.5-.3.1-.3.3-.3.6.1.3.3.3.6.3 4.3-1.5 6.7-5.8 5.9-10.2l2.2 2.1c.2.2.5.1.6-.1.2-.2.1-.4-.1-.6l-3.4-3.2zm-2.6-2.5c.2.2.5.1.6 0 .2-.2.1-.4 0-.6C15 2.3 10 2.1 6.5 4.7l.9-2.9c.1-.3 0-.4-.3-.5-.3-.1-.5 0-.6.3L5.2 5.9c0 .3.2.6.4.6h4.5c.3 0 .4-.2.4-.4 0-.3-.2-.4-.4-.4l-3.3-.1c3.3-2.5 7.9-2.4 10.9.5zM8 16.4c-.1-.3-.4-.3-.6-.1-.3.1-.3.4-.1.6L9 19.7c-3.8-1.5-6-5.6-5-9.6.1-.3 0-.4-.3-.5-.3-.1-.6.1-.7.3-1.1 4.5 1.2 8.8 5.2 10.6l-2.9.7c-.3 0-.4.3-.3.6 0 .3.3.4.6.3l4.4-1c.3-.1.4-.4.3-.6L8 16.4z"/>
  </symbol>
  <symbol id="logo" viewBox="0 0 94 34">
    <path d="M43.509 30.51L58.974.007l6.868 3.482-15.465 30.503zm-17.833-.03L41.141-.023l6.868 3.482-15.465 30.503zM78.4 21.8h4.7c6.9 0 10.6-4.9 10.6-10s-3.7-10-10.6-10H70.8V33h7.6V21.8zm0-13.3h4.3c2.1 0 3.3 1.5 3.3 3.2 0 1.6-1.2 3.2-3.3 3.2h-4.3V8.5zM20.9 26.1H7.7V1.6H0v31.3h20.9z"/>
  </symbol>
  <symbol id="mist" viewBox="0 0 24 24">
    <path d="M15.8 7.5c-1.2 0-1.7-.7-2.1-1.2-.4-.5-.6-.9-1.5-.9s-1.1.4-1.5.9c-.4.5-.9 1.2-2.1 1.2-1.2 0-1.7-.7-2.1-1.2-.4-.5-.7-.8-1.5-.8s-1.1.3-1.5.7c-.5.6-1.2 1.3-3 1.3-.3 0-.5-.2-.5-.5s.2-.5.5-.5c1.4 0 1.8-.4 2.2-1 .5-.5 1-1 2.3-1 1.4 0 1.9.7 2.3 1.3.3.5.6.8 1.3.8.7 0 1-.3 1.3-.8.4-.6.9-1.3 2.3-1.3s1.9.7 2.3 1.3c.4.5.6.8 1.3.8.7 0 1-.3 1.4-.8.4-.5 1-1.2 2.2-1.2 1.2 0 1.7.6 2 1.1.4.5.8.9 2 .9.4-.1.6.1.6.4s-.2.5-.5.5c-1.7 0-2.3-.7-2.8-1.3-.4-.4-.6-.7-1.3-.7-.8 0-1.1.4-1.4.8-.4.6-1 1.2-2.2 1.2zm0 4c-1.2 0-1.7-.7-2.1-1.2-.4-.5-.6-.9-1.5-.9s-1.1.4-1.5.9c-.4.5-.9 1.2-2.1 1.2-1.2 0-1.7-.7-2.1-1.2-.4-.5-.7-.8-1.5-.8s-1.1.3-1.5.7c-.5.6-1.2 1.3-3 1.3-.3 0-.5-.2-.5-.5s.2-.5.5-.5c1.4 0 1.8-.4 2.2-1 .5-.5 1-1 2.3-1 1.4 0 1.9.7 2.3 1.3.3.5.6.8 1.3.8.7 0 1-.3 1.3-.8.4-.6.9-1.3 2.3-1.3s1.9.7 2.3 1.3c.4.5.6.8 1.3.8.7 0 1-.3 1.4-.8.4-.5 1-1.2 2.2-1.2 1.2 0 1.7.6 2 1.1.4.5.8.9 2 .9.3 0 .5.2.5.5s-.2.5-.5.5c-1.7 0-2.3-.7-2.8-1.3-.4-.4-.6-.7-1.3-.7-.8 0-1.1.4-1.4.8-.3.5-.9 1.1-2.1 1.1zm0 4c-1.2 0-1.7-.7-2.1-1.2-.4-.5-.6-.9-1.5-.9s-1.1.4-1.5.9c-.4.5-.9 1.2-2.1 1.2-1.2 0-1.7-.7-2.1-1.2-.4-.5-.6-.9-1.5-.9-.8 0-1.1.3-1.5.7-.5.6-1.2 1.3-3 1.3-.3.1-.5-.1-.5-.4s.2-.5.5-.5c1.4 0 1.8-.4 2.2-1 .5-.5 1-1.1 2.2-1.1 1.4 0 1.9.7 2.3 1.3.3.5.6.8 1.3.8.7 0 1-.3 1.3-.8.4-.6.9-1.3 2.3-1.3s1.9.7 2.3 1.3c.4.5.6.8 1.3.8.7 0 1-.3 1.4-.8.4-.5 1-1.2 2.2-1.2 1.2 0 1.7.6 2 1.1.4.5.8.9 2 .9.3 0 .5.2.5.5s-.2.5-.5.5c-1.7 0-2.3-.7-2.8-1.3-.4-.4-.6-.7-1.3-.7-.8 0-1.1.4-1.4.8-.2.6-.8 1.2-2 1.2zm0 4c-1.2 0-1.7-.7-2.1-1.2-.4-.5-.6-.9-1.5-.9s-1.1.4-1.5.9c-.4.5-.9 1.2-2.1 1.2-1.2 0-1.7-.7-2.1-1.2-.4-.5-.6-.9-1.5-.9-.8 0-1.1.3-1.5.7-.5.6-1.2 1.3-3 1.3-.3.1-.5-.1-.5-.4s.2-.5.5-.5c1.4 0 1.8-.4 2.2-1 .5-.5 1-1.1 2.2-1.1 1.4 0 1.9.7 2.3 1.3.3.5.6.8 1.3.8.7 0 1-.3 1.3-.8.4-.6.9-1.3 2.3-1.3s1.9.7 2.3 1.3c.4.5.6.8 1.3.8.7 0 1-.3 1.4-.8.4-.5 1-1.2 2.2-1.2 1.2 0 1.7.6 2 1.1.4.5.8.9 2 .9.3 0 .5.2.5.5s-.2.5-.5.5c-1.7 0-2.3-.7-2.8-1.3-.4-.4-.6-.7-1.3-.7-.8 0-1.1.4-1.4.8-.2.6-.8 1.2-2 1.2z"/>
  </symbol>
  <symbol id="mobile" viewBox="0 0 24 24">
    <path d="M21.6 0H2.5C1.1 0 0 1.1 0 2.5v13C0 16.9 1.1 18 2.5 18h5c.3 0 .5-.2.5-.5s-.2-.5-.5-.5h-5c-.8 0-1.5-.7-1.5-1.5v-13C1 1.7 1.7 1 2.5 1h19.1c.8 0 1.5.7 1.5 1.5v9c0 .3.2.5.5.5s.5-.2.5-.5v-9C24.1 1.1 23 0 21.6 0z"/><path d="M20.5 12c.3 0 .5-.2.5-.5v-9c0-.3-.2-.5-.5-.5h-16c-.3 0-.5.2-.5.5v13c0 .3.2.5.5.5h3c.3 0 .5-.2.5-.5s-.2-.5-.5-.5H5V3h15v8.5c0 .3.2.5.5.5zm2-3c0-.3-.2-.5-.5-.5s-.5.2-.5.5.2.5.5.5.5-.2.5-.5z"/><path d="M23.1 14.8L18 13V8c0-.9-.5-1.5-1.3-1.5h-1.5c-.8 0-1.3.6-1.3 1.5v7.9l-.8-1c-.2-.2-.6-.5-1.2-.5h-1c-.5 0-1 .3-1.2.8-.3.5-.3 1.1 0 1.5l3.8 6.8c.3.5.8.7 1.2.7h6.4c.4 0 1-.2 1.3-.9v-.1l1.5-6.7v-.1c.1-.7-.2-1.3-.8-1.6zm-1.6 8c-.1.2-.3.3-.4.3h-6.4c-.1 0-.3-.1-.4-.2L10.5 16c-.1-.1-.1-.3 0-.4 0 0 0-.1.1-.1 0-.1.2-.2.3-.2h1c.1 0 .3.1.4.2l1.7 2.1c.1.2.4.2.6.2.2-.1.3-.3.3-.5V8c0-.2.1-.5.3-.5h1.5c.1 0 .3 0 .3.5v5.3c0 .2.1.4.3.5l5.4 2c.2.1.3.3.3.5l-1.5 6.5zM1.5 9c0 .6.4 1 1 1s1-.4 1-1-.5-1-1-1c-.6 0-1 .4-1 1z"/>
  </symbol>
  <symbol id="night-cloud" viewBox="0 0 24 24">
    <path d="M19.3 16c.3-1 .2-2.1-.4-2.9-.7-1-1.8-1.6-3-1.6C15 9.4 12.8 8 10.5 8c-3 0-5.5 2.2-5.9 5.1-2.7.4-4.6 2.7-4.6 5.4 0 3 2.5 5.5 5.5 5.5h11c2.5 0 4.5-2 4.5-4.5 0-1.4-.6-2.6-1.7-3.5zm-2.8 7h-11C3 23 1 21 1 18.5c0-2.3 1.8-4.3 4.1-4.5.2 0 .4-.2.5-.5C5.7 11 7.9 9 10.5 9c2 0 3.9 1.3 4.7 3.2.1.2.3.4.5.3 1-.1 1.9.3 2.4 1.1.5.7.5 1.6.2 2.4-.1.2 0 .5.2.6 1 .7 1.5 1.7 1.5 2.9 0 1.9-1.6 3.5-3.5 3.5zm7.2-9.6C21.4 12.3 20 10 20 7.5c0-2.5 1.4-4.8 3.7-5.9.2 0 .3-.2.3-.4s-.1-.4-.3-.5c-2.1-1-4.4-1-6.5 0-2.1 1-3.5 2.9-4 5.1-.1.3.1.5.4.6.3.1.5-.1.6-.4.4-1.9 1.7-3.6 3.5-4.4 1.5-.7 3.1-.8 4.7-.4C20.3 2.6 19 4.9 19 7.5c0 2.5 1.3 4.9 3.3 6.2-.1 0-.3.1-.4.1-.3.1-.4.3-.4.6.1.2.3.4.5.4h.1c.5-.1 1.1-.3 1.6-.6.2-.1.3-.3.3-.5 0-.1-.1-.2-.3-.3z"/>
  </symbol>
  <symbol id="night-rain" viewBox="0 0 24 24">
    <path d="M19.3 13c.3-1.1.1-2.2-.6-3.1-.6-.9-1.6-1.4-2.7-1.4C15 6.4 12.8 5 10.5 5c-3 0-5.5 2.2-5.9 5.1-2.7.4-4.6 2.7-4.6 5.4 0 1.9 1 3.7 2.7 4.7.1 0 .2.1.3.1.2 0 .3-.1.4-.2.1-.2.1-.5-.2-.7-1.4-.8-2.2-2.3-2.2-3.9 0-2.3 1.8-4.3 4.1-4.5.2 0 .4-.2.5-.5C5.7 8 7.9 6 10.5 6c2.1 0 3.9 1.3 4.7 3.2.1.2.3.4.5.3.9-.1 1.8.3 2.3 1 .5.7.7 1.7.3 2.5-.1.2 0 .5.2.6 1 .7 1.5 1.7 1.5 2.9 0 1.1-.5 2.1-1.3 2.7-.2.2-.3.5-.1.7.2.2.5.3.7.1 1.1-.9 1.7-2.1 1.7-3.5s-.6-2.6-1.7-3.5z"/><path d="M7.4 18.1c-.2-.2-.5-.2-.7 0l-5 5c-.2.2-.2.5 0 .7 0 .2.2.2.3.2s.3 0 .4-.1l5-5c.1-.2.1-.6 0-.8zm5 0c-.2-.2-.5-.2-.7 0l-5 5c-.2.2-.2.5 0 .7 0 .2.2.2.3.2s.3 0 .4-.1l5-5c.1-.2.1-.6 0-.8zm4.2 0l-5 5c-.2.2-.2.5 0 .7.1.2.3.2.4.2s.3 0 .4-.1l5-5c.2-.2.2-.5 0-.7-.2-.2-.6-.2-.8-.1zm7.1-7c-1.9-.9-3-2.7-3-4.8 0-2.1 1.2-3.9 3-4.8.2-.1.3-.2.3-.4s-.1-.4-.3-.5C22-.2 20-.2 18.2.6c-1.7.8-3 2.4-3.4 4.3-.1.3.1.5.4.6.3.1.5-.1.6-.4.4-1.6 1.4-2.9 2.9-3.6 1.1-.6 2.4-.7 3.6-.4-1.7 1.2-2.7 3.1-2.7 5.1 0 2.1 1 4 2.7 5.1h-.2c-.3.1-.4.3-.4.6.1.2.3.4.5.4h.1c.5-.1.9-.3 1.3-.5.2-.1.3-.3.3-.5s0-.1-.2-.2z"/>
  </symbol>
  <symbol id="night-thunder-storm" viewBox="0 0 24 24">
    <path d="M7.4 18.1c-.2-.2-.5-.2-.7 0l-2.5 2.5c-.2.2-.2.4-.2.6.1.2.3.3.5.3h1.3l-1.6 1.6c-.2.2-.2.5 0 .7 0 .1.2.2.3.2.1 0 .3 0 .4-.1l2.5-2.5c.1-.1.2-.4.1-.5-.1-.2-.3-.3-.5-.3H5.7l1.6-1.7c.2-.2.2-.6.1-.8zm5 0c-.2-.2-.5-.2-.7 0l-2.5 2.5c-.2.2-.2.4-.2.6.1.2.3.3.5.3h1.3l-1.6 1.6c-.2.2-.2.5 0 .7 0 .1.2.2.3.2.1 0 .3 0 .4-.1l2.5-2.5c.1-.1.2-.4.1-.5-.1-.2-.3-.3-.5-.3h-1.3l1.6-1.7c.2-.2.2-.6.1-.8zm5 0c-.2-.2-.5-.2-.7 0l-2.5 2.5c-.2.2-.2.4-.2.6.1.2.3.3.5.3h1.3l-1.6 1.6c-.2.2-.2.5 0 .7.1.1.2.1.4.1.1 0 .3 0 .4-.1l2.5-2.5c.1-.1.2-.4.1-.5-.1-.2-.3-.3-.5-.3h-1.3l1.6-1.7c.1-.1.1-.5 0-.7z"/><path d="M19.3 13c.3-1.1.1-2.2-.6-3.1-.6-.9-1.6-1.4-2.7-1.4C15 6.4 12.8 5 10.5 5c-3 0-5.5 2.2-5.9 5.1-2.7.4-4.6 2.7-4.6 5.4 0 1.9 1 3.7 2.7 4.7.1 0 .2.1.3.1.2 0 .3-.1.4-.2.1-.2.1-.5-.2-.7-1.4-.8-2.2-2.3-2.2-3.9 0-2.3 1.8-4.3 4.1-4.5.2 0 .4-.2.5-.5C5.7 8 7.9 6 10.5 6c2.1 0 3.9 1.3 4.7 3.2.1.2.3.4.5.3.9-.1 1.8.3 2.3 1 .5.7.7 1.7.3 2.5-.1.2 0 .5.2.6 1 .7 1.5 1.7 1.5 2.9 0 1.1-.5 2.1-1.3 2.7-.2.2-.3.5-.1.7.2.2.5.3.7.1 1.1-.9 1.7-2.1 1.7-3.5s-.6-2.6-1.7-3.5zm4.4-1.9c-1.9-.9-3-2.7-3-4.8 0-2.1 1.2-3.9 3-4.8.2-.1.3-.2.3-.4s-.1-.4-.3-.5C22-.2 20-.2 18.2.6c-1.7.8-3 2.4-3.4 4.3-.1.3.1.5.4.6.3.1.5-.1.6-.4.4-1.6 1.4-2.9 2.9-3.6 1.1-.6 2.4-.7 3.6-.4-1.7 1.2-2.7 3.1-2.7 5.1 0 2.1 1 4 2.7 5.1h-.2c-.3.1-.4.3-.4.6.1.2.3.4.5.4h.1c.5-.1.9-.3 1.3-.5.2-.1.3-.3.3-.5s0-.1-.2-.2z"/>
  </symbol>
  <symbol id="night" viewBox="0 0 24 24">
    <path d="M10.8 5.5l2.7 1 1 2.7c.1.2.3.3.5.3s.4-.1.5-.3l1-2.7 2.7-1c.2-.1.3-.3.3-.5s-.1-.4-.3-.5l-2.7-1-1-2.7c-.1-.4-.8-.4-.9 0l-1 2.7-2.7 1c-.2.1-.3.3-.3.5-.1.2 0 .4.2.5zm3.3-1.1l.3-.3.6-1.7.6 1.7c0 .1.2.2.3.3l1.7.6-1.7.6c-.1 0-.2.2-.3.3L15 7.6l-.6-1.7-.3-.3-1.7-.6 1.7-.6zm8.1 6.1L21 10l-.5-1.2c-.1-.4-.8-.4-.9 0l-.5 1.2-1.2.5c-.2.1-.3.3-.3.5s.1.4.3.5l1.2.5.5 1.2c.1.2.3.3.5.3s.4-.1.5-.3l.5-1.2 1.2-.5c.2-.1.3-.3.3-.5-.1-.2-.2-.4-.4-.5zm-1.8.6c-.1 0-.2.2-.3.3l-.1.2-.1-.2-.3-.3-.2-.1.2-.1.3-.3.1-.2.1.2c0 .1.2.2.3.3l.2.1-.2.1zM17 15c-2.6 0-4.9-1.2-6.4-3.2-1.6-2.1-2-4.7-1.2-7.1 0-.2 0-.3-.1-.4-.1-.2-.3-.3-.4-.3C4 4.1 0 8.1 0 13c0 5 4 9 9 9 4 0 7.4-2.6 8.6-6.4 0-.2 0-.3-.1-.4-.1-.1-.3-.2-.5-.2zm-8 6c-4.4 0-8-3.6-8-8 0-4.1 3.2-7.6 7.2-8-.6 2.5 0 5.2 1.6 7.3 1.6 2.2 4 3.5 6.7 3.6C15.2 19 12.3 21 9 21z"/>
  </symbol>
  <symbol id="open-source" viewBox="0 0 24 24">
    <path d="M8.2 17.9c.3 0 .5-.2.5-.5s-.2-.5-.5-.5c-4.1-.4-7.1-1.8-7.1-3.4V11c1.6 1.5 5 2.5 9 2.5.3 0 .5-.2.5-.5s-.2-.5-.5-.5c-5.4 0-9-1.8-9-3.5V6.9c1.6 1.5 5 2.5 9 2.5s7.4-1 9-2.5v2.5c0 .3.2.5.5.5s.5-.2.5-.5V4.9c0-2.5-4.4-4.5-10-4.5s-10 2-10 4.5V18c0 2.2 3.2 4 8.1 4.4.3 0 .5-.2.5-.5s-.2-.5-.5-.5c-4-.4-7.1-1.8-7.1-3.4v-2.5c1.3 1.2 3.8 2.1 7.1 2.4zm1.9-16.5c5.3 0 9 1.8 9 3.5s-3.7 3.5-9 3.5-9-1.8-9-3.5 3.7-3.5 9-3.5z"/><path d="M20.4 10.9c-2 0-3.5 1.5-3.5 3.5v.5h-6.5c-.3 0-.5.2-.5.5v8c0 .3.2.5.5.5h10c.3 0 .5-.2.5-.5v-8c0-.3-.2-.5-.5-.5h-2.5v-.5c0-1.4 1.1-2.5 2.5-2.5s2.5 1.1 2.5 2.5v1c0 .3.2.5.5.5s.5-.2.5-.5v-1c0-2-1.5-3.5-3.5-3.5zm-.5 12h-9v-7h9v7z"/><path d="M15.4 17.4c-.6 0-1 .4-1 1 0 .4.2.7.5.8v1.7c0 .3.2.5.5.5s.5-.2.5-.5v-1.7c.3-.2.5-.5.5-.8 0-.6-.4-1-1-1zm0 .5v.5-.5z"/>
  </symbol>
  <symbol id="performance" viewBox="0 0 24 24">
    <path d="M22 14.4c1.1 0 2-.9 2-2s-.9-2-2-2-2 .9-2 2c0 .2 0 .4.1.6l-3.5 2c-.4-.4-.9-.6-1.5-.6-.9 0-1.7.6-1.9 1.5H9.6c-.2-.9-1-1.5-1.9-1.5-1.1 0-2 .9-2 2 0 .2 0 .4.1.6L1 20.1v-8l6.1-3.7c.4.4.9.6 1.4.6.7 0 1.3-.4 1.7-.9l3.9 1.2v.1c0 1.1.9 2 2 2s2-.9 2-2c0-.4-.1-.8-.4-1.2l3.4-4.3c.3.1.6.2.9.2 1.1 0 2-.9 2-2s-.9-2-2-2-2 .9-2 2c0 .4.1.8.3 1.1l-3.4 4.4c-.3-.1-.5-.2-.8-.2-.7 0-1.4.4-1.7 1l-3.9-1.2V7c0-1.1-.9-2-2-2s-2 .9-2 2c0 .2 0 .4.1.6L1 11V.9C1 .6.8.4.5.4S0 .6 0 .9v22.6c0 .3.2.5.5.5H23c.3 0 .5-.2.5-.5s-.2-.5-.5-.5H1v-1.7l5.3-3.5c.4.3.8.6 1.4.6.9 0 1.7-.6 1.9-1.5h3.5c.2.9 1 1.5 1.9 1.5 1.1 0 2-.9 2-2 0-.2 0-.3-.1-.5l3.6-2.1c.5.4 1 .6 1.5.6zm0-13.3c.6 0 1 .4 1 1s-.4 1-1 1c-.3 0-.5-.1-.7-.3-.2-.2-.3-.4-.3-.7 0-.6.4-1 1-1zm-5.9 7.3c.6 0 1 .4 1 1s-.4 1-1 1-1-.4-1-1v-.5c.3-.3.6-.5 1-.5zM8.5 6c.6 0 1 .4 1 1 0 .1 0 .2-.1.3-.1.4-.5.7-.9.7-.6 0-1-.4-1-1s.4-1 1-1zm-.8 11.4c-.6 0-1-.4-1-1s.4-1 1-1 1 .4 1 1-.4 1-1 1zm7.4 0c-.6 0-1-.4-1-1s.4-1 1-1c.4 0 .7.2.9.5.1.1.1.3.1.4 0 .7-.4 1.1-1 1.1zm6.9-6c.6 0 1 .4 1 1s-.4 1-1 1-1-.4-1-1 .4-1 1-1z"/>
  </symbol>
  <symbol id="rain" viewBox="0 0 24 24">
    <path d="M7.9 17.6c-.2-.2-.5-.2-.7 0l-5 5c-.2.2-.2.5 0 .7.1.1.2.1.4.1s.3 0 .4-.1l5-5c0-.1 0-.5-.1-.7zm5 .1c-.2-.2-.5-.2-.7 0l-5 5c-.2.2-.2.5 0 .7.1.1.2.1.4.1s.3 0 .4-.1l5-5c0-.2 0-.5-.1-.7zm4.2 0l-5 5c-.2.2-.2.5 0 .7.1.1.2.1.4.1s.3 0 .4-.1l5-5c.2-.2.2-.5 0-.7-.2-.2-.6-.2-.8 0zM21.3 8c.3-1 .2-2.1-.4-2.9-.7-1-1.8-1.6-3-1.6C17 1.4 14.8 0 12.5 0 9.5 0 7 2.2 6.6 5.1 3.9 5.5 2 7.8 2 10.5c0 3 2.5 5.5 5.5 5.5h11c2.5 0 4.5-2 4.5-4.5 0-1.4-.6-2.6-1.7-3.5zm-2.8 7h-11C5 15 3 13 3 10.5 3 8.2 4.8 6.2 7.1 6c.2 0 .4-.2.5-.5C7.7 3 9.9 1 12.5 1c2.1 0 3.9 1.3 4.7 3.2.1.2.3.3.5.3 1-.1 1.9.3 2.4 1.1.5.7.5 1.6.2 2.4-.1.2 0 .5.2.6 1 .7 1.5 1.7 1.5 2.9 0 1.9-1.6 3.5-3.5 3.5z"/>
  </symbol>
  <symbol id="rss" viewBox="0 0 32 32">
    <path d="M8.8 27.707c0 1.193-.428 2.206-1.283 3.041C6.66 31.583 5.622 32 4.4 32s-2.261-.417-3.117-1.252C.428 29.913 0 28.9 0 27.708c0-1.193.428-2.207 1.283-3.041.856-.835 1.895-1.252 3.117-1.252s2.261.417 3.117 1.252c.855.834 1.283 1.848 1.283 3.04zm11.196 2.73a1.38 1.38 0 0 1-.38 1.087 1.307 1.307 0 0 1-1.049.476h-3.012a1.36 1.36 0 0 1-.96-.374 1.387 1.387 0 0 1-.446-.94c-.328-3.457-1.7-6.413-4.118-8.866-2.417-2.454-5.33-3.847-8.737-4.179a1.35 1.35 0 0 1-.926-.453A1.403 1.403 0 0 1 0 16.214v-3.057c0-.438.156-.793.469-1.065a1.29 1.29 0 0 1 .96-.385h.11a19.78 19.78 0 0 1 6.83 1.823 19.734 19.734 0 0 1 5.78 4.111 20.03 20.03 0 0 1 4.05 5.866 20.547 20.547 0 0 1 1.797 6.93zm12 .04c.03.41-.106.765-.41 1.068a1.343 1.343 0 0 1-1.044.455h-3.25a1.42 1.42 0 0 1-1.011-.398 1.36 1.36 0 0 1-.443-.966 25.41 25.41 0 0 0-2.296-9.284c-1.348-2.932-3.101-5.477-5.26-7.636-2.16-2.16-4.704-3.913-7.636-5.261a25.736 25.736 0 0 0-9.283-2.319 1.36 1.36 0 0 1-.965-.443A1.392 1.392 0 0 1 0 4.705v-3.25C0 1.03.151.682.454.409a1.36 1.36 0 0 1 1-.409h.069a31.529 31.529 0 0 1 11.396 2.727 31.856 31.856 0 0 1 9.669 6.682 31.86 31.86 0 0 1 6.68 9.67 31.54 31.54 0 0 1 2.728 11.398z"/>
  </symbol>
  <symbol id="service-design" viewBox="0 0 24 24">
    <path d="M17.6 8.8l1.9-1.9c.2.1.5.2.8.2 1 0 1.9-.9 1.9-1.9s-.9-1.9-1.9-1.9c-1 0-1.9.9-1.9 1.9 0 .4.1.7.3 1L16.8 8l.8.8zm2.7-4.5c.5 0 .9.4.9.9s-.4.9-.9.9-.9-.4-.9-.9.4-.9.9-.9zM20.3 20.1c-.4 0-.7.1-1 .3l-1-1.1-.7.7 1.1 1.2c-.1.3-.2.6-.2.9 0 1 .9 1.9 1.9 1.9 1 0 1.9-.9 1.9-1.9s-1-2-2-2zm0 2.8c-.5 0-.9-.4-.9-.9s.4-.9.9-.9.9.4.9.9-.4.9-.9.9zM3.7 7.1c.3 0 .6-.1.9-.2l1.9 1.9.7-.8-1.9-1.8c.2-.3.3-.6.3-1 0-1-.9-1.9-1.9-1.9s-1.9.9-1.9 1.9.9 1.9 1.9 1.9zm0-2.8c.5 0 .9.4.9.9s-.4.9-.9.9-.9-.4-.9-.9.4-.9.9-.9zM5.7 19.3l-1 1.1c-.3-.2-.6-.3-1-.3-1 0-1.9.9-1.9 1.9s.9 1.9 1.9 1.9S5.6 23 5.6 22c0-.3-.1-.6-.2-.9l1.1-1.2-.8-.6zm-2 3.6c-.5 0-.9-.4-.9-.9s.4-.9.9-.9.9.4.9.9-.4.9-.9.9zM20.3 11.3c-.9 0-1.6.6-1.8 1.4h-2.2v1h2.2c.2.8 1 1.4 1.8 1.4 1 0 1.9-.9 1.9-1.9 0-1-.9-1.9-1.9-1.9zm0 2.8c-.5 0-.9-.4-.9-.9s.4-.9.9-.9.9.4.9.9-.4.9-.9.9zM3.7 15.1c.9 0 1.6-.6 1.8-1.4h2.2v-1H5.5c-.2-.8-1-1.4-1.8-1.4-1 0-1.9.9-1.9 1.9 0 1 .9 1.9 1.9 1.9zm0-2.8c.5 0 .9.4.9.9s-.4.9-.9.9-.9-.4-.9-.9.4-.9.9-.9zM11.5 3.8v1.6h1V3.8c.8-.2 1.4-1 1.4-1.8 0-1-.9-1.9-1.9-1.9S10.1 1 10.1 2c0 .9.6 1.6 1.4 1.8zm.5-2.7c.5 0 .9.4.9.9s-.4.9-.9.9-.9-.4-.9-.9.4-.9.9-.9zM13.9 15v-.8c.3-.2.6-.7.7-1.7.3-.2.5-.7.5-1.1 0-.3-.1-.5-.2-.7 0-.1-.1-.1-.1-.2.1-.4.3-1 .2-1.6-.2-.8-1.1-1.4-2.4-1.4-1 0-2.1.3-2.6 1-.3 0-.6.1-.8.3-.4.6-.2 1.3.1 1.8 0 0-.1.1-.1.2-.1.2-.2.4-.2.7 0 .4.2.9.5 1.1.1.9.4 1.4.7 1.7v.7c-.9.4-3.2 1.5-3.2 2.4V19h10v-1.6c0-.8-1.9-1.9-3.1-2.4zm2.1 3H8v-.5c.1-.3 1.2-1.1 2.8-1.7l.3-.1v-2.1l-.4-.1s-.4-.2-.4-1.2v-.5H10c-.1-.1-.1-.4-.1-.4h.5v-.5c0-.2-.1-.3-.2-.5 0-.2-.2-.6-.2-.8h.1l.5.1.1-.4c.1-.4.9-.7 1.8-.7.8 0 1.4.3 1.5.7.1.5-.1 1-.2 1.2-.1.1-.1.2-.1.4l-.1.5h.4v.4h-.4v.5c0 1-.3 1.2-.3 1.2l-.4.1v2.1l.3.1c1.4.6 2.6 1.5 2.8 1.7v.5z"/>
  </symbol>
  <symbol id="slashes" viewBox="0 0 24 20">
    <path d="M14.8 20l-4.1-2.1L15.3 9l4.6-9L24 2.1 19.4 11l-4.6 9zM4.1 20L0 17.9 4.7 9l4.6-9 4.1 2.1L8.8 11l-4.7 9z"/>
  </symbol>
  <symbol id="snow" viewBox="0 0 24 24">
    <path d="M21.3 8c.3-1 .2-2.1-.4-2.9-.7-1-1.8-1.6-3-1.6C17 1.4 14.8 0 12.5 0 9.5 0 7 2.2 6.6 5.1 3.9 5.5 2 7.8 2 10.5c0 3 2.5 5.5 5.5 5.5h11c2.5 0 4.5-2 4.5-4.5 0-1.4-.6-2.6-1.7-3.5zm-2.8 7h-11C5 15 3 13 3 10.5 3 8.2 4.8 6.2 7.1 6c.2 0 .4-.2.5-.5C7.7 3 9.9 1 12.5 1c2.1 0 3.9 1.3 4.7 3.2.1.2.3.3.5.3 1-.1 1.9.3 2.4 1.1.5.7.5 1.6.2 2.4-.1.2 0 .5.2.6 1 .7 1.5 1.7 1.5 2.9 0 1.9-1.6 3.5-3.5 3.5z"/><circle cx="12.5" cy="18.5" r=".5"/><circle cx="18.5" cy="20" r=".5"/><circle cx="18.5" cy="23" r=".5"/><circle cx="12.5" cy="21.5" r=".5"/><circle cx="16.5" cy="21.5" r=".5"/><circle cx="14.5" cy="23" r=".5"/><circle cx="16.5" cy="18.5" r=".5"/><circle cx="14.5" cy="20" r=".5"/><circle cx="10.5" cy="20" r=".5"/><circle cx="10.5" cy="23" r=".5"/><circle cx="8.5" cy="21.5" r=".5"/><circle cx="6.5" cy="23" r=".5"/><circle cx="8.5" cy="18.5" r=".5"/><circle cx="6.5" cy="20" r=".5"/>
  </symbol>
  <symbol id="sunny" viewBox="0 0 24 24">
    <path d="M11.5 4C7.4 4 4 7.4 4 11.5S7.4 19 11.5 19s7.5-3.4 7.5-7.5S15.6 4 11.5 4zm0 14C7.9 18 5 15.1 5 11.5S7.9 5 11.5 5 18 7.9 18 11.5 15.1 18 11.5 18zm0 2c-.3 0-.5.2-.5.5v2c0 .3.2.5.5.5s.5-.2.5-.5v-2c0-.3-.2-.5-.5-.5zm11-9h-2c-.3 0-.5.2-.5.5s.2.5.5.5h2c.3 0 .5-.2.5-.5s-.2-.5-.5-.5zm-11-8c.3 0 .5-.2.5-.5v-2c0-.3-.2-.5-.5-.5s-.5.2-.5.5v2c0 .3.2.5.5.5zm-9 8h-2c-.3 0-.5.2-.5.5s.2.5.5.5h2c.3 0 .5-.2.5-.5s-.2-.5-.5-.5zm2.3 6.5l-1.4 1.4c-.2.2-.2.5 0 .7.1.1.2.1.4.1s.3 0 .4-.1l1.4-1.4c.2-.2.2-.5 0-.7s-.6-.2-.8 0zm13.4 0c-.2-.2-.5-.2-.7 0s-.2.5 0 .7l1.4 1.4c.1.1.2.1.4.1s.3 0 .4-.1c.2-.2.2-.5 0-.7l-1.5-1.4zm.7-14.1l-1.4 1.4c-.2.2-.2.5 0 .7.1.1.2.1.4.1s.3 0 .4-.1l1.4-1.4c.2-.2.2-.5 0-.7s-.6-.2-.8 0zM4.8 5.5c.1.1.2.1.3.1s.3 0 .4-.1c.2-.2.2-.5 0-.7L4.1 3.4c-.2-.2-.5-.2-.7 0s-.2.5 0 .7l1.4 1.4z"/>
  </symbol>
  <symbol id="twitter" viewBox="0 0 32 32">
    <path d="M32 5.903a13.888 13.888 0 0 1-3.29 3.456c.014.193.021.482.021.869 0 1.793-.257 3.582-.772 5.369a19.575 19.575 0 0 1-2.345 5.14 20.1 20.1 0 0 1-3.746 4.356c-1.448 1.262-3.195 2.27-5.239 3.02-2.044.753-4.23 1.128-6.558 1.128-3.668 0-7.025-1-10.071-3 .474.056 1.002.083 1.584.083 3.045 0 5.76-.952 8.142-2.855a6.318 6.318 0 0 1-3.817-1.335 6.535 6.535 0 0 1-2.315-3.3c.447.07.86.104 1.238.104.583 0 1.158-.076 1.726-.228-1.516-.317-2.771-1.086-3.766-2.307-.995-1.22-1.493-2.637-1.493-4.251v-.083c.921.524 1.91.807 2.965.848a6.63 6.63 0 0 1-2.132-2.38 6.61 6.61 0 0 1-.792-3.185c0-1.214.298-2.338.894-3.373a18.664 18.664 0 0 0 5.98 4.935 18.01 18.01 0 0 0 7.542 2.058 7.558 7.558 0 0 1-.162-1.53c0-1.849.64-3.425 1.919-4.728 1.279-1.304 2.825-1.955 4.64-1.955 1.894 0 3.492.703 4.791 2.11a12.715 12.715 0 0 0 4.163-1.614c-.501 1.586-1.462 2.814-2.884 3.683 1.26-.138 2.518-.483 3.777-1.035z"/>
  </symbol>
  <symbol id="user-experience" viewBox="0 0 24 24">
    <path d="M12 0C5.4 0 0 5.4 0 12c0 3.1 1.2 6.1 3.4 8.4C5.7 22.7 8.8 24 12 24c3.2 0 6.3-1.3 8.6-3.5 2.3-2.3 3.4-5.2 3.4-8.5 0-6.6-5.4-12-12-12zM4.6 20.2c1.2-.6 3-1.3 4.6-1.9l.9-.3c.2-.1.3-.3.3-.5V15c0-.2-.1-.4-.3-.5 0 0-1.2-.5-1.2-2.5 0-.3-.2-.5-.5-.5 0 0-.1-.2-.1-.5s.1-.5.1-.5c.4 0 .6-.2.6-.5 0-.1 0-.2-.1-.5-.2-.5-.6-2-.2-2.4.1-.2.5-.2.7-.1.3 0 .5-.1.6-.4.2-.6 1.3-1.1 2.8-1.1s2.6.5 2.8 1.1c.2 1-.2 2.3-.4 2.9-.2.3-.2.4-.2.5 0 .3.2.5.5.5 0 0 .1.2.1.5s-.1.5-.1.5c-.3 0-.5.2-.5.5 0 2.1-1.1 2.5-1.2 2.5-.2.1-.3.3-.3.5v2.5c0 .2.1.4.3.5l1.1.4c1.7.6 3.4 1.2 4.4 1.8-2 1.8-4.5 2.8-7.3 2.8-2.7 0-5.3-1-7.4-2.8zm15.5-.8c-1.1-.7-2.9-1.3-4.8-2l-.8-.3v-1.8c.5-.3 1.4-1.1 1.5-2.9.4-.2.6-.7.6-1.4 0-.6-.2-1-.5-1.3.2-.7.6-2.1.4-3.3-.3-1.4-2.2-1.9-3.7-1.9-1.3 0-3 .4-3.6 1.5-.5-.1-.9.1-1.2.4-.8.8-.3 2.4-.1 3.3-.3.3-.5.7-.5 1.3 0 .6.2 1.1.6 1.4.1 1.8 1 2.6 1.5 2.9v1.8l-.6.2c-1.9.7-3.8 1.4-5 2.1C2 17.4 1 14.7 1 12 1 5.9 5.9 1 12 1s11 4.9 11 11c0 2.9-1 5.4-2.9 7.4z"/>
  </symbol>
  <symbol id="weather-unknown" viewBox="0 0 24 24">
    <path d="M21.9 10.9c.3-1.1.1-2.3-.6-3.2-.8-1.1-2-1.7-3.3-1.7-1-2.4-3.4-4-6-4-3.4 0-6.2 2.7-6.5 6-3.1.3-5.5 2.9-5.5 6 0 3.3 2.7 6 6 6h13c2.8 0 5-2.2 5-5 0-1.6-.8-3.1-2.1-4.1zM19 19H6c-2.8 0-5-2.2-5-5s2.2-5 5-5c.3 0 .5-.2.5-.5C6.5 5.5 9 3 12 3c2.3 0 4.4 1.5 5.2 3.7.1.2.3.3.5.3 1.1-.1 2.1.4 2.7 1.2.6.9.8 1.8.4 2.8-.1.2 0 .5.2.6 1.2.7 2 2 2 3.4 0 2.2-1.8 4-4 4z"/><circle cx="12" cy="15.6" r=".7"/><path d="M12 7.2c-1.4 0-2.6 1.2-2.6 2.6 0 .3.2.5.5.5s.5-.2.5-.5c0-.9.7-1.6 1.6-1.6.9 0 1.6.7 1.6 1.6 0 .9-.7 1.6-1.6 1.6-.3 0-.5.2-.5.5V14c0 .3.2.5.5.5s.5-.2.5-.5v-1.6c1.2-.2 2.1-1.3 2.1-2.5 0-1.6-1.2-2.7-2.6-2.7z"/>
  </symbol></svg>