<svg width="900" height="200" viewBox="0 0 900 200" xmlns="http://www.w3.org/2000/svg"><title>Artboard</title><g fill="none" fill-rule="evenodd"><path d="M159.88 58.142L74.151 93.55a1.864 1.864 0 0 0 .037 3.459l32.357 12.583v28.543c0 1.898 2.515 2.576 3.473.94l12.256-21.007 22.512 12.378c1.066.593 2.453.004 2.718-1.237l14.909-68.955c.309-1.554-1.275-2.643-2.535-2.113zm-8.134 7.39l-43.75 40.624-28.123-10.94 71.873-29.683zm-41.473 65.709v-19.773l8.733 4.8-8.733 14.973zm34.116-5.26l-32.823-18.054 45.95-42.666-13.127 60.72z" fill="#6EA644" fill-rule="nonzero"/><path d="M184 47.817c43.043-29.554 140.082-12.777 210.024 53.407 69.94 66.183 252.174 59.004 308.367 23.046 45.378-29.037 65.711-46.182 53.61-94.98-5.45-21.973-34.798-38.238-52.4-11.027-9.52 14.719-45.507 130.949 124.262 177.242" stroke="#FFF" stroke-width="4"/></g></svg>