<svg width="1142" height="645" viewBox="0 0 1142 645" xmlns="http://www.w3.org/2000/svg"><title>Graphic_Swissmap</title><path d="M0 0h1142v645H0V0zm605.07 100.548l7.022 3.198L627.925 75.7l-7.022-3.197-15.833 28.044zm-.011 31.188l7.022 3.198 15.833-28.044-7.022-3.198-15.833 28.044zm22.86-31.115l7.022 3.198 15.833-28.045-7.022-3.197-15.833 28.044zm68.427 31.214l7.022 3.197 15.833-28.044-7.022-3.198-15.833 28.045zm-68.438-.025l7.022 3.197 15.833-28.044-7.022-3.198-15.833 28.045zm-22.945 31.152l7.022 3.198 15.833-28.045-7.022-3.197-15.833 28.044zm91.371.06l7.022 3.198 15.833-28.044-7.022-3.197-15.833 28.044zm-68.605-.024l7.022 3.197 15.833-28.044-7.022-3.198-15.833 28.045zm45.839-.01l7.022 3.197 15.833-28.044-7.022-3.198-15.833 28.044zm-23.017-.074l7.023 3.198 15.833-28.044-7.022-3.198-15.834 28.044zM673.58 131.8l7.022 3.198 15.833-28.045-7.022-3.197L673.58 131.8zm-22.837-31.261l7.022 3.197 15.833-28.044-7.022-3.198-15.833 28.045zm-.012 31.188l7.022 3.198 15.833-28.045-7.022-3.197-15.833 28.044zm22.86-31.115l7.023 3.198 15.833-28.045-7.022-3.197-15.833 28.044zm-22.887-31.274l7.022 3.198 15.833-28.045-7.022-3.197-15.833 28.044zm45.654 31.31l7.022 3.197L719.212 75.8l-7.022-3.198-15.833 28.045zm22.893 31.142l7.023 3.197 15.833-28.044-7.023-3.197-15.833 28.044zm-.011 31.188l7.022 3.198 15.833-28.045-7.022-3.197-15.833 28.044zm.023-62.376l7.022 3.197 15.833-28.044-7.022-3.198-15.833 28.045zm-68.722 93.501l7.022 3.198 15.833-28.044-7.022-3.198-15.833 28.044zm.071 31.226l7.022 3.198 15.833-28.045-7.022-3.197-15.833 28.044zm-22.726-31.142l7.022 3.198 15.833-28.045-7.022-3.197-15.833 28.044zm-22.767-.036l7.022 3.198 15.833-28.044-7.022-3.198-15.833 28.044zm114.11.015l7.022 3.198 15.833-28.045-7.023-3.197-15.833 28.044zM673.47 69.373l7.022 3.197 15.833-28.044-7.022-3.198-15.833 28.045zm22.853 124.838l7.022 3.198 15.833-28.045-7.022-3.197-15.833 28.044zm-22.767-.035l7.022 3.197 15.833-28.044-7.022-3.198-15.833 28.045zm-.012 31.188l7.023 3.197 15.833-28.044-7.022-3.198-15.834 28.045zm205.499-124.758l7.022 3.197 15.833-28.044-7.022-3.198-15.833 28.045zm22.755 31.223l7.022 3.198 15.833-28.045-7.022-3.197-15.833 28.044zm-.012 31.188l7.022 3.198 15.833-28.045-7.022-3.197-15.833 28.044zm-45.694 62.387l7.022 3.197 15.833-28.044-7.022-3.198-15.833 28.045zm-91.182-62.437l7.022 3.197 15.834-28.044-7.023-3.198-15.833 28.045zm22.767.035l7.022 3.198 15.833-28.045-7.022-3.197-15.833 28.044zm-22.778 31.153l7.022 3.198 15.833-28.045-7.022-3.197-15.833 28.044zm-.012 31.188l7.023 3.198 15.833-28.045-7.023-3.197-15.833 28.044zm114.121-31.173l7.022 3.198 15.833-28.045-7.022-3.197-15.833 28.044zm-91.343.02l7.022 3.198 15.834-28.044-7.023-3.198-15.833 28.045zm-.011 31.189l7.022 3.197 15.833-28.044-7.022-3.198-15.833 28.045zm45.671-.01l7.022 3.197 15.833-28.045-7.022-3.197-15.833 28.044zm-22.766-.036l7.022 3.197 15.833-28.044-7.022-3.198-15.833 28.045zm-.048-93.602l7.022 3.197 15.833-28.044-7.022-3.198-15.833 28.045zm22.849.073l7.022 3.197 15.833-28.044-7.022-3.198-15.833 28.045zm-91.355 31.209l7.023 3.197 15.833-28.044-7.023-3.198-15.833 28.045zm45.683-31.199l7.022 3.198 15.834-28.045-7.023-3.197-15.833 28.044zm-22.766-.035l7.022 3.197 15.833-28.044-7.022-3.198-15.833 28.045zM741.994 194.2l7.022 3.197 15.833-28.044-7.022-3.198-15.833 28.045zm137.037-62.407l7.022 3.197 15.833-28.044-7.022-3.198-15.833 28.045zm-.011 31.188l7.022 3.197 15.833-28.044-7.022-3.198-15.833 28.045zm-22.894-31.143l7.022 3.198 15.833-28.045-7.022-3.197-15.833 28.044zM810.5 162.92l7.022 3.198 15.834-28.045-7.023-3.197L810.5 162.92zm.071 31.226l7.022 3.197 15.833-28.044-7.022-3.198-15.833 28.045zm-753.35 187.3l7.022 3.198 15.833-28.045-7.022-3.197-15.833 28.044zm228.26-93.666l7.022 3.197 15.833-28.044-7.023-3.198-15.833 28.045zM34.43 443.787l7.023 3.197 15.833-28.044-7.022-3.198-15.833 28.045zm-.01 31.188l7.021 3.198 15.833-28.045-7.022-3.197-15.833 28.044zm114.108.015l7.023 3.198 15.833-28.045-7.023-3.197-15.833 28.044zm-22.849-.073l7.022 3.197 15.834-28.044-7.023-3.198-15.833 28.045zm22.895-124.68l7.023 3.198 15.833-28.045-7.022-3.197-15.834 28.044zm-22.849-.073l7.023 3.198 15.833-28.045-7.023-3.197-15.833 28.044zm-22.822.084l7.022 3.197 15.833-28.044-7.022-3.198-15.833 28.045zm68.48-.05l7.022 3.198 15.833-28.044-7.022-3.198-15.833 28.044zm-91.34 31.165l7.022 3.197 15.833-28.044-7.022-3.198-15.833 28.045zm114.191.052l7.022 3.198 15.834-28.045-7.023-3.197-15.833 28.044zm-22.905.046l7.023 3.197 15.833-28.044-7.023-3.198-15.833 28.045zm-22.766-.036l7.022 3.198 15.833-28.044-7.022-3.198-15.833 28.044zm-22.85-.073l7.023 3.198 15.833-28.045-7.022-3.197-15.833 28.044zm-22.822.084l7.023 3.197 15.833-28.044-7.022-3.198-15.834 28.045zM57.21 412.634l7.022 3.198 15.833-28.045-7.022-3.197-15.833 28.044zm68.493-.094l7.023 3.198 15.833-28.045-7.023-3.197-15.833 28.044zm-.011 31.189l7.022 3.197 15.833-28.044-7.022-3.198-15.833 28.045zm-22.81-31.105l7.021 3.197 15.833-28.044-7.022-3.198-15.833 28.045zm-22.85-.073l7.022 3.197 15.833-28.044-7.022-3.198-15.833 28.045zm114.192.052l7.022 3.198 15.833-28.045-7.022-3.197-15.833 28.044zm-91.355 31.209l7.023 3.198 15.833-28.045-7.022-3.197-15.834 28.044zM102.858 475l7.022 3.198 15.833-28.045-7.022-3.197L102.858 475zm-22.755-31.224l7.022 3.198 15.833-28.044-7.022-3.198-15.833 28.044zm-22.905.046l7.022 3.198 15.833-28.044-7.022-3.198-15.833 28.044zm137.014-.03l7.022 3.197 15.834-28.044-7.023-3.198-15.833 28.044zm-.011 31.188l7.022 3.197 15.833-28.044-7.022-3.198L194.2 474.98zm-114.11-.015l7.023 3.197 15.833-28.044-7.022-3.198-15.834 28.045zm-22.905.045l7.023 3.198 15.833-28.044-7.022-3.198-15.834 28.044zm228.358-.05l7.022 3.197 15.833-28.045-7.022-3.197-15.833 28.044zm-22.905.045l7.022 3.197 15.833-28.044-7.022-3.198-15.833 28.045zm22.851 31.216l7.022 3.198 15.833-28.044-7.022-3.198-15.833 28.044zM171.32 412.65l7.022 3.198 15.833-28.045-7.022-3.197-15.833 28.044zm-.012 31.188l7.023 3.198 15.833-28.045-7.023-3.197-15.833 28.044zm-22.755-31.223l7.023 3.197 15.833-28.044-7.023-3.198-15.833 28.045zm-.011 31.188l7.022 3.197 15.833-28.044-7.022-3.198-15.833 28.045zm91.331 31.167l7.022 3.198 15.833-28.045-7.022-3.197-15.833 28.044zm-22.905.046l7.022 3.198 15.833-28.045-7.022-3.197-15.833 28.044zM80.08 506.153l7.022 3.198 15.833-28.045-7.022-3.197-15.833 28.044zm-22.905.046l7.022 3.197 15.833-28.044-7.022-3.198L57.175 506.2zm205.452-.006l7.022 3.198 15.833-28.045-7.022-3.197-15.833 28.044zm22.852 31.217l7.022 3.197 15.833-28.044-7.022-3.198-15.833 28.045zM171.263 318.96l7.022 3.198 15.833-28.045-7.022-3.197-15.833 28.044zm-22.808.039l7.022 3.197 15.833-28.044-7.022-3.198L148.455 319zM308.31 474.995l7.022 3.197 15.833-28.044-7.022-3.198-15.833 28.045zm-91.331-31.168l7.022 3.198 15.833-28.045-7.022-3.197-15.833 28.044zm-22.853-124.838l7.022 3.197 15.833-28.044-7.022-3.198-15.833 28.045zm.12 31.238l7.023 3.198 15.833-28.045-7.022-3.197-15.833 28.044zm91.223-31.259l7.022 3.198 15.833-28.045-7.022-3.197-15.833 28.044zm-22.863-.028l7.022 3.197 15.833-28.044-7.022-3.198-15.833 28.045zm-22.782 62.427l7.022 3.198 15.833-28.045-7.022-3.197-15.833 28.044zm-22.822.084l7.022 3.197 15.833-28.044-7.022-3.198-15.833 28.045zm-.012 31.188l7.022 3.197 15.834-28.044-7.023-3.198-15.833 28.045zm91.332 31.167l7.022 3.198 15.833-28.044-7.022-3.198-15.833 28.044zm-228.295 93.61l7.022 3.197 15.833-28.045-7.022-3.197-15.833 28.044zm-22.863-.03l7.022 3.198 15.833-28.044-7.022-3.198-15.833 28.045zm-22.82 31.228l7.022 3.197 15.833-28.044-7.022-3.198-15.833 28.045zm-22.863-.029l7.022 3.198 15.833-28.045-7.022-3.197-15.833 28.044zm22.928-62.422l7.022 3.198 15.833-28.045-7.022-3.197-15.833 28.044zm-.012 31.188l7.022 3.198 15.833-28.045-7.022-3.197-15.833 28.044zM11.504 506.21l7.022 3.198 15.833-28.045-7.022-3.197-15.833 28.044zm-.012 31.188l7.022 3.198 15.834-28.045-7.023-3.197-15.833 28.044zM627.852 38.12l7.023 3.198 15.832-28.044-7.022-3.197-15.833 28.043zm61.505-28.054L673.523 38.11l7.023 3.197 15.833-28.043-7.022-3.198zM650.715 38.15l7.023 3.197 15.832-28.044-7.022-3.197-15.833 28.044zM627.84 69.31l7.022 3.197 15.833-28.044-7.022-3.198L627.84 69.31zm136.973.043l7.022 3.198 15.833-28.045-7.022-3.197-15.833 28.044zm22.808-.039l7.022 3.198 15.833-28.044-7.022-3.198-15.833 28.044zm22.863.029l7.022 3.197 15.833-28.044-7.022-3.198-15.833 28.045zm45.657.034l7.023 3.198 15.833-28.045-7.023-3.197-15.833 28.044zm-22.89.001l7.022 3.198 15.833-28.045-7.023-3.197-15.833 28.044zm-22.729 31.166l7.022 3.197 15.833-28.044-7.022-3.198-15.833 28.045zm45.616.108l7.022 3.198 15.833-28.045-7.022-3.197-15.833 28.044zm-22.767-.035l7.023 3.197 15.833-28.044-7.023-3.198-15.833 28.045zm-91.354 31.208l7.022 3.198 15.833-28.044-7.022-3.198-15.833 28.044zm45.683-31.198l7.022 3.198 15.833-28.045-7.022-3.197-15.833 28.044zm-22.85-.073l7.023 3.197 15.833-28.044-7.022-3.198-15.833 28.045zm-22.9-31.23l7.022 3.198 15.833-28.044-7.022-3.198-15.834 28.045zm.078 31.313l7.023 3.198 15.833-28.044-7.022-3.198-15.834 28.044zm-22.887-31.274l7.022 3.198 15.833-28.044-7.022-3.198-15.833 28.044zm-22.78.01l7.022 3.197 15.833-28.044-7.022-3.198-15.833 28.045zm159.742 124.844l7.022 3.197 15.834-28.044-7.023-3.198-15.833 28.045zm.012-31.188l7.022 3.197 15.833-28.044-7.022-3.198-15.833 28.045zm-22.767-.036l7.023 3.198 15.833-28.045-7.023-3.197-15.833 28.044zm-.011 31.188l7.022 3.198 15.833-28.045-7.022-3.197-15.833 28.044zm-365.21-62.375l7.022 3.197 15.833-28.044-7.022-3.198-15.833 28.045zm68.37-62.476l7.023 3.198 15.833-28.045-7.023-3.197-15.833 28.044zm45.672-.01l7.022 3.198 15.833-28.045-7.022-3.197-15.833 28.044zm-22.809.039l7.023 3.197 15.833-28.044-7.023-3.198-15.833 28.045zm-45.55 31.249l7.022 3.197 15.833-28.044-7.022-3.198-15.833 28.045zm-22.85-.074l7.023 3.198 15.833-28.044-7.022-3.198-15.833 28.044zm-.01 31.189l7.021 3.197 15.834-28.044-7.023-3.198-15.833 28.045zm45.626-31.08l7.023 3.198 15.833-28.045-7.023-3.197-15.833 28.044zm-.011 31.188l7.022 3.198 15.833-28.045-7.022-3.197-15.833 28.044zm-22.767-.035l7.023 3.197 15.833-28.044-7.023-3.198-15.833 28.045zm68.45-31.163l7.022 3.197 15.833-28.044-7.022-3.198-15.833 28.045zm-.012 31.188l7.022 3.197 15.833-28.044-7.022-3.198-15.833 28.045zm-22.755-31.224l7.022 3.198 15.833-28.045-7.022-3.197-15.833 28.044zm-.011 31.188l7.022 3.198 15.833-28.044-7.022-3.198-15.833 28.044zm-45.85 31.199l7.022 3.197 15.833-28.044-7.022-3.198-15.833 28.045zm-22.85-.073l7.023 3.197 15.833-28.044-7.022-3.198-15.833 28.045zm45.616.108l7.023 3.198 15.833-28.045-7.023-3.197-15.833 28.044zm45.672-.01l7.022 3.198 15.833-28.045-7.022-3.197-15.833 28.044zm-22.767-.035l7.022 3.197 15.833-28.044-7.022-3.198-15.833 28.045zm-22.75 31.233l7.023 3.198 15.833-28.045-7.022-3.197-15.833 28.044zm-22.766-.035l7.022 3.197 15.834-28.044-7.023-3.198-15.833 28.045zm45.672-.01l7.022 3.197 15.833-28.044-7.022-3.198-15.833 28.045zm-22.917 31.234l7.022 3.197 15.834-28.044-7.023-3.198-15.833 28.045zm-22.766-.036l7.022 3.198 15.833-28.045-7.022-3.197-15.833 28.044zm91.331 31.168l7.022 3.197 15.833-28.044-7.022-3.198-15.833 28.045zm-45.66-31.178l7.022 3.197 15.833-28.044-7.022-3.198-15.833 28.045zm-45.683 31.198l7.022 3.198 15.833-28.045-7.022-3.197-15.833 28.044zm68.438.026l7.022 3.197 15.833-28.044-7.022-3.198-15.833 28.045zm-22.855-.036l7.022 3.198 15.833-28.045-7.022-3.197-15.833 28.044zm-22.816.046l7.022 3.197 15.833-28.044-7.022-3.198-15.833 28.045zm68.356 31.206l7.022 3.198 15.833-28.045-7.022-3.197-15.833 28.044zm22.831-62.415l7.022 3.198 15.833-28.045-7.022-3.197-15.833 28.044zm-22.6-.035l7.023 3.197 15.833-28.044-7.022-3.198-15.833 28.045zm-22.893-31.143l7.022 3.198 15.833-28.045-7.022-3.197-15.833 28.044zm-.011 31.188l7.022 3.198 15.833-28.045-7.022-3.197-15.833 28.044zm45.492 31.178l7.023 3.198 15.833-28.045-7.022-3.197-15.834 28.044zm-113.953 31.173l7.022 3.198 15.833-28.044-7.022-3.198-15.833 28.044zm22.677.036l7.023 3.198 15.833-28.045-7.023-3.197-15.833 28.044zm45.76-.01l7.023 3.197 15.833-28.044-7.022-3.198-15.833 28.045zm-22.808.038l7.022 3.198 15.834-28.045-7.023-3.197L559.37 287.8zm45.66 31.178l7.022 3.198 15.833-28.045-7.022-3.197-15.833 28.044zm-68.534-.018l7.022 3.198 15.833-28.045-7.022-3.197-15.833 28.044zm-22.809.039l7.023 3.197 15.833-28.044-7.023-3.198-15.833 28.045zm68.313-.05l7.022 3.198 15.833-28.044-7.022-3.198L582 318.95zm-22.641.04l7.022 3.197 15.833-28.044-7.022-3.198-15.833 28.045zm-91.41-155.995l7.022 3.198 15.833-28.045-7.023-3.197-15.833 28.044zm-22.683-.073l7.023 3.198 15.833-28.045-7.023-3.197-15.833 28.044zm.071 31.226l7.023 3.197 15.833-28.044-7.022-3.198-15.834 28.045zm-23.072.046l7.023 3.197 15.833-28.044-7.022-3.198-15.834 28.045zM627.85 287.75l7.022 3.198 15.833-28.044-7.022-3.198-15.833 28.044zm-.011 31.189l7.022 3.197 15.833-28.044-7.022-3.198-15.833 28.045zM490.926 194.098l7.022 3.197 15.834-28.044-7.023-3.198-15.833 28.045zm-.011 31.188l7.022 3.198 15.833-28.045-7.022-3.197-15.833 28.044zm-22.811-31.105l7.022 3.198 15.833-28.045-7.022-3.197-15.833 28.044zm114.108 249.645l7.022 3.198 15.833-28.045-7.022-3.197-15.833 28.044zm-.012 31.188l7.022 3.198 15.833-28.045-7.022-3.197-15.833 28.044zm-22.766-.035l7.022 3.197 15.833-28.044-7.022-3.198-15.833 28.045zm-114.11-.015l7.023 3.197 15.833-28.044-7.023-3.198-15.833 28.045zm91.205.06l7.022 3.198 15.833-28.044-7.022-3.198-15.833 28.044zm-319.573 31.18l7.022 3.197 15.833-28.044-7.022-3.198-15.833 28.044zm22.905-.046l7.022 3.197 15.833-28.044-7.022-3.198-15.833 28.045zm114.109.014l7.022 3.198 15.833-28.044-7.022-3.198-15.833 28.044zm22.766.036l7.023 3.198 15.833-28.045-7.022-3.197-15.834 28.044zm22.905-.046l7.023 3.198 15.833-28.045-7.023-3.197-15.833 28.044zm45.63.064l7.022 3.198 15.833-28.045-7.022-3.197-15.833 28.044zm-22.863-.028l7.022 3.197 15.833-28.044-7.022-3.198-15.833 28.045zm45.671-.01l7.022 3.197 15.834-28.044-7.023-3.198-15.833 28.044zm22.863.028l7.023 3.197 15.833-28.044-7.023-3.198-15.833 28.045zm45.575-.003l7.022 3.197 15.833-28.044-7.022-3.198-15.833 28.045zm-22.766-.036l7.022 3.198 15.833-28.045-7.022-3.197-15.833 28.044zm-296.807 31.214l7.022 3.198 15.833-28.044-7.022-3.198-15.833 28.044zm-.011 31.189l7.022 3.197 15.833-28.044-7.022-3.198-15.833 28.045zm22.874-31.16l7.022 3.197 15.834-28.044-7.023-3.198-15.833 28.045zm23.723-.018l7.022 3.198 15.833-28.045-7.022-3.197-15.833 28.044zm90.428-.041l7.023 3.197 15.833-28.044-7.022-3.198-15.834 28.045zm22.767.035l7.022 3.198 15.833-28.045-7.022-3.197-15.833 28.044zm22.863.029l7.022 3.197 15.833-28.044-7.022-3.198-15.833 28.045zm45.671-.01l7.023 3.197 15.833-28.045-7.023-3.197-15.833 28.044zm-22.863-.03l7.022 3.198 15.834-28.044-7.023-3.198-15.833 28.045zm45.672-.01l7.022 3.198 15.833-28.044-7.022-3.198-15.833 28.045zm22.863.029l7.022 3.198 15.833-28.045-7.022-3.197-15.833 28.044zm45.575-.003l7.022 3.197 15.833-28.044-7.022-3.198-15.833 28.045zm-.012 31.188l7.022 3.197 15.833-28.044-7.022-3.198-15.833 28.045zm-22.755-31.224l7.022 3.198 15.833-28.045-7.022-3.197-15.833 28.044zm-273.943 31.243l7.022 3.198 15.833-28.045-7.022-3.197-15.833 28.044zm.038 31.2l7.022 3.198 15.833-28.044-7.022-3.198-15.833 28.045zm45.633-31.21l7.022 3.197 15.833-28.044-7.022-3.198-15.833 28.045zm-22.863-.029l7.022 3.198 15.833-28.044-7.022-3.198-15.833 28.044zm45.63.064l7.022 3.198 15.833-28.045-7.022-3.197-15.833 28.044zm22.905-.045l7.022 3.197 15.833-28.044-7.022-3.198-15.833 28.045zm22.766.035l7.022 3.198 15.833-28.045-7.022-3.197-15.833 28.044zm22.808-.039l7.023 3.198 15.833-28.045-7.023-3.197-15.833 28.044zm22.863.029l7.023 3.197 15.833-28.044-7.022-3.198-15.834 28.045zm45.672-.01l7.022 3.197 15.833-28.044-7.022-3.198-15.833 28.044zm-22.863-.029l7.022 3.198 15.833-28.045-7.022-3.197-15.833 28.044zm45.671-.01l7.022 3.197 15.833-28.044-7.022-3.198-15.833 28.045zm45.63.064l7.022 3.197 15.833-28.044-7.022-3.198-15.833 28.045zm.12 31.238l7.023 3.198 15.833-28.045-7.022-3.197-15.833 28.044zm-22.887-31.274l7.022 3.198 15.833-28.045-7.022-3.197-15.833 28.044zm-136.893 31.27l7.022 3.197 15.833-28.044-7.022-3.198-15.833 28.044zm22.766.035l7.023 3.197 15.833-28.044-7.023-3.198-15.833 28.045zm22.823-.084l7.022 3.198 15.833-28.044-7.022-3.198-15.833 28.044zm45.671-.01l7.022 3.198 15.833-28.045-7.022-3.197-15.833 28.044zm-22.822.084l7.022 3.197 15.833-28.044-7.022-3.198-15.833 28.045zm68.494-.094l7.022 3.197 15.833-28.044-7.022-3.198-15.833 28.045zm-22.823.083l7.022 3.198 15.833-28.045-7.022-3.197-15.833 28.044zm-182.63-.078l7.023 3.198 15.833-28.044-7.023-3.198-15.833 28.044zm-.011 31.188l7.022 3.198 15.833-28.044-7.022-3.198-15.833 28.044zm-22.811-31.104l7.022 3.197 15.833-28.044-7.022-3.198-15.833 28.045zm-.011 31.188l7.022 3.198 15.833-28.045-7.022-3.197-15.833 28.044zm68.505-31.282l7.022 3.198 15.833-28.045-7.022-3.197-15.833 28.044zm-.012 31.189l7.023 3.196 15.832-28.044-7.02-3.197-15.835 28.045zm-22.81-31.105l7.022 3.197 15.833-28.044-7.022-3.198-15.834 28.045zm-.012 31.188l7.023 3.197 15.832-28.044-7.021-3.198-15.834 28.045zm22.807-93.66l7.022 3.197 15.833-28.045-7.022-3.197-15.833 28.044zm-22.863-.03l7.022 3.198 15.833-28.044-7.022-3.198-15.833 28.045zm159.815-93.559l7.022 3.198 15.833-28.045-7.022-3.197-15.833 28.044zM468.091 475l7.022 3.198 15.833-28.045-7.022-3.197L468.091 475zm91.354-31.208l7.022 3.197 15.833-28.044-7.022-3.198-15.833 28.045zm-22.905.045l7.022 3.198 15.834-28.045-7.023-3.197-15.833 28.044zm-205.46 62.337l7.022 3.197 15.833-28.044-7.022-3.198-15.833 28.045zm-22.78.009l7.022 3.197 15.833-28.044-7.022-3.198-15.833 28.045zM513.774 443.8l7.022 3.197 15.833-28.044-7.022-3.198-15.833 28.045zm-.012 31.188l7.022 3.197 15.833-28.044-7.022-3.198-15.833 28.045zm-22.837-31.261l7.022 3.197 15.833-28.044-7.022-3.198-15.833 28.045zm-.012 31.188l7.022 3.197 15.833-28.044-7.022-3.198-15.833 28.045zm342.4-218.36l7.023 3.198 15.833-28.044-7.022-3.198-15.833 28.045zm-22.808.04l7.022 3.197 15.834-28.045-7.023-3.197-15.833 28.044zm-22.863-.03l7.022 3.198 15.833-28.044-7.022-3.197-15.833 28.044zm-22.766-.035l7.022 3.198 15.833-28.044-7.022-3.198-15.833 28.044zm-.054 31.263l7.023 3.197 15.833-28.044-7.023-3.198-15.833 28.045zm22.809-.039l7.022 3.198 15.833-28.045-7.022-3.197-15.833 28.044zm68.45-31.163l7.021 3.198 15.833-28.045-7.022-3.197-15.833 28.044zm45.67-.01l7.023 3.197 15.833-28.044-7.022-3.198-15.833 28.045zm-22.766-.036l7.022 3.198L901.84 231.7l-7.022-3.198-15.833 28.044zm-114.174 62.436l7.022 3.197 15.833-28.044-7.022-3.197-15.833 28.044zM901.74 287.77l7.022 3.198 15.833-28.045-7.022-3.197-15.833 28.044zm-.012 31.188l7.023 3.198 15.833-28.045-7.022-3.197-15.834 28.044zm-68.426-31.213l7.022 3.197 15.833-28.044-7.022-3.198-15.833 28.045zm-22.808.038l7.022 3.198 15.833-28.044-7.022-3.198-15.833 28.044zm68.438.026l7.022 3.197 15.833-28.044-7.022-3.198-15.833 28.045zm-22.863-.029l7.022 3.198 15.833-28.045-7.022-3.197-15.833 28.044zm-22.82 31.227l7.022 3.198 15.833-28.045-7.022-3.197-15.833 28.044zm-22.767-.035l7.023 3.197 15.833-28.044-7.023-3.198-15.833 28.045zm-22.863-.029l7.022 3.198 15.834-28.045-7.023-3.197-15.833 28.044zm91.301.054l7.022 3.197 15.833-28.044-7.022-3.198-15.833 28.045zm-22.78.009l7.022 3.198 15.833-28.045-7.022-3.197-15.833 28.044zm-68.442 31.25l7.022 3.197 15.833-28.044-7.022-3.198-15.833 28.045zm-22.849-.073l7.022 3.197 15.833-28.044-7.022-3.198-15.833 28.045zm136.958.088l7.023 3.197 15.833-28.044-7.023-3.198-15.833 28.045zm-22.766-.036l7.022 3.198 15.833-28.045-7.022-3.197-15.833 28.044zm-68.52-.063l7.022 3.198 15.833-28.044-7.022-3.198-15.833 28.044zm45.615.109l7.022 3.198 15.833-28.045-7.022-3.197-15.833 28.044zm-22.766-.036l7.022 3.198 15.833-28.044-7.022-3.198-15.833 28.044zm-45.683 31.2l7.022 3.197 15.833-28.045-7.022-3.197-15.833 28.044zm-22.85-.074l7.023 3.197 15.833-28.044-7.022-3.198-15.833 28.045zm91.288.098l7.022 3.198 15.833-28.045-7.022-3.197-15.833 28.044zm45.67-.01l7.023 3.198 15.833-28.045-7.022-3.197-15.833 28.044zm-22.765-.036l7.022 3.198 15.833-28.044-7.022-3.198-15.833 28.044zm-45.672.01l7.023 3.198 15.833-28.044-7.023-3.198-15.833 28.045zm-22.849-.073l7.022 3.198 15.833-28.044-7.022-3.198-15.833 28.044zm91.275 31.287l7.023 3.198L924.64 387.8l-7.023-3.197-15.833 28.044zm-114.109-.015l7.022 3.198 15.833-28.045-7.022-3.197-15.833 28.044zm-22.766-.035l7.022 3.197 15.833-28.044-7.022-3.198-15.833 28.045zm45.589-.048l7.022 3.197 15.833-28.044-7.022-3.198-15.833 28.045zm22.849.073l7.022 3.197 15.833-28.044-7.022-3.198-15.833 28.045zm45.671-.01l7.022 3.197 15.833-28.044-7.022-3.198-15.833 28.045zm-22.905.045l7.022 3.198 15.833-28.045-7.022-3.197-15.833 28.044zm251.123-.016l7.023 3.198 15.833-28.045-7.022-3.197-15.834 28.044zm-22.766-.035l7.022 3.197 15.833-28.044-7.022-3.198-15.833 28.045zm-22.95-124.831l7.023 3.197 15.833-28.044-7.022-3.198-15.833 28.045zm-22.808.038l7.023 3.198 15.833-28.044-7.023-3.198-15.833 28.044zm-91.3-.053l7.022 3.197 15.833-28.044-7.022-3.198-15.834 28.045zm-22.809.038l7.022 3.198 15.833-28.045-7.022-3.197-15.833 28.044zm-.011 31.189l7.022 3.197 15.833-28.044-7.022-3.198-15.833 28.045zm182.588-.035l7.024 3.198 15.832-28.045-7.022-3.197-15.834 28.044zm-22.796-31.149l7.022 3.198 15.833-28.045-7.022-3.197-15.833 28.044zm-.012 31.188l7.022 3.198 15.834-28.045-7.023-3.197-15.833 28.044zm-91.29-31.242l7.023 3.198 15.833-28.044-7.022-3.198-15.833 28.044zm-22.808.04l7.023 3.197 15.833-28.045-7.023-3.197-15.833 28.044zm22.756 31.223l7.022 3.197 15.833-28.044-7.022-3.198-15.833 28.045zm-22.767-.036l7.022 3.198 15.833-28.045-7.022-3.197-15.833 28.044zm-22.863-.028l7.022 3.197 15.833-28.044-7.022-3.198-15.833 28.045zm68.52.063l7.023 3.197 15.833-28.044-7.022-3.198-15.834 28.045zm45.59-.048l7.021 3.197 15.833-28.044-7.022-3.198-15.833 28.045zm-22.81.038l7.023 3.198 15.833-28.044-7.022-3.198-15.833 28.044zm68.56 31.264l7.022 3.198 15.833-28.045-7.022-3.197-15.833 28.044zm-.012 31.188l7.022 3.198 15.833-28.045-7.022-3.197-15.833 28.044zm-22.837-31.261l7.022 3.197 15.833-28.044-7.022-3.198-15.833 28.045zm.07 31.226l7.023 3.197 15.833-28.044-7.022-3.198-15.833 28.045zm-159.851-31.23l7.022 3.197 15.833-28.045-7.022-3.197-15.833 28.044zm.071 31.225l7.022 3.198 15.833-28.045-7.022-3.197-15.833 28.044zm45.6-31.236l7.022 3.198 15.833-28.045-7.022-3.197-15.833 28.044zm-22.822.083l7.022 3.198 15.833-28.044-7.022-3.198-15.833 28.044zm45.671-.01l7.023 3.198 15.833-28.045-7.023-3.197-15.833 28.044zm22.767.036l7.022 3.197 15.833-28.044-7.022-3.198-15.833 28.045zm45.671-.01l7.022 3.197 15.833-28.044-7.022-3.198-15.833 28.044zm-22.766-.036l7.022 3.197 15.833-28.044-7.022-3.198-15.833 28.045zm-91.355 31.209l7.023 3.197 15.833-28.044-7.023-3.198-15.833 28.045zm68.438.025l7.022 3.197 15.833-28.044-7.022-3.198-15.833 28.045zm-.011 31.188l7.022 3.198 15.833-28.045-7.022-3.197-15.833 28.044zm-22.755-31.224l7.022 3.198 15.833-28.045-7.022-3.197-15.833 28.044zm-22.85-.073l7.023 3.198 15.833-28.045-7.022-3.197-15.833 28.044zm91.288.098l7.022 3.198 15.833-28.044-7.022-3.198-15.833 28.044zm-.012 31.189l7.022 3.197 15.833-28.044-7.022-3.198-15.833 28.045zm-22.755-31.224l7.022 3.198 15.833-28.045-7.022-3.197-15.833 28.044zm-.011 31.188l7.022 3.198 15.833-28.045-7.022-3.197-15.833 28.044zm-91.343.02l7.022 3.198 15.833-28.044-7.022-3.198-15.833 28.045zm-22.766-.035l7.022 3.198 15.833-28.045-7.022-3.197L924.69 412.6zm68.437.026l7.022 3.197 15.834-28.044-7.023-3.198-15.833 28.045zm-22.849-.074l7.022 3.198 15.833-28.044-7.022-3.198-15.833 28.044zm-342.407 62.45l7.023 3.198 15.833-28.044-7.023-3.198-15.833 28.045zm-.011 31.189l7.022 3.198 15.833-28.045-7.022-3.197-15.833 28.044zm22.916-31.234l7.023 3.198 15.833-28.045-7.023-3.197-15.833 28.044zm22.767.036l7.022 3.197 15.833-28.044-7.022-3.198-15.833 28.045zm22.766.035l7.023 3.198 15.833-28.045-7.023-3.197-15.833 28.044zm45.672-.01l7.022 3.197 15.833-28.044-7.022-3.198-15.833 28.045zm-22.767-.036l7.023 3.198 15.833-28.045-7.023-3.197-15.833 28.044zm-68.491 31.238l7.022 3.197 15.833-28.044-7.022-3.198-15.833 28.045zm22.808-.04l7.023 3.198 15.833-28.044-7.023-3.198-15.833 28.045zm22.767.036l7.022 3.198 15.833-28.045-7.022-3.197-15.833 28.044zm45.671-.01l7.022 3.197 15.833-28.044-7.022-3.198-15.833 28.045zm-22.766-.036l7.022 3.198 15.833-28.044-7.022-3.198-15.833 28.044zM650.71 537.41l7.023 3.197 15.833-28.044-7.022-3.198-15.834 28.045zm-.011 31.188l7.022 3.197 15.833-28.044-7.022-3.198-15.833 28.045zm22.82-31.227l7.022 3.198 15.833-28.045-7.022-3.197-15.833 28.044zm-.054 31.262l7.023 3.198 15.833-28.045-7.023-3.197-15.833 28.044zm22.82-31.227l7.023 3.198 15.833-28.044-7.023-3.198-15.833 28.044zm45.672-.01l7.022 3.198 15.833-28.045-7.022-3.197-15.833 28.044zm-22.809.039l7.023 3.197 15.833-28.044-7.023-3.198-15.833 28.045zm68.469 31.139l7.022 3.198 15.833-28.045-7.022-3.197-15.833 28.044zm-22.797-31.15l7.022 3.198 15.833-28.044-7.022-3.198-15.833 28.045zm-.012 31.189l7.022 3.197 15.834-28.044-7.023-3.198-15.833 28.045zm-68.534-.018l7.022 3.197 15.833-28.044-7.022-3.198-15.833 28.045zm45.671-.01l7.022 3.197 15.833-28.045-7.022-3.197-15.833 28.044zm-22.808.038l7.022 3.198 15.833-28.045-7.022-3.197-15.833 28.044zm-22.784 31.284l7.022 3.198 15.833-28.045-7.022-3.197-15.833 28.044zm45.671-.01l7.022 3.197 15.833-28.044-7.022-3.198-15.833 28.045zm-.011 31.188l7.022 3.197 15.833-28.044-7.022-3.198-15.833 28.045zm-22.838-31.261l7.022 3.197 15.833-28.044-7.022-3.198-15.833 28.045zm.071 31.226l7.023 3.197 15.832-28.044-7.022-3.198-15.833 28.045zm45.639-156.076l7.022 3.198 15.833-28.045-7.022-3.197-15.833 28.044zm-.012 31.188l7.022 3.198 15.833-28.045-7.022-3.197-15.833 28.044zm45.618 31.252l7.022 3.198 15.833-28.045-7.022-3.197-15.833 28.044zm-22.863-.028l7.022 3.197 15.833-28.044-7.022-3.198-15.833 28.045zm22.928-62.422l7.022 3.197 15.833-28.044-7.022-3.198-15.833 28.045zm-.053 31.262l7.022 3.198 15.833-28.045-7.022-3.197-15.833 28.044zm-22.852-31.217l7.022 3.198 15.833-28.044-7.022-3.198-15.833 28.044zm-.011 31.189l7.022 3.197 15.833-28.044-7.022-3.198-15.833 28.045zM605.116 443.78l7.023 3.198 15.833-28.045-7.022-3.197-15.834 28.044zm22.767.036l7.022 3.197 15.833-28.044-7.022-3.198-15.833 28.045zm22.822-.084l7.023 3.198 15.833-28.045-7.023-3.197-15.833 28.044zm22.85.073l7.022 3.198 15.833-28.044-7.023-3.198-15.833 28.044zm22.766.036l7.022 3.197 15.833-28.044-7.022-3.198-15.833 28.045zm45.671-.01l7.022 3.197 15.833-28.044-7.022-3.198-15.833 28.045zm-22.766-.036l7.022 3.198 15.833-28.045-7.022-3.197-15.833 28.044zm22.756-218.406l7.023 3.197 15.833-28.044-7.023-3.197-15.833 28.044zm-22.766-.035l7.022 3.197 15.833-28.044-7.022-3.198-15.833 28.045zm-45.683 31.198l7.022 3.198 15.833-28.045-7.022-3.197-15.833 28.044zm-22.808.039l7.022 3.197 15.833-28.044-7.022-3.198-15.833 28.045zm45.586-31.192l7.022 3.198 15.833-28.045-7.022-3.197-15.833 28.044zm-45.598 62.38l7.022 3.197 15.833-28.044-7.022-3.198-15.833 28.045zm-.011 31.188l7.022 3.198 15.833-28.045-7.022-3.197-15.833 28.044zm-45.657 93.587l7.023 3.198 15.833-28.044-7.023-3.198-15.833 28.044zm45.695-62.386l7.022 3.197 15.833-28.044-7.022-3.198-15.833 28.045zm-22.822.083l7.022 3.198 15.833-28.045-7.022-3.197-15.833 28.044zm-22.861 31.115l7.022 3.198 15.833-28.045-7.022-3.197-15.833 28.044zm68.532-31.125l7.022 3.197 15.833-28.044-7.022-3.198-15.833 28.045zm22.77-31.24l7.022 3.198 15.833-28.044-7.022-3.198-15.833 28.044zm-22.838-31.26l7.023 3.197 15.833-28.045-7.023-3.197-15.833 28.044zm-.053 31.261l7.022 3.198 15.833-28.044-7.022-3.198-15.833 28.044zm-45.562 62.437l7.022 3.198 15.833-28.044-7.022-3.198-15.833 28.044zm-.012 31.189l7.023 3.197 15.833-28.044-7.022-3.198-15.834 28.045zm22.834-31.272l7.023 3.197 15.833-28.044-7.023-3.197-15.833 28.044zm-.011 31.188l7.022 3.198 15.833-28.045-7.022-3.197-15.833 28.044zm91.23-93.59l7.023 3.197 15.833-28.044-7.022-3.198-15.833 28.044zm-22.808.038l7.023 3.198 15.833-28.045-7.023-3.197-15.833 28.044zm-22.84-62.405l7.023 3.198 15.833-28.044-7.023-3.198-15.833 28.044zm-.011 31.189l7.022 3.197 15.833-28.044-7.022-3.198-15.833 28.045zm45.716 124.866l7.022 3.198 15.833-28.044-7.022-3.198-15.833 28.044zm.023-62.376l7.022 3.198 15.833-28.045-7.022-3.197-15.833 28.044zm-22.767-.035l7.023 3.197 15.833-28.044-7.023-3.198-15.833 28.045zm-22.905.045l7.023 3.198 15.833-28.044-7.023-3.198-15.833 28.044zm45.66 31.178l7.022 3.198 15.834-28.045-7.023-3.197-15.833 28.044zm-68.438-.025l7.023 3.198 15.833-28.045-7.023-3.197-15.833 28.044zm-.011 31.188l7.022 3.198 15.833-28.045-7.022-3.197-15.833 28.044zm45.683-31.198l7.022 3.197 15.833-28.044-7.022-3.198-15.833 28.045zm-.012 31.188l7.022 3.198 15.833-28.045-7.022-3.197-15.833 28.044zm-22.893-31.143l7.022 3.198 15.833-28.044-7.022-3.198-15.833 28.044zm-.012 31.189l7.023 3.197 15.833-28.044-7.023-3.198-15.833 28.045zm45.639-156.076l7.022 3.198 15.833-28.045-7.022-3.197-15.833 28.044zm-.012 31.188l7.022 3.198 15.834-28.045-7.023-3.197-15.833 28.044zm-22.755-31.223l7.022 3.197 15.834-28.044-7.023-3.198-15.833 28.045zm-.053 31.262l7.022 3.198 15.833-28.045-7.022-3.197-15.833 28.044zm296.708 218.423l7.022 3.197 15.833-28.044-7.022-3.198-15.833 28.045zm-22.766-.036l7.022 3.197 15.833-28.044-7.022-3.198-15.833 28.045zm-228.196-62.406l7.022 3.197 15.833-28.044-7.022-3.198-15.833 28.045zm68.438.025l7.022 3.197 15.833-28.044-7.022-3.197-15.833 28.044zm91.343-.02l7.022 3.197 15.833-28.044-7.022-3.198-15.833 28.044zm-114.192-.053l7.022 3.197 15.833-28.044-7.022-3.198-15.833 28.045zm-22.822.083l7.022 3.198 15.833-28.045-7.022-3.197-15.833 28.044zm68.438.026l7.022 3.197L878.957 419l-7.022-3.198-15.833 28.045zm45.67-.01l7.023 3.197 15.833-28.044-7.022-3.198-15.833 28.044zm-22.766-.036l7.023 3.197 15.833-28.044-7.022-3.198-15.834 28.045zm-22.916 31.234l7.022 3.197 15.833-28.044-7.022-3.198-15.833 28.045zm137.026-31.22l7.022 3.198 15.833-28.044-7.022-3.198-15.833 28.045zm-22.767-.035l7.022 3.198 15.834-28.045-7.023-3.197-15.833 28.044zm-22.905.046l7.023 3.197 15.833-28.044-7.023-3.198-15.833 28.045zm68.427 31.213l7.022 3.198 15.833-28.045-7.022-3.197-15.833 28.044zm-22.767-.035l7.023 3.197 15.833-28.044-7.023-3.198-15.833 28.045zm-91.343.02l7.023 3.198 15.833-28.044-7.023-3.198-15.833 28.044zm-.011 31.189l7.022 3.197 15.833-28.044-7.022-3.198-15.833 28.045zm-22.755-31.224l7.022 3.198 15.833-28.045-7.022-3.197-15.833 28.044zm-.012 31.188l7.023 3.198 15.833-28.045-7.023-3.197-15.833 28.044zm45.683-31.198l7.023 3.197 15.833-28.044-7.022-3.198-15.834 28.045zm45.672-.01l7.022 3.197 15.833-28.044-7.022-3.198-15.833 28.044zm-22.905.045l7.022 3.198 15.833-28.045-7.022-3.197-15.833 28.044zM422.388 69.314l7.022 3.198 15.833-28.044-7.022-3.198-15.833 28.044zm-22.808.04l7.022 3.197 15.833-28.045-7.022-3.197-15.833 28.044zm-22.784 31.283l7.022 3.198L399.65 75.79l-7.022-3.197-15.833 28.044zm22.822-.083l7.022 3.197 15.833-28.044-7.022-3.197-15.833 28.044zm45.671-.01l7.023 3.197 15.833-28.044-7.023-3.198-15.833 28.045zm-22.822.083l7.022 3.198 15.833-28.045-7.022-3.197-15.833 28.044zm-136.97 31.1l7.022 3.198 15.833-28.045-7.022-3.197-15.833 28.044zm22.85.073l7.022 3.198 15.833-28.045-7.023-3.197-15.833 28.044zm22.822-.083l7.022 3.197 15.833-28.044-7.022-3.198-15.833 28.045zm-68.54 124.846l7.022 3.198 15.833-28.045-7.022-3.197-15.833 28.044zm-91.355 31.209l7.023 3.198 15.833-28.045-7.023-3.197-15.833 28.044zm-22.766-.035l7.022 3.197 15.833-28.044-7.022-3.198-15.833 28.045zm91.377-93.586l7.023 3.198 15.833-28.044-7.023-3.198-15.833 28.044zm22.79-62.34l7.022 3.197 15.833-28.044-7.022-3.198-15.833 28.044zm-22.85-.074l7.023 3.198 15.833-28.044-7.022-3.198-15.833 28.044zm.072 31.226l7.022 3.198 15.833-28.045-7.022-3.197-15.833 28.044zm114.12-31.173l7.023 3.197 15.833-28.044-7.022-3.197-15.833 28.044zm45.672-.01l7.022 3.197 15.833-28.044-7.022-3.198-15.833 28.045zm-22.905.045l7.022 3.198 15.833-28.044-7.022-3.198-15.833 28.044zm-.011 31.189l7.022 3.197 15.833-28.044-7.022-3.198-15.833 28.045zm68.505-31.282l7.022 3.197 15.833-28.044-7.022-3.198-15.833 28.045zm-22.822.083l7.022 3.198 15.833-28.045-7.022-3.197-15.833 28.044zm-68.45 31.163l7.022 3.198 15.833-28.045-7.022-3.197-15.833 28.044zm-22.849-.073l7.022 3.198 15.833-28.045-7.022-3.197-15.833 28.044zm68.52.063l7.023 3.197 15.833-28.044-7.022-3.198-15.833 28.045zm91.245-93.635l7.023 3.197 15.833-28.044-7.022-3.198-15.834 28.045zm-22.863-.029l7.023 3.198 15.833-28.045-7.023-3.197-15.833 28.044zm.08 31.313l7.022 3.197 15.833-28.044-7.022-3.198-15.834 28.045zm-205.487 93.57l7.022 3.197 15.833-28.044-7.022-3.198-15.833 28.045zm-22.778 31.153l7.022 3.197 15.833-28.044-7.022-3.198-15.833 28.045zm-22.905.045l7.022 3.198 15.833-28.044-7.022-3.198-15.833 28.044zm-22.778 31.153l7.022 3.198 15.833-28.045-7.022-3.197-15.833 28.044zm205.475-62.382l7.022 3.198 15.833-28.045-7.022-3.197-15.833 28.044zm22.778-31.153l7.022 3.198 15.833-28.044-7.022-3.198-15.833 28.044zM194.179 287.726l7.023 3.198 15.833-28.045-7.023-3.197-15.833 28.044zm45.683-31.198l7.023 3.197 15.833-28.044-7.023-3.198-15.833 28.045zm-22.905.046l7.023 3.197 15.833-28.044-7.023-3.198-15.833 28.045zm91.378-93.586l7.022 3.198 15.833-28.044-7.022-3.198-15.833 28.044zm-22.85-.073l7.023 3.198 15.833-28.044-7.022-3.198-15.833 28.044zm-22.822.084l7.023 3.197 15.833-28.044-7.023-3.198L262.663 163zm-.046 124.752l7.022 3.198 15.834-28.044-7.023-3.198-15.833 28.044zm-22.808.039l7.022 3.198 15.833-28.045-7.022-3.197-15.833 28.044zm-22.863-.028l7.022 3.197 15.833-28.044-7.022-3.198-15.833 28.045zm388.122 62.416l7.023 3.198 15.833-28.045-7.022-3.197-15.834 28.044zm-22.822.083l7.022 3.198 15.833-28.045-7.022-3.197-15.833 28.044zm-251.1-156.168l7.022 3.198L354 169.246l-7.022-3.197-15.833 28.044zm-45.6 31.236l7.021 3.198 15.833-28.044-7.022-3.198-15.833 28.044zm22.766.036l7.022 3.197 15.833-28.044-7.022-3.198-15.833 28.045zm22.822-.084l7.022 3.198 15.833-28.044-7.022-3.198-15.833 28.044zm-45.642 31.31l7.022 3.198 15.833-28.044-7.022-3.198-15.833 28.045zm22.808-.038l7.022 3.197 15.833-28.044-7.022-3.198-15.833 28.045zm45.672-.01l7.022 3.197 15.833-28.044-7.022-3.198-15.833 28.045zm-22.809.038l7.023 3.198 15.833-28.045-7.023-3.197-15.833 28.044zm91.246-.013l7.023 3.197 15.833-28.044-7.022-3.198-15.834 28.045zm-22.766-.036l7.022 3.198 15.833-28.045-7.022-3.197-15.833 28.044zm-23.072.046l7.022 3.198 15.833-28.045-7.022-3.197-15.833 28.044zm-.011 31.188l7.022 3.198 15.833-28.045-7.022-3.197-15.833 28.044zm-22.6-.035l7.022 3.197 15.833-28.044-7.022-3.198-15.833 28.045zm68.327 93.714l7.022 3.198 15.833-28.045-7.022-3.197-15.833 28.044zm91.343-.02l7.022 3.197 15.833-28.044-7.022-3.198-15.833 28.044zm-22.85-.074l7.023 3.198 15.833-28.045-7.022-3.197-15.833 28.044zm45.783.109l7.022 3.197 15.834-28.044-7.023-3.198-15.833 28.045zm22.905-.046l7.022 3.198 15.833-28.045-7.022-3.197-15.833 28.044zm-68.532 31.126l7.022 3.197 15.833-28.044-7.022-3.198-15.833 28.045zm-159.792 31.183l7.022 3.198L354 418.876l-7.022-3.197-15.833 28.044zM262.64 225.375l7.023 3.198 15.833-28.045-7.023-3.197-15.833 28.044zm91.355-31.209l7.022 3.198 15.833-28.045-7.022-3.197-15.833 28.044zm-.012 31.188l7.022 3.198 15.833-28.044-7.022-3.198-15.833 28.044zm22.778-31.152l7.022 3.197 15.833-28.044-7.022-3.198-15.833 28.045zm-.011 31.188l7.022 3.198 15.833-28.045-7.022-3.197-15.833 28.044zm-68.427-31.213l7.022 3.197 15.833-28.044-7.022-3.198-15.833 28.045zm-22.849-.074l7.022 3.198 15.833-28.044-7.022-3.198-15.833 28.044zm228.311 218.51l7.022 3.197 15.834-28.044-7.023-3.198-15.833 28.045zM399.487 225.344l7.023 3.198 15.833-28.045-7.022-3.197-15.834 28.044zm136.92 124.928l7.023 3.197 15.833-28.044-7.022-3.198-15.833 28.045zm-22.599-.036l7.022 3.198 15.833-28.045-7.022-3.197-15.833 28.044zm45.422-.048l7.022 3.198 15.833-28.045-7.022-3.197-15.833 28.044zm22.993 62.45l7.022 3.197 15.833-28.044-7.022-3.198-15.833 28.045zm.012-31.188l7.022 3.197 15.833-28.044-7.022-3.198-15.833 28.045zm-22.778 31.152l7.022 3.198 15.833-28.045-7.022-3.197-15.833 28.044zm-22.905.046l7.022 3.198 15.833-28.045-7.022-3.197-15.833 28.044zm-182.645-93.655l7.022 3.198 15.833-28.045-7.022-3.197-15.833 28.044zm.12 31.239l7.023 3.197 15.833-28.044-7.022-3.198-15.833 28.045zm136.917-93.646l7.022 3.198 15.833-28.045-7.022-3.197-15.833 28.044zm-.012 31.188l7.023 3.198 15.833-28.045-7.022-3.197-15.834 28.044zm-.011 31.188l7.022 3.198 15.833-28.044-7.022-3.198-15.833 28.044zM376.748 475.02l7.022 3.197 15.833-28.044-7.022-3.198-15.833 28.045zm22.905-.046l7.022 3.198 15.833-28.045-7.022-3.197-15.833 28.044zm22.766.035l7.023 3.198 15.833-28.044-7.022-3.198-15.834 28.044zm-68.438-.025l7.023 3.198 15.833-28.045-7.022-3.197-15.834 28.044zm-22.849-.073l7.023 3.198 15.833-28.045-7.023-3.197-15.833 28.044zm114.194-249.577l7.022 3.198 15.833-28.045-7.022-3.197-15.833 28.044zm-.053 31.262l7.022 3.198 15.833-28.045-7.022-3.197-15.833 28.044zm22.808-.038l7.022 3.197 15.833-28.044-7.022-3.198-15.833 28.045zm-68.491 31.237l7.022 3.197 15.833-28.044-7.022-3.198-15.833 28.045zm68.39-.05l7.023 3.198 15.833-28.044-7.022-3.198-15.833 28.045zm-22.719.04l7.022 3.197 15.833-28.044-7.022-3.198-15.833 28.045zm-22.863-.03l7.022 3.198 15.833-28.044-7.022-3.197-15.833 28.044zm-45.683 31.2l7.022 3.197 15.833-28.044-7.022-3.198-15.833 28.044zm.08 31.312l7.021 3.198 15.833-28.045-7.022-3.197-15.833 28.044zm68.454-31.294l7.023 3.197 15.833-28.044-7.022-3.198-15.834 28.045zm22.809-.04l7.022 3.198 15.833-28.044-7.022-3.197-15.833 28.044zm-22.77 31.24l7.022 3.198 15.833-28.045-7.022-3.197-15.833 28.044zm-.179 31.188l7.023 3.198 15.833-28.044-7.023-3.198-15.833 28.044zm23.028-31.115l7.022 3.198 15.833-28.044-7.022-3.198-15.833 28.044zm-91.354 31.21l7.022 3.197 15.833-28.045-7.022-3.197-15.833 28.044zm22.737-.047l7.023 3.198 15.833-28.044-7.023-3.198-15.833 28.044zm68.438.026l7.022 3.197 15.834-28.044-7.023-3.198-15.833 28.045zm-68.282 31.163l7.022 3.197 15.833-28.044-7.022-3.198-15.833 28.045zm-22.905.045l7.022 3.198 15.833-28.045-7.022-3.197-15.833 28.044zm68.494-.093l7.022 3.197 15.833-28.044-7.022-3.198-15.833 28.045zm-22.823.083l7.023 3.198 15.833-28.045-7.023-3.197-15.833 28.044zm45.672-.01l7.022 3.197 15.833-28.044-7.022-3.198-15.833 28.045zm-45.728-93.679l7.023 3.198 15.833-28.045-7.023-3.197-15.833 28.044zm.08 31.313l7.022 3.197 15.833-28.044-7.023-3.198-15.833 28.045zm-22.888-31.274l7.022 3.197 15.833-28.044-7.022-3.197-15.833 28.044zm.038 31.2l7.022 3.198 15.834-28.044-7.023-3.198-15.833 28.045zm-45.623 93.613l7.022 3.198 15.833-28.045-7.022-3.197-15.833 28.044zm22.766.036l7.023 3.197 15.833-28.044-7.023-3.198-15.833 28.045zm22.905-.046l7.023 3.197 15.833-28.044-7.023-3.198-15.833 28.045zm45.672-.01l7.022 3.197 15.833-28.044-7.022-3.198-15.833 28.045zm-22.905.045l7.022 3.198 15.833-28.045-7.022-3.197-15.833 28.044zm68.528-93.658l7.022 3.198 15.834-28.045-7.023-3.197-15.833 28.044zM422.421 225.38l7.022 3.197 15.833-28.044-7.022-3.198-15.833 28.045zm45.671-.01l7.023 3.197 15.833-28.044-7.023-3.198-15.833 28.044zM354.005 412.607l7.022 3.197 15.833-28.044-7.022-3.198-15.833 28.045zm.011-31.188l7.022 3.197 15.833-28.044-7.022-3.198-15.833 28.045zm-22.864-93.65l7.022 3.197 15.833-28.044-7.022-3.198-15.833 28.044zm.825 30.668l7.022 3.198 15.833-28.044-7.022-3.198-15.833 28.044zm-23.158 0l7.023 3.198 15.833-28.044-7.022-3.198-15.834 28.044zm-90.776 30.778l7.022 3.198 15.833-28.045-7.022-3.197-15.833 28.044zm23.157 0l7.023 3.198 15.833-28.045-7.023-3.197-15.833 28.044zm45.389 0l7.022 3.198 15.833-28.045-7.022-3.197-15.833 28.044zm-23.158 0l7.022 3.198 15.834-28.045-7.023-3.197-15.833 28.044zm68.546 62.388l7.022 3.197 15.833-28.044-7.022-3.198-15.833 28.045zm-45.388-30.778l7.022 3.198 15.833-28.045-7.022-3.197-15.833 28.044zm-23.158 0l7.022 3.198 15.834-28.045-7.023-3.197-15.833 28.044zm-22.23 30.778l7.022 3.197 15.833-28.044-7.023-3.198-15.833 28.045zm0 31.61l7.022 3.197 15.833-28.044-7.023-3.198-15.833 28.044zm67.618-31.61l7.023 3.197 15.833-28.044-7.022-3.198-15.834 28.045zm-22.23 0l7.022 3.197 15.833-28.044-7.022-3.198-15.833 28.045zm0 31.61l7.022 3.197 15.833-28.044-7.022-3.198-15.833 28.044zm-22.83-.464l7.022 3.197 15.833-28.044-7.022-3.198-15.833 28.045zm68.528-93.659l7.022 3.198 15.833-28.045-7.022-3.197-15.833 28.044zm-68.856 62.513l7.022 3.197 15.834-28.044-7.023-3.198-15.833 28.045zm46.315-62.388l7.022 3.198 15.833-28.045-7.022-3.197-15.833 28.044zm-.927 31.61l7.023 3.198 15.833-28.045-7.022-3.197-15.834 28.044zm-68.545-62.388l7.022 3.198 15.833-28.044-7.022-3.198-15.833 28.044zm-22.23 0l7.021 3.198 15.833-28.044-7.022-3.198-15.833 28.044zm91.353-31.764l7.023 3.198 15.833-28.045-7.022-3.197-15.834 28.044zm22.58 94.152l7.022 3.198 15.833-28.045-7.022-3.197-15.833 28.044z" fill="#F7F7F5" fill-rule="evenodd"/></svg>