<svg viewBox="0 0 117 41" xmlns="http://www.w3.org/2000/svg" xmlns:xlink="http://www.w3.org/1999/xlink"><title>Logo_freitag_hover</title><defs><path id="a" d="M0 39.75h116.952V.444H0z"/></defs><g fill="none" fill-rule="evenodd"><path fill="#1D1D1B" d="M0 40.182h116.952V.877H0z"/><path fill="#FEFEFE" d="M12.995 24.969h5.317v-2.115h6.378v-2.59h-6.378v-.868h6.378v-2.91H12.995z"/><g transform="translate(0 .432)"><path d="M26.625 24.537v-8.484h9.958c2.386 0 3.785.89 3.785 2.495 0 1.687-1.62 2.376-3.27 2.484l3.653 3.505h-6.29l-2.489-2.733h-.03v2.733h-5.317zm5.318-6.155v1.699h1.635c1.208 0 1.473-.32 1.473-.95 0-.536-.442-.75-1.385-.75h-1.723zM42.356 24.537h11.871v-2.222h-6.554v-.796h6.554v-1.973h-6.554v-.808h6.554v-2.685H42.356z" fill="#FEFEFE"/><mask id="b" fill="#fff"><use xlink:href="#a"/></mask><path fill="#FEFEFE" mask="url(#b)" d="M56.203 24.537h5.318v-8.484h-5.318zM66.435 24.537h5.318v-5.145h3.122v-3.339H63.313v3.339h3.122zM75.026 24.537h5.42l.398-1.082h3.52l.339 1.082h5.494l-3.388-8.484h-8.425l-3.358 8.484zm8.705-3.41h-2.283l1.105-3.102h.044l1.134 3.101zM103.905 20.223h-4.86v2.341h-.767c-1.34 0-2.283-.523-2.283-1.841 0-1.593 1.885-1.735 3.403-1.735 1.34 0 3.034.083 4.345.25v-2.983c-2.224-.261-3.55-.452-5.95-.452-3.86 0-7.115 1.046-7.115 4.527 0 3.16 2.725 4.456 6.878 4.456 2.696 0 4.42-.238 6.349-.748v-3.815zM109.276 17.5c0 1.077-.803 1.933-1.881 1.933-1.078 0-1.88-.85-1.88-1.928 0-1.076.802-1.932 1.88-1.932 1.078 0 1.88.85 1.88 1.927"/><path d="M108.926 17.5c0-.919-.61-1.591-1.531-1.591-.922 0-1.531.677-1.531 1.596 0 .92.609 1.592 1.53 1.592.923 0 1.532-.678 1.532-1.597" fill="#1D1D1B" mask="url(#b)"/><path d="M107.827 17.679l.37.798h-.38l-.333-.741h-.391v.74h-.35v-2.01h.735c.38 0 .709.22.709.63 0 .262-.115.472-.36.583" fill="#FEFEFE" mask="url(#b)"/><path d="M107.478 17.41c.209 0 .344-.094.344-.314 0-.205-.156-.305-.344-.305h-.39v.62h.39z" fill="#1D1D1B" mask="url(#b)"/></g></g></svg>