<svg viewBox="0 0 165 18" xmlns="http://www.w3.org/2000/svg" xmlns:xlink="http://www.w3.org/1999/xlink"><title>Logo_sbb_hover</title><defs><path id="a" d="M0 18.548h164.778V0H0z"/></defs><g fill="none" fill-rule="evenodd"><path d="M0-30.157h165v80H0z"/><g transform="translate(0 .167)"><path d="M86.301 12.91c1.503 0 2.247-.527 2.247-1.612 0-1.141-.726-1.65-2.373-1.65h-2.533v3.261h2.66zm-.108-5.198c1.286 0 2.03-.506 2.03-1.358 0-.976-.672-1.43-2.066-1.43h-2.515v2.788h2.551zm.364-4.833c2.641 0 4.144 1.123 4.144 3.077 0 1.07-.506 1.864-1.684 2.481 1.503.56 2.138 1.503 2.138 3.06 0 2.117-1.666 3.457-4.309 3.457h-5.74V2.879h5.45zm-12.168 10.03c1.503 0 2.246-.526 2.246-1.61 0-1.142-.725-1.65-2.373-1.65h-2.478v3.26h2.605zm-.109-5.197c1.286 0 2.03-.506 2.03-1.358 0-.976-.671-1.43-2.065-1.43h-2.461v2.788h2.496zm.364-4.833c2.642 0 4.144 1.123 4.144 3.077 0 1.07-.506 1.864-1.683 2.481 1.503.56 2.138 1.503 2.138 3.06 0 2.117-1.667 3.457-4.31 3.457H69.25V2.879h5.395zM64.542 6.462c-.145-1.231-.87-1.791-2.336-1.791-1.25 0-2.027.542-2.027 1.412 0 .725.488 1.159 1.484 1.34l2.172.38c2.318.397 3.568 1.629 3.568 3.513 0 2.37-1.921 3.89-4.962 3.89-3.223 0-5.069-1.556-5.123-4.29h2.571c.163 1.575.94 2.246 2.66 2.246 1.322 0 2.264-.69 2.264-1.647 0-.762-.506-1.232-1.484-1.412l-1.973-.362C58.84 9.27 57.68 8.182 57.68 6.245c0-2.207 1.773-3.62 4.67-3.62 2.843 0 4.598 1.431 4.67 3.837h-2.478zM121.95 5.05v2.843h5.428v2.101h-5.427v4.96h-2.536V2.879h8.492V5.05h-5.956zm-10.61 0v2.843h5.36v2.101h-5.36v4.96h-2.536V2.879h8.42V5.05h-5.884zm-4.31 5.65c-.18 2.77-2.207 4.507-5.248 4.507-3.405 0-5.65-2.479-5.65-6.263 0-3.767 2.301-6.318 5.704-6.318 2.915 0 4.87 1.611 5.086 4.164h-2.515c-.291-1.376-1.14-2.047-2.553-2.047-1.918 0-3.168 1.629-3.168 4.182 0 2.518 1.231 4.183 3.114 4.183 1.557 0 2.424-.762 2.698-2.409h2.533zM161.542 6.462c-.144-1.231-.867-1.791-2.336-1.791-1.247 0-2.024.542-2.024 1.412 0 .725.487 1.16 1.482 1.34l2.174.38c2.318.397 3.565 1.629 3.565 3.513 0 2.37-1.92 3.89-4.962 3.89-3.222 0-5.066-1.556-5.12-4.29h2.567c.162 1.575.945 2.246 2.662 2.246 1.324 0 2.264-.69 2.264-1.647 0-.762-.506-1.232-1.483-1.412l-1.974-.362c-2.518-.472-3.674-1.559-3.674-3.495 0-2.208 1.77-3.62 4.668-3.62 2.842 0 4.6 1.43 4.672 3.836h-2.48zm-14.61-1.412v2.843h5.396v2.101h-5.396v4.96h-2.535V2.879h8.455V5.05h-5.92zm-10.737 0v2.843h5.432v2.101h-5.432v4.96h-2.53V2.879h8.486V5.05h-5.956z" fill="#1D1D1B"/><mask id="b" fill="#fff"><use xlink:href="#a"/></mask><path fill="#E20714" mask="url(#b)" d="M0 17.254h51.741V0H0z"/><path fill="#FEFEFE" mask="url(#b)" d="M31.61 14.377h3.348l-4.507-4.418h5.594v4.418h2.644V9.959h5.594l-4.509 4.418h3.35l5.738-5.74-5.738-5.758h-3.35l4.509 4.436h-5.594V2.88h-2.644v4.436H30.45l4.507-4.436H31.61l-5.738 5.758z"/></g></g></svg>