<svg xmlns="http://www.w3.org/2000/svg" viewBox="0 0 24 24"><path d="M12 5.5c-1.516 0-2.75-1.234-2.75-2.75S10.484 0 12 0s2.75 1.234 2.75 2.75S13.516 5.5 12 5.5zM12 1c-.965 0-1.75.785-1.75 1.75S11.035 4.5 12 4.5s1.75-.785 1.75-1.75S12.965 1 12 1zM7.5 10c-.155 0-.299-.07-.395-.193-.096-.123-.128-.28-.09-.431.465-1.825 1.888-3.248 3.713-3.713.417-.106.844-.16 1.271-.16 2.353 0 4.403 1.593 4.984 3.874.038.151.006.308-.089.43-.093.121-.241.193-.394.193h-9zm8.303-1c-.65-1.507-2.138-2.497-3.804-2.497-.343 0-.688.043-1.023.129C9.721 6.952 8.704 7.825 8.197 9h7.606zM5 19.5c-1.516 0-2.75-1.234-2.75-2.75S3.484 14 5 14s2.75 1.234 2.75 2.75S6.516 19.5 5 19.5zM5 15c-.965 0-1.75.785-1.75 1.75S4.035 18.5 5 18.5s1.75-.785 1.75-1.75S5.965 15 5 15zM.5 24c-.156 0-.3-.071-.395-.193-.094-.121-.128-.282-.089-.43.465-1.825 1.888-3.248 3.713-3.713.42-.107.851-.162 1.28-.162.916 0 1.821.25 2.617.722 1.182.702 2.019 1.821 2.359 3.153.038.148.004.309-.09.43-.095.122-.239.193-.395.193h-9zm8.303-1c-.344-.796-.934-1.468-1.688-1.916-.642-.381-1.37-.583-2.108-.583-.345 0-.693.044-1.032.13-1.254.321-2.271 1.194-2.778 2.369h7.606zM19 19.5c-1.516 0-2.75-1.234-2.75-2.75S17.484 14 19 14s2.75 1.234 2.75 2.75S20.516 19.5 19 19.5zm0-4.5c-.965 0-1.75.785-1.75 1.75s.785 1.75 1.75 1.75 1.75-.785 1.75-1.75S19.965 15 19 15zM14.5 24c-.153 0-.301-.072-.395-.193-.094-.12-.127-.281-.089-.43.465-1.825 1.888-3.248 3.713-3.713.42-.107.851-.162 1.279-.162.916 0 1.821.25 2.617.722 1.182.702 2.019 1.821 2.359 3.153.038.149.004.31-.09.43-.093.121-.241.193-.394.193h-9zm8.303-1c-.344-.796-.934-1.468-1.688-1.916-.642-.381-1.371-.583-2.108-.583-.345 0-.692.044-1.031.13-1.255.32-2.272 1.194-2.779 2.368h7.606zM12 20.003c-1.092 0-2.164-.209-3.187-.621-.256-.103-.38-.395-.277-.651.077-.19.259-.313.464-.313.064 0 .126.012.186.036.904.364 1.85.549 2.814.549s1.91-.184 2.813-.548c.061-.024.123-.036.187-.036.205 0 .387.123.464.313.103.256-.021.547-.276.651-1.024.411-2.096.62-3.188.62zM19.938 13c-.02 0-.04-.001-.06-.004-.135-.017-.253-.084-.335-.189-.082-.105-.118-.236-.102-.369.351-2.809-.884-5.545-3.224-7.139-.11-.075-.185-.189-.209-.32-.025-.131.003-.264.078-.375.093-.136.247-.218.413-.218.101 0 .198.03.281.087 2.651 1.806 4.051 4.906 3.653 8.089-.03.25-.243.438-.495.438zM4.062 13c-.252 0-.465-.188-.496-.438-.398-3.183 1.001-6.283 3.652-8.089.084-.057.181-.087.282-.087.166 0 .32.082.413.219.075.11.103.243.078.375-.025.131-.099.245-.21.32-2.339 1.594-3.575 4.33-3.223 7.139.017.132-.019.263-.101.369s-.2.173-.333.189c-.022.002-.042.003-.062.003z"/></svg>