<svg xmlns="http://www.w3.org/2000/svg" viewBox="0 0 24 24"><path d="M18.5 6h5c.3 0 .5-.2.5-.5v-5c0-.3-.2-.5-.5-.5h-5c-.3 0-.5.2-.5.5v2c-3.4.3-6 3.1-6 6.5v3H6V9.5c0-.3-.2-.5-.5-.5h-5c-.3 0-.5.2-.5.5v5c0 .3.2.5.5.5h5c.3 0 .5-.2.5-.5V13h6v2c0 3.4 2.6 6.2 6 6.5v2c0 .3.2.5.5.5h5c.3 0 .5-.2.5-.5v-5c0-.3-.2-.5-.5-.5h-5c-.3 0-.5.2-.5.5v2c-2.8-.3-5-2.6-5-5.5v-2h5v1.5c0 .3.2.5.5.5h5c.3 0 .5-.2.5-.5v-5c0-.3-.2-.5-.5-.5h-5c-.3 0-.5.2-.5.5V12h-5V9c0-2.9 2.2-5.2 5-5.5v2c0 .3.2.5.5.5zM5 14H1v-4h4v4zm14 5h4v4h-4v-4zm0-9h4v4h-4v-4zm0-9h4v4h-4V1z"/></svg>