<svg xmlns="http://www.w3.org/2000/svg" viewBox="0 0 24 24"><path d="M12 5c-3.6 0-6.5 2.9-6.5 6.5 0 2.9 1.9 5.4 4.5 6.2v.8c0 .3.2.5.5.5h3c.3 0 .5-.2.5-.5v-.8c2.6-.8 4.5-3.3 4.5-6.2C18.5 7.9 15.6 5 12 5zm1.4 11.8c-.2.1-.4.3-.4.5v.7h-2v-.7c0-.2-.2-.4-.4-.5-2.4-.5-4.1-2.8-4.1-5.3C6.5 8.5 9 6 12 6s5.5 2.5 5.5 5.5c0 2.5-1.7 4.8-4.1 5.3zm-.9 5.2h-1c-.3 0-.5.2-.5.5s.2.5.5.5h1c.3 0 .5-.2.5-.5s-.2-.5-.5-.5zm1-2h-3c-.3 0-.5.2-.5.5s.2.5.5.5h3c.3 0 .5-.2.5-.5s-.2-.5-.5-.5zM12 4c.3 0 .5-.2.5-.5v-2c0-.3-.2-.5-.5-.5s-.5.2-.5.5v2c0 .3.2.5.5.5zm10 7h-2c-.3 0-.5.2-.5.5s.2.5.5.5h2c.3 0 .5-.2.5-.5s-.2-.5-.5-.5zM4 11H2c-.3 0-.5.2-.5.5s.2.5.5.5h2c.3 0 .5-.2.5-.5S4.3 11 4 11zm1.9-4.8c.1.1.3.1.4.1s.3 0 .4-.1c.2-.2.2-.5 0-.7L4.6 3.3c-.2-.2-.6-.2-.8 0-.2.2-.2.5 0 .7l2.1 2.2zm11.8.1c.1 0 .3 0 .4-.1l2.1-2.1c.2-.2.2-.5 0-.7-.2-.2-.5-.2-.7 0l-2.1 2.1c-.2.2-.2.5 0 .7 0 .1.2.1.3.1z"/></svg>