<svg xmlns="http://www.w3.org/2000/svg" viewBox="0 0 24 24"><path d="M23.5,0.982h-23c-0.276,0-0.5,0.224-0.5,0.5v16c0,0.276,0.224,0.5,0.5,0.5H7v3.5c0,0.202,0.122,0.385,0.309,0.462 c0.062,0.025,0.127,0.038,0.191,0.038c0.13,0,0.258-0.051,0.354-0.146l3.854-3.854H23.5c0.276,0,0.5-0.224,0.5-0.5v-16 C24,1.206,23.776,0.982,23.5,0.982z M23,16.982H11.5c-0.133,0-0.26,0.053-0.354,0.146L8,20.275v-2.793c0-0.276-0.224-0.5-0.5-0.5 H1v-15h22V16.982z"/><path d="M11.706,14.887c0.087,0.063,0.191,0.096,0.294,0.096s0.207-0.032,0.294-0.096C12.527,14.718,18,10.7,18,7.52 c0-2.085-1.446-3.347-2.874-3.517C14.104,3.887,12.79,4.308,12,5.762c-0.79-1.453-2.097-1.875-3.126-1.759 C7.446,4.173,6,5.435,6,7.52C6,10.7,11.473,14.718,11.706,14.887z M8.992,4.996c0.074-0.009,0.15-0.014,0.227-0.014 c0.879,0,1.883,0.6,2.295,2.312c0.108,0.449,0.864,0.449,0.973,0c0.447-1.862,1.596-2.411,2.522-2.299 C15.998,5.113,17,6.018,17,7.52c0,2.084-3.37,5.093-5,6.339c-1.63-1.246-5-4.253-5-6.339C7,6.018,8.002,5.113,8.992,4.996z"/></svg>
