<svg xmlns="http://www.w3.org/2000/svg" viewBox="0 0 24 24"><path d="M8 23c-.276 0-.5-.224-.5-.5v-3.136c.001-.794-.232-1.562-.673-2.222l-1.143-1.71c-.136-.226-.33-.372-.567-.431a.90567.90567 0 0 0-.219-.027c-.162 0-.322.044-.462.128l-.041.026c-.372.248-.503.743-.3 1.148l1.333 2.216c.142.236.066.544-.171.686-.077.048-.166.072-.257.072-.175 0-.339-.093-.429-.243l-1.352-2.25c-.154-.304-.224-.626-.214-.949A.3541.3541 0 0 1 3 15.75V12c0-.551-.449-1-1-1s-1 .449-1 1v5.171c0 .905.311 1.793.876 2.5l2.014 2.517c.172.215.137.531-.078.703-.088.07-.199.109-.312.109-.153 0-.295-.068-.391-.188l-2.014-2.517C.389 19.412 0 18.302 0 17.171V12c0-1.103.897-2 2-2s2 .897 2 2v2.2c.276-.149.584-.227.896-.227.155 0 .312.019.464.057.493.123.907.431 1.168.866l1.13 1.689c.551.825.842 1.786.841 2.778V22.5c.001.276-.223.5-.499.5zM20.5 23c-.113 0-.224-.039-.312-.109-.215-.173-.25-.488-.078-.703l2.014-2.517c.566-.707.877-1.594.877-2.5V12c0-.551-.448-1-1-1s-1 .449-1 1v3.75c0 .01-.001.023-.003.036.015.325-.052.648-.197.937l-1.372 2.284c-.091.15-.255.242-.429.242-.09 0-.179-.024-.257-.071-.236-.143-.313-.45-.171-.687l1.353-2.25c.185-.372.046-.87-.325-1.117l-.034-.021a.89626.89626 0 0 0-.463-.129c-.316 0-.613.167-.774.437l-1.156 1.73c-.441.66-.673 1.428-.673 2.222V22.5c0 .276-.224.5-.5.5s-.5-.224-.5-.5v-3.136c-.001-.992.29-1.953.842-2.778l1.143-1.71c.25-.418.662-.722 1.155-.845.152-.038.309-.057.464-.057.312 0 .62.078.897.227V12c0-1.103.897-2 2-2s2 .897 2 2v5.171c0 1.132-.389 2.241-1.095 3.125l-2.014 2.517c-.098.119-.24.187-.392.187zM16.5 10.5c-.134 0-.259-.052-.354-.146S16 10.134 16 10s.052-.259.146-.354L19.793 6l-3.646-3.646C16.052 2.259 16 2.134 16 2s.052-.259.146-.354.22-.146.354-.146.259.052.354.146l4 4c.094.095.146.221.146.354s-.052.259-.146.354l-4 4c-.095.094-.22.146-.354.146zM8.5 10.5c-.134 0-.259-.052-.354-.146l-4-4C4.052 6.259 4 6.134 4 6s.052-.259.146-.354l4-4c.095-.094.22-.146.354-.146s.259.052.354.146S9 1.867 9 2s-.052.259-.146.354L5.207 6l3.646 3.646c.095.095.147.221.147.354s-.052.259-.146.354-.22.146-.354.146zM11.5 11c-.036 0-.073-.004-.109-.012-.13-.029-.242-.107-.313-.22-.072-.113-.095-.247-.066-.377l2-9c.05-.226.256-.391.488-.391.036 0 .072.004.107.012.27.06.44.327.381.596l-2 9c-.05.228-.255.392-.488.392z"/></svg>