<svg xmlns="http://www.w3.org/2000/svg" viewBox="0 0 24 24"><title>data-science</title><path d="M6 11h12a2 2 0 0 0 2-2V3a2 2 0 0 0-2-2H6a2 2 0 0 0-2 2v6a2 2 0 0 0 2 2zM5 3a1 1 0 0 1 1-1h12a1 1 0 0 1 1 1v6a1 1 0 0 1-1 1H6a1 1 0 0 1-1-1z"/><path d="M8 8a2 2 0 1 0-2-2 2 2 0 0 0 2 2zm0-3a1 1 0 1 1-1 1 1 1 0 0 1 1-1zM16 8a2 2 0 1 0-2-2 2 2 0 0 0 2 2zm0-3a1 1 0 1 1-1 1 1 1 0 0 1 1-1zM13.5 12h-3a.5.5 0 0 0 0 1h3a.5.5 0 0 0 0-1zM13.5 14h-3a.5.5 0 0 0 0 1h3a.5.5 0 0 0 0-1z"/><path d="M24 12a3 3 0 0 0-.6-1.8.49.49 0 0 0-.7-.1.5.5 0 0 0-.1.7 2 2 0 1 1-3.2 2.4.51.51 0 0 0-.7-.1.5.5 0 0 0-.1.7A3 3 0 0 0 21 15a2.88 2.88 0 0 0 .59-.06l.35 1.61-2.33 1.84.39-1.79a.49.49 0 0 0-.49-.6H4.5a.51.51 0 0 0-.39.19.52.52 0 0 0-.1.42l.38 1.78-2.33-1.84.35-1.61A2.88 2.88 0 0 0 3 15a3 3 0 0 0 2.4-1.2.5.5 0 1 0-.8-.6A2 2 0 0 1 3 14a2 2 0 0 1-1.6-3.2.5.5 0 1 0-.8-.6A3 3 0 0 0 0 12a3 3 0 0 0 1.47 2.57L1 16.64a.5.5 0 0 0 .18.5l3.5 2.75.8 3.73A.5.5 0 0 0 6 24h12a.5.5 0 0 0 .49-.4l.8-3.73 3.5-2.75a.5.5 0 0 0 .18-.5l-.46-2.07A3 3 0 0 0 24 12zM9 23v-3h6v3zm8.6 0H16v-3.5a.5.5 0 0 0-.5-.5h-7a.5.5 0 0 0-.5.5V23H6.4l-1.28-6h13.76z"/></svg>