<svg xmlns="http://www.w3.org/2000/svg" viewBox="0 0 24 24"><path d="M.5 24c-.134 0-.259-.052-.354-.146S0 23.634 0 23.5s.052-.259.146-.354l13-13c.095-.094.22-.146.354-.146s.259.052.354.146.146.22.146.354-.052.259-.146.354l-13 13C.759 23.948.634 24 .5 24zM20.5 8c-.276 0-.5-.224-.5-.5s.224-.5.5-.5h3c.276 0 .5.224.5.5s-.224.5-.5.5h-3zM19.5 5c-.134 0-.259-.052-.354-.146S19 4.634 19 4.5s.052-.259.146-.354l2-2c.095-.094.22-.146.354-.146s.259.052.354.146.146.22.146.354-.052.259-.146.354l-2 2c-.095.094-.22.146-.354.146zM16.5 4c-.276 0-.5-.224-.5-.5v-3c0-.276.224-.5.5-.5s.5.224.5.5v3c0 .276-.224.5-.5.5zM13.5 5c-.134 0-.259-.052-.354-.146l-2-2C11.052 2.759 11 2.634 11 2.5s.052-.259.146-.354S11.366 2 11.5 2s.259.052.354.146l2 2c.094.095.146.22.146.354s-.052.259-.146.354S13.634 5 13.5 5zM9.5 8c-.276 0-.5-.224-.5-.5s.224-.5.5-.5h3c.276 0 .5.224.5.5s-.224.5-.5.5h-3zM16.5 14c-.276 0-.5-.224-.5-.5v-3c0-.276.224-.5.5-.5s.5.224.5.5v3c0 .276-.224.5-.5.5zM21.5 12c-.134 0-.259-.052-.354-.146l-2-2C19.052 9.759 19 9.634 19 9.5s.052-.259.146-.354S19.366 9 19.5 9s.259.052.354.146l2 2c.094.095.146.22.146.354s-.052.259-.146.354-.22.146-.354.146z"/></svg>