<svg viewBox="0 0 512 512" xmlns="http://www.w3.org/2000/svg"><path d="m96.8 190.9c-5.1 9.8-13.2 17.8-23 22.9l126.5 126.9 30.5-15.5zm166.8 167.5-30.5 15.5 64.1 64.3c5.1-9.8 13.2-17.8 23-22.9z"/><path d="m409.9 241.2-71.6 36.3 5.3 33.8 81-41.1c-7.8-8-12.9-18.1-14.7-29zm-113.2 57.3-169.3 85.8c7.8 7.9 12.9 18 14.7 29l159.9-81z"/><path d="m242.3 87.2-81.7 159.5 24.1 24.2 86.5-168.9c-10.9-1.8-21-7-28.9-14.8zm-102.9 200.9-41.4 80.8c10.9 1.9 21 7 28.9 14.8l36.6-71.4z"/><path d="m73 214.2c-8.3 4.2-17.6 6.1-26.9 5.6-1.7-.1-3.5-.3-5.2-.5l24.2 154.5c8.3-4.2 17.6-6.1 26.9-5.6 1.7.1 3.5.3 5.2.5z"/><path d="m142.3 414.1c.6 3.6.7 7.2.6 10.8-.4 7.4-2.3 14.6-5.7 21.2l154.4 24.9c-.6-3.6-.7-7.2-.6-10.9.4-7.4 2.3-14.6 5.7-21.2z"/><path d="m425.1 270.7-71.3 139.3c10.9 1.8 21 7 28.9 14.8l71.3-139.2c-10.9-1.9-21-7.1-28.9-14.9z"/><path d="m327.8 73.8c-5.1 9.8-13.2 17.8-23 22.9l110.4 110.9c5.1-9.8 13.2-17.8 23-22.9z"/><path d="m227 57.7-139.6 70.7c7.8 7.9 12.9 18 14.7 29l139.6-70.8c-7.7-7.9-12.9-18-14.7-28.9z"/><path d="m304.5 96.9c-8.4 4.3-17.9 6.3-27.3 5.8-1.6-.1-3.2-.3-4.7-.5l12.4 79.2 33.7 5.4zm-12.5 130.6 29.2 187.2c8.2-4 17.4-5.9 26.5-5.4 1.9.1 3.8.3 5.6.6l-27.6-177z"/><path d="m102.2 158c.6 3.6.8 7.3.6 11-.4 7.3-2.3 14.5-5.6 21.1l79.2 12.7 15.6-30.4zm135.9 21.8-15.6 30.4 187.2 30.1c-.5-3.5-.7-7.1-.5-10.7.4-7.4 2.4-14.7 5.7-21.4z"/><circle cx="280.1" cy="49" r="49"/><circle cx="463" cy="232.5" r="49"/><circle cx="344.9" cy="463" r="49"/><circle cx="89.1" cy="422" r="49"/><circle cx="49" cy="166.1" r="49"/></svg>