<svg xmlns="http://www.w3.org/2000/svg" viewBox="0 0 24 24"><title>fintech</title><path d="M10 12c-5.4 0-9-1.8-9-3.5v-2C2.6 8 6 9 10 9s7.4-1 9-2.5V9c0 .3.2.5.5.5s.5-.2.5-.5V4.5C20 2 15.6 0 10 0S0 2 0 4.5v13c0 2.4 3.8 4.3 9 4.5.3 0 .5-.2.5-.5S9.3 21 9 21c-4.4-.2-8-1.8-8-3.5V15c1.4 1.3 4.1 2.2 7.5 2.5.3 0 .5-.2.5-.5s-.2-.5-.5-.5C3.8 16.2 1 14.5 1 13v-2.5C2.6 12 6 13 10 13c.3 0 .5-.2.5-.5s-.2-.5-.5-.5zm0-11c5.3 0 9 1.8 9 3.5S15.3 8 10 8 1 6.2 1 4.5 4.7 1 10 1z"/><path d="M17.5 11c-3.6 0-6.5 2.9-6.5 6.5s2.9 6.5 6.5 6.5 6.5-2.9 6.5-6.5-2.9-6.5-6.5-6.5zm0 12c-3 0-5.5-2.5-5.5-5.5s2.5-5.5 5.5-5.5 5.5 2.5 5.5 5.5-2.5 5.5-5.5 5.5z"/><path d="M17.5 15.2c.5 0 .9.4.9.9 0 .3.2.5.5.5s.5-.2.5-.5c0-.9-.6-1.6-1.4-1.8v-.6c0-.3-.2-.5-.5-.5s-.5.2-.5.5v.6c-.8.2-1.4.9-1.4 1.8 0 1.1.8 1.9 1.9 1.9.5 0 .9.4.9.9s-.4.9-.9.9-.9-.4-.9-.9c0-.3-.2-.5-.5-.5s-.5.2-.5.5c0 .9.6 1.6 1.4 1.8v.5c0 .3.2.5.5.5s.5-.2.5-.5v-.5c.8-.2 1.4-.9 1.4-1.8 0-1.1-.8-1.9-1.9-1.9-.5 0-.9-.4-.9-.9s.4-.9.9-.9z"/></svg>