<svg viewBox="0 0 32 32" xmlns="http://www.w3.org/2000/svg"><title>instagram</title><path d="M16 2.884c4.272 0 4.779.016 6.467.093 4.336.198 6.361 2.255 6.558 6.559.078 1.687.092 2.193.092 6.465 0 4.274-.016 4.779-.092 6.466-.198 4.3-2.218 6.361-6.558 6.558-1.688.078-2.192.094-6.467.094-4.272 0-4.779-.016-6.465-.094-4.347-.198-6.362-2.265-6.559-6.56-.077-1.686-.093-2.192-.093-6.465 0-4.272.017-4.777.093-6.465.199-4.303 2.219-6.362 6.559-6.559 1.688-.076 2.193-.092 6.465-.092zM16 0c-4.345 0-4.89.019-6.596.096C3.594.363.364 3.586.097 9.403.02 11.11 0 11.655 0 16c0 4.345.019 4.89.096 6.597.267 5.811 3.49 9.04 9.307 9.307C11.11 31.981 11.655 32 16 32c4.345 0 4.89-.019 6.597-.096 5.806-.267 9.043-3.49 9.306-9.307C31.98 20.891 32 20.345 32 16c0-4.345-.019-4.89-.096-6.596-.261-5.805-3.49-9.04-9.305-9.307C20.89.02 20.345 0 16 0zm0 7.784a8.217 8.217 0 0 0 0 16.433 8.217 8.217 0 0 0 0-16.433zm0 13.55a5.333 5.333 0 1 1 0-10.667 5.334 5.334 0 0 1 0 10.666zM24.541 5.54a1.92 1.92 0 1 0 0 3.842 1.92 1.92 0 0 0 0-3.842z"/></svg>