<svg xmlns="http://www.w3.org/2000/svg" viewBox="0 0 24 24"><path d="M4.798 20.001c-.166 0-.333-.042-.483-.122-.216-.118-.373-.286-.466-.494l-3.76-8.459c-.085-.192-.11-.401-.073-.607.05-.274.203-.512.431-.67.175-.121.379-.186.59-.186.063 0 .126.006.188.017l5.642 1.026 4.29-6.076c.201-.271.515-.43.845-.43.224 0 .437.07.617.204.082.06.155.133.217.217l4.297 6.085 5.642-1.026c.061-.011.124-.017.187-.017.145 0 .287.03.42.09.254.112.448.317.548.576.1.259.094.542-.019.796l-3.761 8.459c-.091.203-.242.368-.438.479-.007.004-.021.013-.039.021-.148.076-.311.116-.472.117H4.798zm13.548-1L12 12.656l-6.345 6.345h12.691zM1.039 10.464a.036.036 0 0 0-.022.007c-.009.007-.015.015-.017.026l3.609 8.136 6.363-6.363-9.933-1.806zm18.351 8.168l3.607-8.112c.004-.01.005-.02 0-.03-.004-.01-.011-.018-.021-.022l-.015-.004-9.933 1.806 6.362 6.362zM12 11.441l4.048-.736-4.022-5.696c-.008-.004-.016-.007-.025-.007-.006 0-.022.002-.033.016l-4.016 5.687 4.048.736z"/></svg>