<svg viewBox="0 0 32 32" xmlns="http://www.w3.org/2000/svg"><title>rss</title><path d="M8.8 27.707c0 1.193-.428 2.206-1.283 3.041C6.66 31.583 5.622 32 4.4 32s-2.261-.417-3.117-1.252C.428 29.913 0 28.9 0 27.708c0-1.193.428-2.207 1.283-3.041.856-.835 1.895-1.252 3.117-1.252s2.261.417 3.117 1.252c.855.834 1.283 1.848 1.283 3.04zm11.196 2.73a1.38 1.38 0 0 1-.38 1.087 1.307 1.307 0 0 1-1.049.476h-3.012a1.36 1.36 0 0 1-.96-.374 1.387 1.387 0 0 1-.446-.94c-.328-3.457-1.7-6.413-4.118-8.866-2.417-2.454-5.33-3.847-8.737-4.179a1.35 1.35 0 0 1-.926-.453A1.403 1.403 0 0 1 0 16.214v-3.057c0-.438.156-.793.469-1.065a1.29 1.29 0 0 1 .96-.385h.11a19.78 19.78 0 0 1 6.83 1.823 19.734 19.734 0 0 1 5.78 4.111 20.03 20.03 0 0 1 4.05 5.866 20.547 20.547 0 0 1 1.797 6.93zm12 .04c.03.41-.106.765-.41 1.068a1.343 1.343 0 0 1-1.044.455h-3.25a1.42 1.42 0 0 1-1.011-.398 1.36 1.36 0 0 1-.443-.966 25.41 25.41 0 0 0-2.296-9.284c-1.348-2.932-3.101-5.477-5.26-7.636-2.16-2.16-4.704-3.913-7.636-5.261a25.736 25.736 0 0 0-9.283-2.319 1.36 1.36 0 0 1-.965-.443A1.392 1.392 0 0 1 0 4.705v-3.25C0 1.03.151.682.454.409a1.36 1.36 0 0 1 1-.409h.069a31.529 31.529 0 0 1 11.396 2.727 31.856 31.856 0 0 1 9.669 6.682 31.86 31.86 0 0 1 6.68 9.67 31.54 31.54 0 0 1 2.728 11.398z"/></svg>