<svg xmlns="http://www.w3.org/2000/svg" viewBox="0 0 24 24"><path d="M17.6 8.8l1.9-1.9c.2.1.5.2.8.2 1 0 1.9-.9 1.9-1.9s-.9-1.9-1.9-1.9c-1 0-1.9.9-1.9 1.9 0 .4.1.7.3 1L16.8 8l.8.8zm2.7-4.5c.5 0 .9.4.9.9s-.4.9-.9.9-.9-.4-.9-.9.4-.9.9-.9zm0 15.8c-.4 0-.7.1-1 .3l-1-1.1-.7.7 1.1 1.2c-.1.3-.2.6-.2.9 0 1 .9 1.9 1.9 1.9 1 0 1.9-.9 1.9-1.9s-1-2-2-2zm0 2.8c-.5 0-.9-.4-.9-.9s.4-.9.9-.9.9.4.9.9-.4.9-.9.9zM3.7 7.1c.3 0 .6-.1.9-.2l1.9 1.9.7-.8-1.9-1.8c.2-.3.3-.6.3-1 0-1-.9-1.9-1.9-1.9s-1.9.9-1.9 1.9.9 1.9 1.9 1.9zm0-2.8c.5 0 .9.4.9.9s-.4.9-.9.9-.9-.4-.9-.9.4-.9.9-.9zm2 15l-1 1.1c-.3-.2-.6-.3-1-.3-1 0-1.9.9-1.9 1.9s.9 1.9 1.9 1.9S5.6 23 5.6 22c0-.3-.1-.6-.2-.9l1.1-1.2-.8-.6zm-2 3.6c-.5 0-.9-.4-.9-.9s.4-.9.9-.9.9.4.9.9-.4.9-.9.9zm16.6-11.6c-.9 0-1.6.6-1.8 1.4h-2.2v1h2.2c.2.8 1 1.4 1.8 1.4 1 0 1.9-.9 1.9-1.9 0-1-.9-1.9-1.9-1.9zm0 2.8c-.5 0-.9-.4-.9-.9s.4-.9.9-.9.9.4.9.9-.4.9-.9.9zm-16.6 1c.9 0 1.6-.6 1.8-1.4h2.2v-1H5.5c-.2-.8-1-1.4-1.8-1.4-1 0-1.9.9-1.9 1.9 0 1 .9 1.9 1.9 1.9zm0-2.8c.5 0 .9.4.9.9s-.4.9-.9.9-.9-.4-.9-.9.4-.9.9-.9zm7.8-8.5v1.6h1V3.8c.8-.2 1.4-1 1.4-1.8 0-1-.9-1.9-1.9-1.9S10.1 1 10.1 2c0 .9.6 1.6 1.4 1.8zm.5-2.7c.5 0 .9.4.9.9s-.4.9-.9.9-.9-.4-.9-.9.4-.9.9-.9zM13.9 15v-.8c.3-.2.6-.7.7-1.7.3-.2.5-.7.5-1.1 0-.3-.1-.5-.2-.7 0-.1-.1-.1-.1-.2.1-.4.3-1 .2-1.6-.2-.8-1.1-1.4-2.4-1.4-1 0-2.1.3-2.6 1-.3 0-.6.1-.8.3-.4.6-.2 1.3.1 1.8 0 0-.1.1-.1.2-.1.2-.2.4-.2.7 0 .4.2.9.5 1.1.1.9.4 1.4.7 1.7v.7c-.9.4-3.2 1.5-3.2 2.4V19h10v-1.6c0-.8-1.9-1.9-3.1-2.4zm2.1 3H8v-.5c.1-.3 1.2-1.1 2.8-1.7l.3-.1v-2.1l-.4-.1s-.4-.2-.4-1.2v-.5H10c-.1-.1-.1-.4-.1-.4h.5v-.5c0-.2-.1-.3-.2-.5 0-.2-.2-.6-.2-.8h.1l.5.1.1-.4c.1-.4.9-.7 1.8-.7.8 0 1.4.3 1.5.7.1.5-.1 1-.2 1.2-.1.1-.1.2-.1.4l-.1.5h.4v.4h-.4v.5c0 1-.3 1.2-.3 1.2l-.4.1v2.1l.3.1c1.4.6 2.6 1.5 2.8 1.7v.5z"/></svg>