<svg xmlns="http://www.w3.org/2000/svg" viewBox="0 0 24 24"><path d="M13.761 12.218c-.134 0-.259-.052-.354-.146-.13-.13-.178-.32-.126-.496.267-.9.64-1.769 1.107-2.582.024-.041.053-.079.087-.111.284-.275.644-.42 1.04-.42h.027c.401.007.775.169 1.053.458.564.584.564 1.5 0 2.084-.033.034-.071.063-.111.087-.813.467-1.682.84-2.582 1.106-.046.013-.093.02-.141.02zm1.453-2.654c-.244.432-.459.882-.644 1.344.462-.184.912-.4 1.345-.644.15-.196.135-.469-.039-.649-.092-.096-.216-.15-.349-.153-.111 0-.228.039-.313.102zM19.418 10.801c-.133 0-.259-.052-.353-.146l-4.243-4.24c-.094-.095-.146-.22-.146-.354 0-.134.052-.26.147-.354l.354-.353c.761-.684 1.724-1.055 2.721-1.055.346 0 .692.045 1.03.133l1.201-1.199c.288-.27.607-.487.954-.65l1.572-.673c.125-.054.247-.082.363-.082.174 0 .335.065.454.182.096.095.296.365.104.816 0 .001-.671 1.559-.671 1.559-.167.358-.383.677-.644.957L21.05 6.551c.341 1.334.004 2.719-.904 3.73l-.371.372c-.098.096-.224.148-.357.148zm-.001-1.207c.681-.76.928-1.82.653-2.825l-.067-.197c-.061-.182-.015-.378.121-.514l1.415-1.412c.18-.193.333-.421.45-.671l.366-.851-.865.37c-.238.112-.466.267-.668.456l-1.406 1.403c-.093.093-.222.146-.353.146-.054 0-.107-.009-.159-.026l-.223-.073c-.247-.067-.515-.103-.784-.103-.74 0-1.454.272-2.014.765l3.534 3.532z"/><path d="M10.301 22.156c-1.547 0-3.056-.453-4.364-1.31-.18-.118-.358-.246-.532-.381-1.518.932-2.72 1.404-3.574 1.404-.449 0-.808-.131-1.065-.388-1.079-1.081.323-3.692 1.721-5.728-.422-2.077-.015-4.195 1.147-5.969 1.17-1.785 2.964-3.008 5.054-3.443.539-.112 1.089-.169 1.636-.169 1.074 0 2.125.215 3.122.64.123.052.218.149.268.273.05.124.049.26-.004.383-.078.185-.259.304-.46.304-.068 0-.134-.014-.197-.04-.872-.371-1.79-.559-2.73-.559-.478 0-.959.05-1.431.148-1.828.381-3.398 1.45-4.421 3.012-1.023 1.562-1.377 3.428-.997 5.256.292 1.404.988 2.656 2.017 3.634 1.976-1.298 4.263-3.207 6.463-5.395.093-.094.219-.146.352-.146.134 0 .26.052.355.148.094.095.146.22.146.354 0 .133-.053.259-.147.353-2.105 2.094-4.402 4.026-6.356 5.349.062.044.123.085.183.125 1.144.75 2.464 1.146 3.817 1.146.48 0 .964-.05 1.439-.149 3.773-.786 6.204-4.495 5.418-8.268-.056-.27.118-.535.387-.592.035-.007.069-.01.102-.01.235 0 .441.167.49.398.898 4.313-1.88 8.553-6.193 9.451-.544.112-1.097.169-1.646.169zm-7.449-5.142c-1.635 2.558-1.559 3.58-1.378 3.761.086.086.245.104.365.104.584 0 1.565-.393 2.782-1.112-.775-.785-1.378-1.724-1.769-2.753z"/></svg>