<svg xmlns="http://www.w3.org/2000/svg" viewBox="0 0 24 24"><title>teal-agile</title><path d="M23.96 21.69a.5.5 0 0 0 0-.38.457.457 0 0 0-.11-.16l-2-2c-.2-.2-.51-.2-.71 0s-.2.51 0 .71L22.29 21H12c-1.92 0-3.72-.56-5.24-1.5 2.2 0 3.99-1.8 3.99-4a3.9 3.9 0 0 0-.4-1.7c.53.12 1.08.2 1.65.2 1.72 0 3.3-.63 4.52-1.66 0 .05-.02.11-.02.16 0 1.65 1.35 3 3 3 .61 0 1.17-.18 1.64-.49a10.03 10.03 0 0 1-2.71 3.61c-.21.18-.24.49-.06.7.18.21.5.24.7.06C21.57 17.28 23 14.22 23 11 23 5.18 18.45.41 12.71.04A5.53 5.53 0 0 0 12 0c-.24 0-.48.01-.71.04C5.55.41 1 5.18 1 11c0 6.07 4.93 11 11 11h10.29l-1.15 1.15c-.2.2-.2.51 0 .71a.485.485 0 0 0 .7 0l2-2c.06-.05.1-.11.12-.17zM6.75 18.5c-1.65 0-3-1.35-3-3s1.35-3 3-3 3 1.35 3 3-1.35 3-3 3zM12 13c-3.31 0-6-2.69-6-6 0-2.36 1.37-4.39 3.35-5.37C9.13 2.04 9 2.5 9 3c0 1.18.69 2.19 1.68 2.68-.69.31-1.18 1.01-1.18 1.82 0 1.1.9 2 2 2 .92 0 1.7-.63 1.92-1.49.53.89 1.48 1.49 2.58 1.49.61 0 1.18-.18 1.65-.5-.83 2.33-3.04 4-5.65 4zm1.03-6.78c-.1-.11-.21-.22-.33-.31.14-.03.27-.07.4-.12-.04.14-.06.29-.07.43zm-1.53.28c.55 0 1 .45 1 1s-.45 1-1 1-1-.45-1-1 .45-1 1-1zm4.5-2c.88 0 1.63.58 1.89 1.38.05.26.08.52.09.79A1.985 1.985 0 0 1 16 8.5c-1.1 0-2-.9-2-2s.9-2 2-2zm0-1c-.39 0-.76.08-1.1.21.06-.23.1-.46.1-.71 0-.5-.13-.96-.35-1.37.95.47 1.76 1.18 2.35 2.05-.32-.11-.65-.18-1-.18zM14 3c0 1.1-.9 2-2 2s-2-.9-2-2 .9-2 2-2 2 .9 2 2zm5.5 11.5c-1.1 0-2-.9-2-2s.9-2 2-2 2 .9 2 2-.9 2-2 2zm2.49-3.67c-.54-.8-1.45-1.33-2.49-1.33-.37 0-.72.08-1.04.2.35-.83.54-1.74.54-2.7 0-.11-.01-.22-.02-.33.01-.06.02-.11.02-.17 0-.29-.05-.56-.13-.82a6.92 6.92 0 0 0-1.41-3.04 9.957 9.957 0 0 1 4.53 8.19zM6.54 2.63a6.98 6.98 0 0 0 .11 8.88 3.998 3.998 0 0 0-3.85 3.42C2.29 13.72 2 12.4 2 11c0-3.5 1.81-6.58 4.54-8.37zM6 21.5c0 .28-.22.5-.5.5h-5c-.28 0-.5-.22-.5-.5s.22-.5.5-.5h5c.28 0 .5.22.5.5z"/></svg>