<svg viewBox="0 0 32 32" xmlns="http://www.w3.org/2000/svg"><path d="M32 5.903a13.888 13.888 0 0 1-3.29 3.456c.014.193.021.482.021.869 0 1.793-.257 3.582-.772 5.369a19.575 19.575 0 0 1-2.345 5.14 20.1 20.1 0 0 1-3.746 4.356c-1.448 1.262-3.195 2.27-5.239 3.02-2.044.753-4.23 1.128-6.558 1.128-3.668 0-7.025-1-10.071-3 .474.056 1.002.083 1.584.083 3.045 0 5.76-.952 8.142-2.855a6.318 6.318 0 0 1-3.817-1.335 6.535 6.535 0 0 1-2.315-3.3c.447.07.86.104 1.238.104.583 0 1.158-.076 1.726-.228-1.516-.317-2.771-1.086-3.766-2.307-.995-1.22-1.493-2.637-1.493-4.251v-.083c.921.524 1.91.807 2.965.848a6.63 6.63 0 0 1-2.132-2.38 6.61 6.61 0 0 1-.792-3.185c0-1.214.298-2.338.894-3.373a18.664 18.664 0 0 0 5.98 4.935 18.01 18.01 0 0 0 7.542 2.058 7.558 7.558 0 0 1-.162-1.53c0-1.849.64-3.425 1.919-4.728 1.279-1.304 2.825-1.955 4.64-1.955 1.894 0 3.492.703 4.791 2.11a12.715 12.715 0 0 0 4.163-1.614c-.501 1.586-1.462 2.814-2.884 3.683 1.26-.138 2.518-.483 3.777-1.035z"/></svg>