<svg xmlns="http://www.w3.org/2000/svg" viewBox="0 0 24 24"><title>user-experience</title><path d="M12 0C5.4 0 0 5.4 0 12c0 3.1 1.2 6.1 3.4 8.4C5.7 22.7 8.8 24 12 24c3.2 0 6.3-1.3 8.6-3.5 2.3-2.3 3.4-5.2 3.4-8.5 0-6.6-5.4-12-12-12zM4.6 20.2c1.2-.6 3-1.3 4.6-1.9l.9-.3c.2-.1.3-.3.3-.5V15c0-.2-.1-.4-.3-.5 0 0-1.2-.5-1.2-2.5 0-.3-.2-.5-.5-.5 0 0-.1-.2-.1-.5s.1-.5.1-.5c.4 0 .6-.2.6-.5 0-.1 0-.2-.1-.5-.2-.5-.6-2-.2-2.4.1-.2.5-.2.7-.1.3 0 .5-.1.6-.4.2-.6 1.3-1.1 2.8-1.1s2.6.5 2.8 1.1c.2 1-.2 2.3-.4 2.9-.2.3-.2.4-.2.5 0 .3.2.5.5.5 0 0 .1.2.1.5s-.1.5-.1.5c-.3 0-.5.2-.5.5 0 2.1-1.1 2.5-1.2 2.5-.2.1-.3.3-.3.5v2.5c0 .2.1.4.3.5l1.1.4c1.7.6 3.4 1.2 4.4 1.8-2 1.8-4.5 2.8-7.3 2.8-2.7 0-5.3-1-7.4-2.8zm15.5-.8c-1.1-.7-2.9-1.3-4.8-2l-.8-.3v-1.8c.5-.3 1.4-1.1 1.5-2.9.4-.2.6-.7.6-1.4 0-.6-.2-1-.5-1.3.2-.7.6-2.1.4-3.3-.3-1.4-2.2-1.9-3.7-1.9-1.3 0-3 .4-3.6 1.5-.5-.1-.9.1-1.2.4-.8.8-.3 2.4-.1 3.3-.3.3-.5.7-.5 1.3 0 .6.2 1.1.6 1.4.1 1.8 1 2.6 1.5 2.9v1.8l-.6.2c-1.9.7-3.8 1.4-5 2.1C2 17.4 1 14.7 1 12 1 5.9 5.9 1 12 1s11 4.9 11 11c0 2.9-1 5.4-2.9 7.4z"/></svg>