<svg viewBox="0 0 24 24" xmlns="http://www.w3.org/2000/svg"><path d="m7.5 23.5c-.276 0-.5-.224-.5-.5s.224-.5.5-.5h4v-2h-10c-.827 0-1.5-.673-1.5-1.5v-17c0-.827.673-1.5 1.5-1.5h21c.827 0 1.5.673 1.5 1.5v17c0 .827-.673 1.5-1.5 1.5h-10v2h4c.276 0 .5.224.5.5s-.224.5-.5.5zm-6.5-4.5c0 .276.224.5.5.5h21c.276 0 .5-.224.5-.5v-2.5h-22zm22-3.5v-13.5c0-.276-.224-.5-.5-.5h-21c-.276 0-.5.224-.5.5v13.5h2v-5.498c0-.052.008-.102.026-.154.003-.014.008-.028.013-.04l2.038-4.893c.101-.245.293-.437.54-.54.123-.051.252-.076.383-.076s.26.026.382.077c.247.101.44.294.542.541l2.038 4.891c.005.012.009.026.013.039.016.05.025.102.025.153v5.5zm-15 0v-4.617l-1.5.9v3.717zm-2.5 0v-3.717l-1.5-.9v4.617zm.5-4.583 1.872-1.124-.539-1.293h-2.666l-.539 1.293zm.917-3.417-.917-2.2-.917 2.2z"/><circle cx="12" cy="18" r=".75"/><path d="m13.5 4.5c-.276 0-.5-.224-.5-.5s.224-.5.5-.5h7c.276 0 .5.224.5.5s-.224.5-.5.5zm-1 3c-.276 0-.5-.224-.5-.5s.224-.5.5-.5h8c.276 0 .5.224.5.5s-.224.5-.5.5zm0 3c-.276 0-.5-.224-.5-.5s.224-.5.5-.5h8c.276 0 .5.224.5.5s-.224.5-.5.5zm0 3c-.276 0-.5-.224-.5-.5s.224-.5.5-.5h5.5c.276 0 .5.224.5.5s-.224.5-.5.5z"/></svg>